<svg width="200" height="58" viewBox="0 0 200 58" fill="none" xmlns="http://www.w3.org/2000/svg">
<rect width="200" height="57.4175" rx="11.0242" fill="white"/>
<rect x="16" y="10" width="37" height="37" rx="7" fill="#60D669"/>
<path d="M21.1086 28.9731C21.108 31.2593 21.7054 33.4917 22.8413 35.4593L21 42.1821L27.8799 40.3782C29.7828 41.4141 31.9149 41.9569 34.0815 41.957H34.0872C41.2396 41.957 47.0618 36.1369 47.0648 28.9833C47.0662 25.5169 45.7175 22.2573 43.267 19.8049C40.817 17.3527 37.5585 16.0016 34.0867 16C26.9335 16 21.1117 21.8198 21.1087 28.9731" fill="url(#paint0_linear_37_9)"/>
<path d="M21.1129 28.4384C21.1121 30.8069 21.7309 33.1191 22.9073 35.1572L21 42.121L28.1266 40.2524C30.0902 41.323 32.3011 41.8875 34.5507 41.8883H34.5565C41.9655 41.8883 47.9968 35.8589 48 28.4492C48.0013 24.8582 46.604 21.4814 44.066 18.9412C41.5277 16.4013 38.1527 15.0015 34.5565 15C27.1463 15 21.1158 21.0286 21.1129 28.4384ZM25.357 34.8062L25.0909 34.3838C23.9723 32.6052 23.3819 30.5498 23.3827 28.4392C23.3851 22.2804 28.3974 17.2697 34.5608 17.2697C37.5455 17.271 40.3506 18.4345 42.4604 20.5455C44.5701 22.6568 45.7309 25.4633 45.7302 28.4483C45.7275 34.6072 40.7151 39.6185 34.5565 39.6185H34.5521C32.5468 39.6175 30.5801 39.0789 28.865 38.0613L28.4569 37.8192L24.2278 38.928L25.357 34.8062Z" fill="url(#paint1_linear_37_9)"/>
<path d="M30.471 22.5882C30.2193 22.0289 29.9545 22.0176 29.7152 22.0078C29.5192 21.9994 29.2952 22 29.0714 22C28.8474 22 28.4834 22.0843 28.1758 22.4202C27.8678 22.7564 27 23.569 27 25.2216C27 26.8742 28.2037 28.4714 28.3715 28.6957C28.5395 28.9196 30.6953 32.4195 34.1095 33.7659C36.9471 34.8848 37.5245 34.6623 38.1404 34.6061C38.7563 34.5503 40.1278 33.7938 40.4076 33.0095C40.6876 32.2252 40.6876 31.5529 40.6037 31.4125C40.5197 31.2725 40.2957 31.1884 39.9598 31.0205C39.6238 30.8525 37.9723 30.0399 37.6645 29.9278C37.3565 29.8158 37.1326 29.7599 36.9086 30.0962C36.6846 30.432 36.0413 31.1884 35.8452 31.4125C35.6494 31.637 35.4533 31.6649 35.1175 31.4969C34.7814 31.3284 33.6996 30.9741 32.4161 29.8299C31.4176 28.9395 30.7434 27.84 30.5474 27.5037C30.3515 27.1679 30.5265 26.9858 30.6949 26.8185C30.8458 26.6679 31.0309 26.4262 31.199 26.2301C31.3665 26.034 31.4224 25.894 31.5344 25.67C31.6465 25.4458 31.5904 25.2496 31.5066 25.0816C31.4224 24.9136 30.7697 23.2523 30.471 22.5882Z" fill="white"/>
<path d="M69.6026 36L65.1976 24.3909H65.1258C65.1497 24.6361 65.1707 24.9352 65.1886 25.2881C65.2065 25.6409 65.2215 26.0267 65.2335 26.4454C65.2454 26.8581 65.2514 27.2797 65.2514 27.7104V36H63.8339V22.8837H66.0947L70.2485 33.793H70.3113L74.5279 22.8837H76.7708V36H75.2636V27.6027C75.2636 27.2139 75.2695 26.8252 75.2815 26.4364C75.2935 26.0417 75.3084 25.6708 75.3264 25.3239C75.3443 24.9711 75.3623 24.666 75.3802 24.4088H75.3084L70.8496 36H69.6026ZM78.583 26.1673H80.1799L82.351 31.8731C82.4766 32.2081 82.5933 32.531 82.7009 32.842C82.8086 33.1471 82.9043 33.4401 82.988 33.7212C83.0717 34.0024 83.1375 34.2745 83.1854 34.5376H83.2482C83.3319 34.2386 83.4515 33.8468 83.607 33.3624C83.7625 32.8719 83.93 32.3725 84.1094 31.8641L86.1639 26.1673H87.7698L83.4904 37.4444C83.2631 38.0485 82.997 38.5748 82.692 39.0234C82.3929 39.472 82.0281 39.8159 81.5974 40.0551C81.1668 40.3003 80.6465 40.4229 80.0364 40.4229C79.7553 40.4229 79.5071 40.405 79.2918 40.3691C79.0764 40.3392 78.891 40.3033 78.7355 40.2615V39.0682C78.8671 39.0982 79.0256 39.1251 79.211 39.149C79.4024 39.1729 79.5998 39.1849 79.8031 39.1849C80.174 39.1849 80.4939 39.1131 80.7631 38.9696C81.0382 38.832 81.2745 38.6286 81.4718 38.3595C81.6692 38.0904 81.8397 37.7704 81.9832 37.3996L82.5215 36.0179L78.583 26.1673ZM109.239 22.8837L105.731 36H104.197L101.595 27.1721C101.517 26.9209 101.442 26.6697 101.371 26.4185C101.305 26.1613 101.242 25.919 101.182 25.6918C101.122 25.4585 101.072 25.2552 101.03 25.0817C100.994 24.9023 100.967 24.7677 100.949 24.678C100.937 24.7677 100.913 24.8993 100.877 25.0727C100.847 25.2462 100.805 25.4465 100.752 25.6738C100.704 25.9011 100.644 26.1433 100.572 26.4005C100.506 26.6577 100.435 26.9179 100.357 27.181L97.8268 36H96.2927L92.8118 22.8837H94.3997L96.508 31.1105C96.5798 31.3857 96.6456 31.6578 96.7054 31.9269C96.7712 32.1901 96.828 32.4473 96.8759 32.6985C96.9297 32.9497 96.9775 33.1949 97.0194 33.4342C97.0613 33.6734 97.1002 33.9067 97.136 34.1339C97.1659 33.9007 97.2048 33.6584 97.2527 33.4072C97.3005 33.1501 97.3514 32.8899 97.4052 32.6267C97.465 32.3636 97.5278 32.0974 97.5936 31.8283C97.6654 31.5591 97.7401 31.29 97.8179 31.0208L100.177 22.8837H101.747L104.206 31.0836C104.289 31.3647 104.367 31.6429 104.439 31.918C104.511 32.1931 104.573 32.4622 104.627 32.7254C104.687 32.9826 104.738 33.2308 104.78 33.47C104.828 33.7033 104.869 33.9246 104.905 34.1339C104.947 33.8409 104.998 33.5328 105.058 33.2099C105.118 32.8869 105.186 32.549 105.264 32.1961C105.348 31.8432 105.438 31.4784 105.533 31.1016L107.642 22.8837H109.239ZM112.576 22.0404V26.2121C112.576 26.4514 112.57 26.6936 112.558 26.9388C112.546 27.178 112.525 27.3993 112.495 27.6027H112.594C112.797 27.2558 113.054 26.9657 113.365 26.7325C113.682 26.4932 114.041 26.3138 114.442 26.1942C114.843 26.0686 115.267 26.0058 115.716 26.0058C116.505 26.0058 117.163 26.1314 117.69 26.3826C118.222 26.6338 118.62 27.0225 118.883 27.5489C119.152 28.0752 119.287 28.757 119.287 29.5944V36H117.815V29.693C117.815 28.8737 117.627 28.2606 117.25 27.8539C116.879 27.4472 116.308 27.2438 115.537 27.2438C114.807 27.2438 114.224 27.3844 113.787 27.6655C113.356 27.9406 113.045 28.3473 112.854 28.8856C112.669 29.4239 112.576 30.0818 112.576 30.8593V36H111.087V22.0404H112.576ZM126.033 26.0058C127.205 26.0058 128.076 26.2689 128.644 26.7953C129.212 27.3216 129.496 28.1619 129.496 29.3162V36H128.411L128.124 34.5466H128.052C127.777 34.9055 127.49 35.2075 127.19 35.4527C126.891 35.692 126.545 35.8744 126.15 36C125.761 36.1196 125.283 36.1794 124.714 36.1794C124.116 36.1794 123.584 36.0748 123.117 35.8654C122.657 35.6561 122.292 35.3391 122.023 34.9145C121.76 34.4898 121.628 33.9515 121.628 33.2996C121.628 32.3187 122.017 31.5651 122.794 31.0388C123.572 30.5124 124.756 30.2254 126.347 30.1775L128.043 30.1057V29.5046C128.043 28.6553 127.86 28.0602 127.496 27.7193C127.131 27.3784 126.616 27.2079 125.952 27.2079C125.438 27.2079 124.948 27.2827 124.481 27.4322C124.015 27.5818 123.572 27.7582 123.153 27.9616L122.696 26.8311C123.138 26.6039 123.647 26.4095 124.221 26.248C124.795 26.0865 125.399 26.0058 126.033 26.0058ZM128.025 31.1554L126.527 31.2182C125.301 31.266 124.436 31.4664 123.934 31.8193C123.431 32.1722 123.18 32.6716 123.18 33.3175C123.18 33.8797 123.351 34.2954 123.692 34.5646C124.033 34.8337 124.484 34.9683 125.046 34.9683C125.92 34.9683 126.634 34.726 127.19 34.2416C127.747 33.7571 128.025 33.0304 128.025 32.0615V31.1554ZM135.74 34.9593C135.986 34.9593 136.237 34.9384 136.494 34.8965C136.751 34.8546 136.96 34.8038 137.122 34.744V35.9013C136.948 35.9791 136.706 36.0449 136.395 36.0987C136.09 36.1525 135.791 36.1794 135.498 36.1794C134.978 36.1794 134.505 36.0897 134.081 35.9103C133.656 35.7249 133.315 35.4139 133.058 34.9773C132.807 34.5406 132.681 33.9366 132.681 33.165V27.3335H131.281V26.6069L132.69 26.0237L133.282 23.8885H134.179V26.1673H137.059V27.3335H134.179V33.1202C134.179 33.7362 134.32 34.1967 134.601 34.5018C134.888 34.8068 135.268 34.9593 135.74 34.9593ZM145.474 33.3086C145.474 33.9366 145.316 34.4659 144.999 34.8965C144.688 35.3212 144.239 35.6411 143.653 35.8565C143.073 36.0718 142.379 36.1794 141.572 36.1794C140.884 36.1794 140.289 36.1256 139.786 36.0179C139.284 35.9103 138.844 35.7578 138.468 35.5604V34.1878C138.868 34.3851 139.347 34.5646 139.903 34.726C140.459 34.8875 141.028 34.9683 141.608 34.9683C142.457 34.9683 143.073 34.8307 143.456 34.5556C143.839 34.2805 144.03 33.9067 144.03 33.4342C144.03 33.165 143.952 32.9288 143.797 32.7254C143.647 32.5161 143.393 32.3157 143.034 32.1243C142.675 31.9269 142.179 31.7116 141.545 31.4784C140.917 31.2391 140.373 31.0029 139.912 30.7696C139.458 30.5304 139.105 30.2403 138.853 29.8994C138.608 29.5585 138.486 29.1159 138.486 28.5716C138.486 27.7403 138.821 27.1033 139.49 26.6607C140.166 26.2121 141.051 25.9878 142.146 25.9878C142.738 25.9878 143.291 26.0476 143.806 26.1673C144.326 26.2809 144.81 26.4364 145.259 26.6338L144.757 27.827C144.35 27.6535 143.916 27.507 143.456 27.3874C142.995 27.2678 142.526 27.2079 142.047 27.2079C141.359 27.2079 140.83 27.3216 140.459 27.5489C140.094 27.7761 139.912 28.0872 139.912 28.4819C139.912 28.7869 139.996 29.0381 140.163 29.2355C140.337 29.4329 140.612 29.6183 140.989 29.7917C141.365 29.9652 141.862 30.1685 142.478 30.4018C143.094 30.6291 143.626 30.8653 144.075 31.1105C144.523 31.3498 144.867 31.6429 145.107 31.9897C145.352 32.3307 145.474 32.7703 145.474 33.3086ZM151.548 26.0058C152.72 26.0058 153.591 26.2689 154.159 26.7953C154.727 27.3216 155.011 28.1619 155.011 29.3162V36H153.926L153.638 34.5466H153.567C153.292 34.9055 153.004 35.2075 152.705 35.4527C152.406 35.692 152.059 35.8744 151.665 36C151.276 36.1196 150.797 36.1794 150.229 36.1794C149.631 36.1794 149.099 36.0748 148.632 35.8654C148.172 35.6561 147.807 35.3391 147.538 34.9145C147.275 34.4898 147.143 33.9515 147.143 33.2996C147.143 32.3187 147.532 31.5651 148.309 31.0388C149.087 30.5124 150.271 30.2254 151.862 30.1775L153.558 30.1057V29.5046C153.558 28.6553 153.375 28.0602 153.01 27.7193C152.646 27.3784 152.131 27.2079 151.467 27.2079C150.953 27.2079 150.463 27.2827 149.996 27.4322C149.529 27.5818 149.087 27.7582 148.668 27.9616L148.211 26.8311C148.653 26.6039 149.162 26.4095 149.736 26.248C150.31 26.0865 150.914 26.0058 151.548 26.0058ZM153.54 31.1554L152.041 31.2182C150.815 31.266 149.951 31.4664 149.449 31.8193C148.946 32.1722 148.695 32.6716 148.695 33.3175C148.695 33.8797 148.866 34.2954 149.207 34.5646C149.547 34.8337 149.999 34.9683 150.561 34.9683C151.434 34.9683 152.149 34.726 152.705 34.2416C153.262 33.7571 153.54 33.0304 153.54 32.0615V31.1554ZM162.7 25.9878C163.926 25.9878 164.904 26.4095 165.633 27.2528C166.363 28.0961 166.728 29.3641 166.728 31.0567C166.728 32.1752 166.56 33.1142 166.225 33.8738C165.89 34.6333 165.418 35.2075 164.808 35.5963C164.204 35.985 163.489 36.1794 162.664 36.1794C162.143 36.1794 161.686 36.1106 161.291 35.9731C160.896 35.8355 160.558 35.6501 160.277 35.4169C159.996 35.1836 159.763 34.9294 159.578 34.6543H159.47C159.488 34.8875 159.509 35.1686 159.533 35.4976C159.563 35.8266 159.578 36.1136 159.578 36.3589V40.396H158.079V26.1673H159.308L159.506 27.6206H159.578C159.769 27.3216 160.002 27.0495 160.277 26.8042C160.552 26.553 160.887 26.3557 161.282 26.2121C161.683 26.0626 162.155 25.9878 162.7 25.9878ZM162.439 27.2438C161.758 27.2438 161.207 27.3754 160.789 27.6386C160.376 27.9017 160.074 28.2965 159.883 28.8228C159.691 29.3432 159.59 29.9981 159.578 30.7876V31.0747C159.578 31.906 159.667 32.6088 159.847 33.183C160.032 33.7571 160.334 34.1937 160.753 34.4928C161.177 34.7918 161.746 34.9414 162.457 34.9414C163.067 34.9414 163.576 34.7769 163.983 34.4479C164.389 34.119 164.691 33.6614 164.889 33.0753C165.092 32.4832 165.194 31.8043 165.194 31.0388C165.194 29.8785 164.966 28.9574 164.512 28.2756C164.063 27.5877 163.372 27.2438 162.439 27.2438ZM173.95 25.9878C175.176 25.9878 176.154 26.4095 176.884 27.2528C177.613 28.0961 177.978 29.3641 177.978 31.0567C177.978 32.1752 177.811 33.1142 177.476 33.8738C177.141 34.6333 176.668 35.2075 176.058 35.5963C175.454 35.985 174.739 36.1794 173.914 36.1794C173.394 36.1794 172.936 36.1106 172.541 35.9731C172.147 35.8355 171.809 35.6501 171.528 35.4169C171.246 35.1836 171.013 34.9294 170.828 34.6543H170.72C170.738 34.8875 170.759 35.1686 170.783 35.4976C170.813 35.8266 170.828 36.1136 170.828 36.3589V40.396H169.33V26.1673H170.559L170.756 27.6206H170.828C171.019 27.3216 171.252 27.0495 171.528 26.8042C171.803 26.553 172.138 26.3557 172.532 26.2121C172.933 26.0626 173.406 25.9878 173.95 25.9878ZM173.69 27.2438C173.008 27.2438 172.458 27.3754 172.039 27.6386C171.626 27.9017 171.324 28.2965 171.133 28.8228C170.941 29.3432 170.84 29.9981 170.828 30.7876V31.0747C170.828 31.906 170.917 32.6088 171.097 33.183C171.282 33.7571 171.584 34.1937 172.003 34.4928C172.428 34.7918 172.996 34.9414 173.708 34.9414C174.318 34.9414 174.826 34.7769 175.233 34.4479C175.639 34.119 175.942 33.6614 176.139 33.0753C176.342 32.4832 176.444 31.8043 176.444 31.0388C176.444 29.8785 176.217 28.9574 175.762 28.2756C175.314 27.5877 174.623 27.2438 173.69 27.2438Z" fill="#60D76A"/>
<defs>
<linearGradient id="paint0_linear_37_9" x1="1324.24" y1="2634.21" x2="1324.24" y2="16" gradientUnits="userSpaceOnUse">
<stop stop-color="#1FAF38"/>
<stop offset="1" stop-color="#60D669"/>
</linearGradient>
<linearGradient id="paint1_linear_37_9" x1="1371" y1="2727.1" x2="1371" y2="15" gradientUnits="userSpaceOnUse">
<stop stop-color="#F9F9F9"/>
<stop offset="1" stop-color="white"/>
</linearGradient>
</defs>
</svg>
