<svg width="489" height="125" viewBox="0 0 489 125" fill="none" xmlns="http://www.w3.org/2000/svg">
<rect width="489" height="125" rx="35" fill="white"/>
<path d="M104.969 26.7578H44.0312C42.6486 26.7438 41.3169 27.2788 40.3282 28.2454C39.3396 29.2121 38.7748 30.5315 38.7578 31.9141V93.0977C38.7779 94.4783 39.344 95.7946 40.3323 96.7588C41.3206 97.7229 42.6506 98.2563 44.0312 98.2422H104.969C106.351 98.2532 107.682 97.7164 108.67 96.7491C109.659 95.7818 110.224 94.4628 110.242 93.0801V31.8965C110.218 30.518 109.65 29.2049 108.662 28.2426C107.675 27.2804 106.347 26.7468 104.969 26.7578Z" fill="#0076B2"/>
<path d="M49.3398 53.5527H59.9512V87.6953H49.3398V53.5527ZM54.6484 36.5605C55.8655 36.5605 57.0552 36.9215 58.0671 37.5978C59.079 38.2741 59.8675 39.2353 60.333 40.3598C60.7985 41.4844 60.92 42.7217 60.6821 43.9153C60.4443 45.1089 59.8577 46.2051 58.9967 47.0653C58.1357 47.9255 57.0389 48.511 55.8451 48.7477C54.6513 48.9845 53.4141 48.8618 52.29 48.3952C51.1659 47.9287 50.2054 47.1392 49.5301 46.1267C48.8548 45.1142 48.4949 43.9241 48.4961 42.707C48.4976 41.0763 49.1465 39.513 50.3001 38.3605C51.4538 37.2079 53.0177 36.5605 54.6484 36.5605ZM66.6074 53.5527H76.7793V58.2402H76.9199C78.3379 55.5566 81.7949 52.7266 86.957 52.7266C97.7031 52.7031 99.6953 59.7754 99.6953 68.9453V87.6953H89.084V71.084C89.084 67.1289 89.0137 62.0371 83.5703 62.0371C78.1269 62.0371 77.2012 66.3496 77.2012 70.8262V87.6953H66.6074V53.5527Z" fill="white"/>
<path d="M159.465 50.4453L149.211 79H145.871L135.617 50.4453H139.094L145.773 69.2539C146.047 70.0091 146.288 70.7318 146.496 71.4219C146.717 72.112 146.913 72.776 147.082 73.4141C147.251 74.0521 147.401 74.6706 147.531 75.2695C147.661 74.6706 147.811 74.0521 147.98 73.4141C148.15 72.763 148.345 72.0924 148.566 71.4023C148.788 70.6992 149.035 69.9635 149.309 69.1953L155.949 50.4453H159.465ZM166.145 57.5938V79H162.902V57.5938H166.145ZM164.562 49.5859C165.096 49.5859 165.552 49.7617 165.93 50.1133C166.32 50.4518 166.516 50.9857 166.516 51.7148C166.516 52.431 166.32 52.9648 165.93 53.3164C165.552 53.668 165.096 53.8438 164.562 53.8438C164.003 53.8438 163.534 53.668 163.156 53.3164C162.792 52.9648 162.609 52.431 162.609 51.7148C162.609 50.9857 162.792 50.4518 163.156 50.1133C163.534 49.7617 164.003 49.5859 164.562 49.5859ZM186.867 73.1406C186.867 74.5078 186.522 75.6602 185.832 76.5977C185.155 77.5221 184.178 78.2188 182.902 78.6875C181.639 79.1562 180.129 79.3906 178.371 79.3906C176.874 79.3906 175.578 79.2734 174.484 79.0391C173.391 78.8047 172.434 78.4727 171.613 78.043V75.0547C172.486 75.4844 173.527 75.875 174.738 76.2266C175.949 76.5781 177.186 76.7539 178.449 76.7539C180.298 76.7539 181.639 76.4544 182.473 75.8555C183.306 75.2565 183.723 74.4427 183.723 73.4141C183.723 72.8281 183.553 72.3138 183.215 71.8711C182.889 71.4154 182.336 70.9792 181.555 70.5625C180.773 70.1328 179.693 69.6641 178.312 69.1562C176.945 68.6354 175.76 68.1211 174.758 67.6133C173.768 67.0924 173 66.4609 172.453 65.7188C171.919 64.9766 171.652 64.013 171.652 62.8281C171.652 61.0182 172.382 59.6315 173.84 58.668C175.311 57.6914 177.238 57.2031 179.621 57.2031C180.91 57.2031 182.115 57.3333 183.234 57.5938C184.367 57.8411 185.422 58.1797 186.398 58.6094L185.305 61.207C184.419 60.8294 183.475 60.5104 182.473 60.25C181.47 59.9896 180.448 59.8594 179.406 59.8594C177.909 59.8594 176.757 60.1068 175.949 60.6016C175.155 61.0964 174.758 61.7734 174.758 62.6328C174.758 63.2969 174.94 63.8438 175.305 64.2734C175.682 64.7031 176.281 65.1068 177.102 65.4844C177.922 65.862 179.003 66.3047 180.344 66.8125C181.685 67.3073 182.844 67.8216 183.82 68.3555C184.797 68.8763 185.546 69.5143 186.066 70.2695C186.6 71.0117 186.867 71.9688 186.867 73.1406ZM195.324 57.5938V79H192.082V57.5938H195.324ZM193.742 49.5859C194.276 49.5859 194.732 49.7617 195.109 50.1133C195.5 50.4518 195.695 50.9857 195.695 51.7148C195.695 52.431 195.5 52.9648 195.109 53.3164C194.732 53.668 194.276 53.8438 193.742 53.8438C193.182 53.8438 192.714 53.668 192.336 53.3164C191.971 52.9648 191.789 52.431 191.789 51.7148C191.789 50.9857 191.971 50.4518 192.336 50.1133C192.714 49.7617 193.182 49.5859 193.742 49.5859ZM209.113 76.7344C209.647 76.7344 210.194 76.6888 210.754 76.5977C211.314 76.5065 211.77 76.3958 212.121 76.2656V78.7852C211.743 78.9544 211.216 79.0977 210.539 79.2148C209.875 79.332 209.224 79.3906 208.586 79.3906C207.453 79.3906 206.424 79.1953 205.5 78.8047C204.576 78.401 203.833 77.724 203.273 76.7734C202.727 75.8229 202.453 74.5078 202.453 72.8281V60.1328H199.406V58.5508L202.473 57.2812L203.762 52.6328H205.715V57.5938H211.984V60.1328H205.715V72.7305C205.715 74.0716 206.021 75.0742 206.633 75.7383C207.258 76.4023 208.085 76.7344 209.113 76.7344ZM239.895 79L230.305 53.7266H230.148C230.201 54.2604 230.246 54.9115 230.285 55.6797C230.324 56.4479 230.357 57.2878 230.383 58.1992C230.409 59.0977 230.422 60.0156 230.422 60.9531V79H227.336V50.4453H232.258L241.301 74.1953H241.438L250.617 50.4453H255.5V79H252.219V60.7188C252.219 59.8724 252.232 59.026 252.258 58.1797C252.284 57.3203 252.316 56.513 252.355 55.7578C252.395 54.9896 252.434 54.3255 252.473 53.7656H252.316L242.609 79H239.895ZM259.445 57.5938H262.922L267.648 70.0156C267.922 70.7448 268.176 71.4479 268.41 72.125C268.645 72.7891 268.853 73.4271 269.035 74.0391C269.217 74.651 269.361 75.2435 269.465 75.8164H269.602C269.784 75.1654 270.044 74.3125 270.383 73.2578C270.721 72.1901 271.086 71.1029 271.477 69.9961L275.949 57.5938H279.445L270.129 82.1445C269.634 83.4596 269.055 84.6055 268.391 85.582C267.74 86.5586 266.945 87.3073 266.008 87.8281C265.07 88.362 263.938 88.6289 262.609 88.6289C261.997 88.6289 261.457 88.5898 260.988 88.5117C260.52 88.4466 260.116 88.3685 259.777 88.2773V85.6797C260.064 85.7448 260.409 85.8034 260.812 85.8555C261.229 85.9076 261.659 85.9336 262.102 85.9336C262.909 85.9336 263.605 85.7773 264.191 85.4648C264.79 85.1654 265.305 84.7227 265.734 84.1367C266.164 83.5508 266.535 82.8542 266.848 82.0469L268.02 79.0391L259.445 57.5938ZM293.742 79V50.4453H297.062V76.0312H309.738V79H293.742ZM317.395 57.5938V79H314.152V57.5938H317.395ZM315.812 49.5859C316.346 49.5859 316.802 49.7617 317.18 50.1133C317.57 50.4518 317.766 50.9857 317.766 51.7148C317.766 52.431 317.57 52.9648 317.18 53.3164C316.802 53.668 316.346 53.8438 315.812 53.8438C315.253 53.8438 314.784 53.668 314.406 53.3164C314.042 52.9648 313.859 52.431 313.859 51.7148C313.859 50.9857 314.042 50.4518 314.406 50.1133C314.784 49.7617 315.253 49.5859 315.812 49.5859ZM334.406 57.2031C336.945 57.2031 338.866 57.8281 340.168 59.0781C341.47 60.3151 342.121 62.3073 342.121 65.0547V79H338.918V65.2695C338.918 63.4857 338.508 62.151 337.688 61.2656C336.88 60.3802 335.637 59.9375 333.957 59.9375C331.587 59.9375 329.921 60.6081 328.957 61.9492C327.993 63.2904 327.512 65.237 327.512 67.7891V79H324.27V57.5938H326.887L327.375 60.6797H327.551C328.007 59.9245 328.586 59.293 329.289 58.7852C329.992 58.2643 330.78 57.8737 331.652 57.6133C332.525 57.3398 333.443 57.2031 334.406 57.2031ZM352.023 48.6094V64.3906C352.023 64.9115 352.004 65.5495 351.965 66.3047C351.926 67.0469 351.893 67.7044 351.867 68.2773H352.004C352.277 67.9388 352.674 67.4375 353.195 66.7734C353.729 66.1094 354.178 65.5755 354.543 65.1719L361.652 57.5938H365.461L356.848 66.7344L366.086 79H362.18L354.621 68.8633L352.023 71.2461V79H348.801V48.6094H352.023ZM378.059 57.2031C379.882 57.2031 381.444 57.6068 382.746 58.4141C384.048 59.2214 385.044 60.3542 385.734 61.8125C386.424 63.2578 386.77 64.9505 386.77 66.8906V68.9023H371.984C372.023 71.4154 372.648 73.3294 373.859 74.6445C375.07 75.9596 376.776 76.6172 378.977 76.6172C380.331 76.6172 381.529 76.4935 382.57 76.2461C383.612 75.9987 384.693 75.6341 385.812 75.1523V78.0039C384.732 78.4857 383.658 78.8372 382.59 79.0586C381.535 79.2799 380.285 79.3906 378.84 79.3906C376.783 79.3906 374.986 78.974 373.449 78.1406C371.926 77.2943 370.741 76.0573 369.895 74.4297C369.048 72.8021 368.625 70.8099 368.625 68.4531C368.625 66.1484 369.009 64.1562 369.777 62.4766C370.559 60.7839 371.652 59.4818 373.059 58.5703C374.478 57.6589 376.145 57.2031 378.059 57.2031ZM378.02 59.8594C376.288 59.8594 374.908 60.4258 373.879 61.5586C372.85 62.6914 372.238 64.2734 372.043 66.3047H383.371C383.358 65.0286 383.156 63.9089 382.766 62.9453C382.388 61.9688 381.809 61.2135 381.027 60.6797C380.246 60.1328 379.243 59.8594 378.02 59.8594ZM399.895 79.3906C397.186 79.3906 395.038 78.4661 393.449 76.6172C391.874 74.7682 391.086 72.0208 391.086 68.375C391.086 64.6901 391.893 61.9102 393.508 60.0352C395.122 58.1471 397.271 57.2031 399.953 57.2031C401.086 57.2031 402.076 57.3529 402.922 57.6523C403.768 57.9518 404.497 58.3555 405.109 58.8633C405.721 59.3581 406.236 59.9245 406.652 60.5625H406.887C406.835 60.1589 406.783 59.6055 406.73 58.9023C406.678 58.1992 406.652 57.6263 406.652 57.1836V48.6094H409.895V79H407.277L406.789 75.9531H406.652C406.249 76.5911 405.734 77.1706 405.109 77.6914C404.497 78.2122 403.762 78.6289 402.902 78.9414C402.056 79.2409 401.053 79.3906 399.895 79.3906ZM400.402 76.6953C402.694 76.6953 404.315 76.0443 405.266 74.7422C406.216 73.4401 406.691 71.5065 406.691 68.9414V68.3555C406.691 65.6341 406.236 63.5443 405.324 62.0859C404.426 60.6276 402.785 59.8984 400.402 59.8984C398.41 59.8984 396.919 60.6667 395.93 62.2031C394.94 63.7266 394.445 65.8099 394.445 68.4531C394.445 71.0833 394.934 73.1146 395.91 74.5469C396.9 75.9792 398.397 76.6953 400.402 76.6953ZM420.012 57.5938V79H416.77V57.5938H420.012ZM418.43 49.5859C418.964 49.5859 419.419 49.7617 419.797 50.1133C420.188 50.4518 420.383 50.9857 420.383 51.7148C420.383 52.431 420.188 52.9648 419.797 53.3164C419.419 53.668 418.964 53.8438 418.43 53.8438C417.87 53.8438 417.401 53.668 417.023 53.3164C416.659 52.9648 416.477 52.431 416.477 51.7148C416.477 50.9857 416.659 50.4518 417.023 50.1133C417.401 49.7617 417.87 49.5859 418.43 49.5859ZM437.023 57.2031C439.562 57.2031 441.483 57.8281 442.785 59.0781C444.087 60.3151 444.738 62.3073 444.738 65.0547V79H441.535V65.2695C441.535 63.4857 441.125 62.151 440.305 61.2656C439.497 60.3802 438.254 59.9375 436.574 59.9375C434.204 59.9375 432.538 60.6081 431.574 61.9492C430.611 63.2904 430.129 65.237 430.129 67.7891V79H426.887V57.5938H429.504L429.992 60.6797H430.168C430.624 59.9245 431.203 59.293 431.906 58.7852C432.609 58.2643 433.397 57.8737 434.27 57.6133C435.142 57.3398 436.06 57.2031 437.023 57.2031Z" fill="#0076B2"/>
</svg>
