<svg width="225" height="58" viewBox="0 0 225 58" fill="none" xmlns="http://www.w3.org/2000/svg">
<rect width="224.617" height="57.4175" rx="11.0242" fill="white"/>
<path d="M48.2165 12.2909H20.2255C19.5904 12.2844 18.9787 12.5302 18.5246 12.9742C18.0705 13.4182 17.811 14.0243 17.8032 14.6594V42.7634C17.8124 43.3976 18.0725 44.0022 18.5265 44.4451C18.9804 44.888 19.5913 45.133 20.2255 45.1265H48.2165C48.8517 45.1316 49.463 44.885 49.9169 44.4407C50.3708 43.9964 50.6303 43.3905 50.6388 42.7554V14.6513C50.6275 14.0181 50.3667 13.4149 49.9131 12.9729C49.4596 12.5309 48.8498 12.2858 48.2165 12.2909Z" fill="#0076B2"/>
<path d="M22.6639 24.5989H27.5381V40.2819H22.6639V24.5989ZM25.1024 16.7937C25.6614 16.7937 26.2079 16.9595 26.6727 17.2702C27.1375 17.5808 27.4997 18.0223 27.7135 18.5389C27.9274 19.0554 27.9832 19.6238 27.8739 20.172C27.7646 20.7203 27.4952 21.2238 27.0997 21.619C26.7042 22.0141 26.2004 22.283 25.6521 22.3918C25.1037 22.5005 24.5354 22.4442 24.019 22.2298C23.5027 22.0155 23.0615 21.6529 22.7513 21.1878C22.4411 20.7227 22.2758 20.1761 22.2764 19.617C22.2771 18.868 22.5751 18.1499 23.105 17.6205C23.6349 17.0911 24.3533 16.7937 25.1024 16.7937ZM30.5956 24.5989H35.268V26.752H35.3326C35.9839 25.5194 37.5718 24.2194 39.943 24.2194C44.8791 24.2086 45.7942 27.4572 45.7942 31.6693V40.2819H40.92V32.6517C40.92 30.835 40.8877 28.4961 38.3873 28.4961C35.887 28.4961 35.4617 30.477 35.4617 32.5333V40.2819H30.5956V24.5989Z" fill="white"/>
<path d="M73.4751 23.1474L68.765 36.2637H67.2309L62.5209 23.1474H64.1178L67.186 31.7869C67.3116 32.1338 67.4223 32.4657 67.518 32.7827C67.6197 33.0997 67.7094 33.4048 67.7871 33.6978C67.8649 33.9909 67.9337 34.275 67.9935 34.5501C68.0533 34.275 68.1221 33.9909 68.1998 33.6978C68.2776 33.3988 68.3673 33.0908 68.469 32.7738C68.5706 32.4508 68.6843 32.1129 68.8099 31.76L71.8602 23.1474H73.4751ZM76.5433 26.4309V36.2637H75.054V26.4309H76.5433ZM75.8166 22.7526C76.0618 22.7526 76.2712 22.8334 76.4446 22.9949C76.624 23.1504 76.7138 23.3956 76.7138 23.7305C76.7138 24.0595 76.624 24.3047 76.4446 24.4662C76.2712 24.6277 76.0618 24.7084 75.8166 24.7084C75.5594 24.7084 75.3441 24.6277 75.1707 24.4662C75.0032 24.3047 74.9195 24.0595 74.9195 23.7305C74.9195 23.3956 75.0032 23.1504 75.1707 22.9949C75.3441 22.8334 75.5594 22.7526 75.8166 22.7526ZM86.062 33.5722C86.062 34.2002 85.9035 34.7295 85.5866 35.1602C85.2755 35.5848 84.827 35.9048 84.2408 36.1201C83.6607 36.3354 82.9669 36.4431 82.1594 36.4431C81.4716 36.4431 80.8765 36.3893 80.3741 36.2816C79.8717 36.174 79.4321 36.0214 79.0553 35.8241V34.4514C79.456 34.6488 79.9345 34.8282 80.4907 34.9897C81.047 35.1512 81.6152 35.232 82.1953 35.232C83.0446 35.232 83.6607 35.0944 84.0435 34.8193C84.4262 34.5441 84.6176 34.1703 84.6176 33.6978C84.6176 33.4287 84.5399 33.1924 84.3844 32.9891C84.2348 32.7797 83.9807 32.5794 83.6218 32.388C83.2629 32.1906 82.7665 31.9753 82.1325 31.742C81.5045 31.5028 80.9603 31.2666 80.4997 31.0333C80.0452 30.7941 79.6923 30.504 79.4411 30.1631C79.1959 29.8221 79.0733 29.3796 79.0733 28.8353C79.0733 28.0039 79.4082 27.367 80.0781 26.9244C80.7539 26.4758 81.6391 26.2515 82.7336 26.2515C83.3257 26.2515 83.879 26.3113 84.3933 26.4309C84.9137 26.5446 85.3981 26.7001 85.8467 26.8974L85.3443 28.0907C84.9376 27.9172 84.504 27.7707 84.0435 27.6511C83.5829 27.5314 83.1134 27.4716 82.6349 27.4716C81.9471 27.4716 81.4178 27.5853 81.047 27.8125C80.6821 28.0398 80.4997 28.3508 80.4997 28.7456C80.4997 29.0506 80.5835 29.3018 80.7509 29.4992C80.9244 29.6965 81.1995 29.882 81.5763 30.0554C81.9531 30.2289 82.4495 30.4322 83.0656 30.6655C83.6816 30.8927 84.2139 31.129 84.6625 31.3742C85.1111 31.6135 85.455 31.9065 85.6942 32.2534C85.9394 32.5943 86.062 33.0339 86.062 33.5722ZM89.9467 26.4309V36.2637H88.4574V26.4309H89.9467ZM89.22 22.7526C89.4652 22.7526 89.6746 22.8334 89.848 22.9949C90.0274 23.1504 90.1171 23.3956 90.1171 23.7305C90.1171 24.0595 90.0274 24.3047 89.848 24.4662C89.6746 24.6277 89.4652 24.7084 89.22 24.7084C88.9628 24.7084 88.7475 24.6277 88.5741 24.4662C88.4066 24.3047 88.3229 24.0595 88.3229 23.7305C88.3229 23.3956 88.4066 23.1504 88.5741 22.9949C88.7475 22.8334 88.9628 22.7526 89.22 22.7526ZM96.2806 35.223C96.5258 35.223 96.777 35.202 97.0342 35.1602C97.2913 35.1183 97.5007 35.0675 97.6622 35.0077V36.165C97.4887 36.2427 97.2465 36.3085 96.9355 36.3624C96.6304 36.4162 96.3314 36.4431 96.0383 36.4431C95.518 36.4431 95.0455 36.3534 94.6208 36.174C94.1962 35.9885 93.8553 35.6775 93.5981 35.2409C93.3469 34.8043 93.2213 34.2002 93.2213 33.4287V27.5972H91.8217V26.8705L93.2303 26.2874L93.8224 24.1522H94.7195V26.4309H97.5994V27.5972H94.7195V33.3838C94.7195 33.9999 94.8601 34.4604 95.1412 34.7654C95.4283 35.0705 95.8081 35.223 96.2806 35.223ZM110.42 36.2637L106.015 24.6546H105.943C105.967 24.8998 105.988 25.1988 106.006 25.5517C106.024 25.9046 106.039 26.2904 106.05 26.709C106.062 27.1217 106.068 27.5434 106.068 27.974V36.2637H104.651V23.1474H106.912L111.066 34.0567H111.128L115.345 23.1474H117.588V36.2637H116.081V27.8664C116.081 27.4776 116.087 27.0888 116.099 26.7001C116.111 26.3053 116.125 25.9345 116.143 25.5876C116.161 25.2347 116.179 24.9297 116.197 24.6725H116.125L111.667 36.2637H110.42ZM119.4 26.4309H120.997L123.168 32.1368C123.294 32.4717 123.41 32.7947 123.518 33.1057C123.626 33.4107 123.721 33.7038 123.805 33.9849C123.889 34.266 123.955 34.5382 124.002 34.8013H124.065C124.149 34.5023 124.269 34.1105 124.424 33.6261C124.58 33.1356 124.747 32.6362 124.926 32.1278L126.981 26.4309H128.587L124.307 37.7081C124.08 38.3122 123.814 38.8385 123.509 39.2871C123.21 39.7356 122.845 40.0795 122.414 40.3188C121.984 40.564 121.464 40.6866 120.853 40.6866C120.572 40.6866 120.324 40.6687 120.109 40.6328C119.893 40.6029 119.708 40.567 119.553 40.5251V39.3319C119.684 39.3618 119.843 39.3887 120.028 39.4127C120.219 39.4366 120.417 39.4485 120.62 39.4485C120.991 39.4485 121.311 39.3768 121.58 39.2332C121.855 39.0957 122.092 38.8923 122.289 38.6232C122.486 38.354 122.657 38.034 122.8 37.6632L123.339 36.2816L119.4 26.4309ZM135.154 36.2637V23.1474H136.679V34.9H142.502V36.2637H135.154ZM146.018 26.4309V36.2637H144.529V26.4309H146.018ZM145.292 22.7526C145.537 22.7526 145.746 22.8334 145.92 22.9949C146.099 23.1504 146.189 23.3956 146.189 23.7305C146.189 24.0595 146.099 24.3047 145.92 24.4662C145.746 24.6277 145.537 24.7084 145.292 24.7084C145.035 24.7084 144.819 24.6277 144.646 24.4662C144.478 24.3047 144.395 24.0595 144.395 23.7305C144.395 23.3956 144.478 23.1504 144.646 22.9949C144.819 22.8334 145.035 22.7526 145.292 22.7526ZM153.833 26.2515C154.999 26.2515 155.881 26.5386 156.479 27.1128C157.077 27.681 157.376 28.596 157.376 29.858V36.2637H155.905V29.9567C155.905 29.1373 155.717 28.5243 155.34 28.1176C154.969 27.7109 154.398 27.5075 153.626 27.5075C152.538 27.5075 151.772 27.8155 151.33 28.4316C150.887 29.0476 150.666 29.9418 150.666 31.114V36.2637H149.176V26.4309H150.379L150.603 27.8484H150.684C150.893 27.5015 151.159 27.2114 151.482 26.9782C151.805 26.7389 152.167 26.5595 152.568 26.4399C152.968 26.3143 153.39 26.2515 153.833 26.2515ZM161.925 22.304V29.553C161.925 29.7922 161.916 30.0853 161.898 30.4322C161.88 30.7731 161.865 31.0752 161.853 31.3383H161.916C162.042 31.1828 162.224 30.9526 162.463 30.6475C162.708 30.3425 162.915 30.0973 163.082 29.9119L166.348 26.4309H168.097L164.141 30.6296L168.384 36.2637H166.59L163.118 31.6075L161.925 32.702V36.2637H160.445V22.304H161.925ZM173.884 26.2515C174.721 26.2515 175.439 26.4369 176.037 26.8077C176.635 27.1786 177.093 27.6989 177.41 28.3688C177.727 29.0327 177.885 29.8102 177.885 30.7014V31.6254H171.094C171.112 32.7797 171.399 33.659 171.955 34.263C172.511 34.8671 173.295 35.1692 174.306 35.1692C174.928 35.1692 175.478 35.1123 175.956 34.9987C176.435 34.8851 176.931 34.7176 177.446 34.4963V35.8061C176.949 36.0274 176.456 36.1889 175.965 36.2906C175.481 36.3923 174.907 36.4431 174.243 36.4431C173.298 36.4431 172.472 36.2517 171.767 35.8689C171.067 35.4802 170.523 34.912 170.134 34.1643C169.745 33.4167 169.551 32.5016 169.551 31.4191C169.551 30.3604 169.727 29.4453 170.08 28.6738C170.439 27.8963 170.941 27.2982 171.587 26.8795C172.239 26.4608 173.005 26.2515 173.884 26.2515ZM173.866 27.4716C173.07 27.4716 172.436 27.7318 171.964 28.2521C171.491 28.7725 171.21 29.4992 171.121 30.4322H176.324C176.318 29.8461 176.225 29.3317 176.046 28.8891C175.873 28.4405 175.606 28.0936 175.248 27.8484C174.889 27.5972 174.428 27.4716 173.866 27.4716ZM183.914 36.4431C182.67 36.4431 181.683 36.0185 180.953 35.1692C180.23 34.3199 179.868 33.0579 179.868 31.3832C179.868 29.6906 180.239 28.4136 180.98 27.5524C181.722 26.6851 182.709 26.2515 183.941 26.2515C184.461 26.2515 184.916 26.3203 185.305 26.4578C185.693 26.5954 186.028 26.7808 186.309 27.0141C186.59 27.2414 186.827 27.5015 187.018 27.7946H187.126C187.102 27.6092 187.078 27.355 187.054 27.032C187.03 26.709 187.018 26.4459 187.018 26.2425V22.304H188.507V36.2637H187.305L187.081 34.8641H187.018C186.833 35.1572 186.596 35.4233 186.309 35.6626C186.028 35.9018 185.69 36.0932 185.296 36.2368C184.907 36.3743 184.446 36.4431 183.914 36.4431ZM184.147 35.205C185.2 35.205 185.945 34.906 186.381 34.3079C186.818 33.7098 187.036 32.8216 187.036 31.6434V31.3742C187.036 30.1242 186.827 29.1642 186.408 28.4944C185.995 27.8245 185.242 27.4896 184.147 27.4896C183.232 27.4896 182.547 27.8424 182.093 28.5482C181.638 29.248 181.411 30.2049 181.411 31.4191C181.411 32.6272 181.635 33.5603 182.084 34.2182C182.538 34.8761 183.226 35.205 184.147 35.205ZM193.155 26.4309V36.2637H191.665V26.4309H193.155ZM192.428 22.7526C192.673 22.7526 192.882 22.8334 193.056 22.9949C193.235 23.1504 193.325 23.3956 193.325 23.7305C193.325 24.0595 193.235 24.3047 193.056 24.4662C192.882 24.6277 192.673 24.7084 192.428 24.7084C192.171 24.7084 191.955 24.6277 191.782 24.4662C191.615 24.3047 191.531 24.0595 191.531 23.7305C191.531 23.3956 191.615 23.1504 191.782 22.9949C191.955 22.8334 192.171 22.7526 192.428 22.7526ZM200.969 26.2515C202.135 26.2515 203.017 26.5386 203.615 27.1128C204.213 27.681 204.512 28.596 204.512 29.858V36.2637H203.041V29.9567C203.041 29.1373 202.853 28.5243 202.476 28.1176C202.105 27.7109 201.534 27.5075 200.762 27.5075C199.674 27.5075 198.908 27.8155 198.466 28.4316C198.023 29.0476 197.802 29.9418 197.802 31.114V36.2637H196.313V26.4309H197.515L197.739 27.8484H197.82C198.029 27.5015 198.295 27.2114 198.618 26.9782C198.941 26.7389 199.303 26.5595 199.704 26.4399C200.105 26.3143 200.526 26.2515 200.969 26.2515Z" fill="#0076B2"/>
</svg>
