<svg width="696" height="125" viewBox="0 0 696 125" fill="none" xmlns="http://www.w3.org/2000/svg">
<path d="M462 10.6667C451.458 10.6667 442.833 19.2917 442.833 29.8334V37.5001H450.5V29.8334C450.5 23.5084 455.675 18.3334 462 18.3334C468.325 18.3334 473.5 23.5084 473.5 29.8334V37.5001H481.167V29.8334C481.167 19.2917 472.542 10.6667 462 10.6667Z" fill="#424242"/>
<path d="M485 87.3333H439C434.783 87.3333 431.333 83.8833 431.333 79.6667V45.1667C431.333 40.95 434.783 37.5 439 37.5H485C489.217 37.5 492.667 40.95 492.667 45.1667V79.6667C492.667 83.8833 489.217 87.3333 485 87.3333Z" fill="#FB8C00"/>
<path d="M229.383 47.2188L244.008 79H238.688L233.953 68.6406H220.617L215.719 79H213.094L228.07 47.2188H229.383ZM221.531 66.625H232.992L227.344 54.3203L221.531 66.625ZM248.344 47.9219H251.273L271.641 70.6562H271.875V47.9219H274.172V79.7266H272.953L250.898 54.4609H250.711V79H248.344V47.9219ZM294.773 47.2188L309.398 79H304.078L299.344 68.6406H286.008L281.109 79H278.484L293.461 47.2188H294.773ZM286.922 66.625H298.383L292.734 54.3203L286.922 66.625ZM313.734 47.9219H316.664L337.031 70.6562H337.266V47.9219H339.562V79.7266H338.344L316.289 54.4609H316.102V79H313.734V47.9219ZM348 47.9219H358.359C361.547 47.9219 364.289 48.2188 366.586 48.8125C368.883 49.4062 370.797 50.3594 372.328 51.6719C374.078 53.1719 375.391 54.8906 376.266 56.8281C377.156 58.7656 377.602 60.8828 377.602 63.1797C377.602 65.3672 377.203 67.4219 376.406 69.3438C375.625 71.2656 374.469 72.9453 372.938 74.3828C371.422 75.8047 369.539 76.9297 367.289 77.7578C365.055 78.5859 362.492 79 359.602 79H348V47.9219ZM353.227 76.7266H358.781C360.531 76.7266 362.18 76.4375 363.727 75.8594C365.273 75.2812 366.617 74.4219 367.758 73.2812C368.914 72.1406 369.82 70.7422 370.477 69.0859C371.148 67.4141 371.484 65.4844 371.484 63.2969C371.484 61.375 371.172 59.6172 370.547 58.0234C369.922 56.4141 369.047 55.0312 367.922 53.875C366.797 52.7188 365.453 51.8203 363.891 51.1797C362.344 50.5391 360.648 50.2188 358.805 50.2188H353.227V76.7266ZM384.656 47.9219H389.883V79H384.656V47.9219ZM398.344 47.9219H401.273L421.641 70.6562H421.875V47.9219H424.172V79.7266H422.953L400.898 54.4609H400.711V79H398.344V47.9219Z" fill="white"/>
<path d="M454.617 47.2188L469.242 79H463.922L459.188 68.6406H445.852L440.953 79H438.328L453.305 47.2188H454.617ZM446.766 66.625H458.227L452.578 54.3203L446.766 66.625ZM473.578 47.9219H478.805V79H473.578V47.9219Z" fill="black"/>
<path d="M217.674 95.416C217.674 95.8733 217.781 96.284 217.996 96.648C218.22 97.0027 218.514 97.2827 218.878 97.488C219.242 97.6933 219.653 97.796 220.11 97.796C220.586 97.796 221.011 97.6933 221.384 97.488C221.757 97.2827 222.051 97.0027 222.266 96.648C222.481 96.284 222.588 95.8733 222.588 95.416V88.878H223.918V95.458C223.918 96.1953 223.745 96.8393 223.4 97.39C223.064 97.9407 222.607 98.3653 222.028 98.664C221.459 98.9627 220.819 99.112 220.11 99.112C219.401 99.112 218.761 98.9627 218.192 98.664C217.623 98.3653 217.17 97.9407 216.834 97.39C216.498 96.8393 216.33 96.1953 216.33 95.458V88.878H217.674V95.416ZM227.536 93.204L227.648 94.618L227.592 94.394C227.779 93.9647 228.082 93.624 228.502 93.372C228.922 93.1107 229.408 92.98 229.958 92.98C230.509 92.98 230.957 93.1433 231.302 93.47C231.657 93.7873 231.839 94.2027 231.848 94.716V99H230.532V95.178C230.523 94.8607 230.43 94.604 230.252 94.408C230.084 94.2027 229.818 94.1 229.454 94.1C229.118 94.1 228.815 94.1933 228.544 94.38C228.274 94.5667 228.059 94.8233 227.9 95.15C227.751 95.4767 227.676 95.8547 227.676 96.284V99H226.374V93.204H227.536ZM234.113 88.164H235.415V99H234.113V88.164ZM237.163 96.046C237.163 95.4673 237.299 94.9447 237.569 94.478C237.849 94.0113 238.232 93.6427 238.717 93.372C239.203 93.1013 239.753 92.966 240.369 92.966C241.004 92.966 241.559 93.1013 242.035 93.372C242.511 93.6427 242.88 94.0113 243.141 94.478C243.403 94.9447 243.533 95.4673 243.533 96.046C243.533 96.6247 243.403 97.152 243.141 97.628C242.88 98.0947 242.507 98.4633 242.021 98.734C241.545 99.0047 240.99 99.14 240.355 99.14C239.739 99.14 239.189 99.014 238.703 98.762C238.227 98.5007 237.849 98.1413 237.569 97.684C237.299 97.2173 237.163 96.6713 237.163 96.046ZM238.465 96.06C238.465 96.4333 238.549 96.774 238.717 97.082C238.885 97.3807 239.109 97.6187 239.389 97.796C239.679 97.9733 239.996 98.062 240.341 98.062C240.705 98.062 241.027 97.9733 241.307 97.796C241.597 97.6187 241.821 97.3807 241.979 97.082C242.138 96.774 242.217 96.4333 242.217 96.06C242.217 95.6867 242.138 95.3507 241.979 95.052C241.821 94.744 241.597 94.5013 241.307 94.324C241.027 94.1373 240.705 94.044 240.341 94.044C239.987 94.044 239.665 94.1373 239.375 94.324C239.095 94.5107 238.871 94.758 238.703 95.066C238.545 95.3647 238.465 95.696 238.465 96.06ZM250 98.468C249.739 98.6733 249.426 98.8367 249.062 98.958C248.698 99.0793 248.334 99.14 247.97 99.14C247.335 99.14 246.78 99.014 246.304 98.762C245.828 98.51 245.455 98.16 245.184 97.712C244.923 97.2547 244.792 96.718 244.792 96.102C244.792 95.486 244.932 94.9493 245.212 94.492C245.501 94.0347 245.875 93.6847 246.332 93.442C246.799 93.19 247.298 93.064 247.83 93.064C248.297 93.064 248.712 93.1293 249.076 93.26C249.449 93.3907 249.767 93.568 250.028 93.792L249.384 94.632C249.216 94.5013 249.011 94.3847 248.768 94.282C248.525 94.1793 248.25 94.128 247.942 94.128C247.606 94.128 247.293 94.2167 247.004 94.394C246.724 94.562 246.5 94.7953 246.332 95.094C246.173 95.3927 246.094 95.7287 246.094 96.102C246.094 96.4567 246.178 96.788 246.346 97.096C246.514 97.3947 246.747 97.6327 247.046 97.81C247.345 97.978 247.685 98.062 248.068 98.062C248.32 98.062 248.549 98.0247 248.754 97.95C248.969 97.8753 249.16 97.7727 249.328 97.642L250 98.468ZM251.681 99V88.164H252.983V99H251.681ZM254.383 95.15L257.043 99H255.517L253.515 95.878L254.383 95.15ZM252.577 97.152L252.451 95.906L255.965 93.078L256.763 93.764L252.577 97.152ZM258.654 93.204H259.956V99H258.654V93.204ZM258.556 91.104C258.556 90.8987 258.635 90.726 258.794 90.586C258.962 90.446 259.144 90.376 259.34 90.376C259.536 90.376 259.708 90.446 259.858 90.586C260.016 90.726 260.096 90.8987 260.096 91.104C260.096 91.3187 260.016 91.496 259.858 91.636C259.708 91.7667 259.536 91.832 259.34 91.832C259.144 91.832 258.962 91.762 258.794 91.622C258.635 91.482 258.556 91.3093 258.556 91.104ZM263.37 93.204L263.482 94.618L263.426 94.394C263.613 93.9647 263.916 93.624 264.336 93.372C264.756 93.1107 265.242 92.98 265.792 92.98C266.343 92.98 266.791 93.1433 267.136 93.47C267.491 93.7873 267.673 94.2027 267.682 94.716V99H266.366V95.178C266.357 94.8607 266.264 94.604 266.086 94.408C265.918 94.2027 265.652 94.1 265.288 94.1C264.952 94.1 264.649 94.1933 264.378 94.38C264.108 94.5667 263.893 94.8233 263.734 95.15C263.585 95.4767 263.51 95.8547 263.51 96.284V99H262.208V93.204H263.37ZM272.733 101.87C272.303 101.87 271.925 101.819 271.599 101.716C271.272 101.623 270.973 101.487 270.703 101.31C270.441 101.133 270.189 100.932 269.947 100.708L270.703 99.826C271.011 100.115 271.323 100.339 271.641 100.498C271.958 100.657 272.313 100.736 272.705 100.736C273.143 100.736 273.512 100.661 273.811 100.512C274.119 100.372 274.352 100.171 274.511 99.91C274.669 99.658 274.749 99.364 274.749 99.028L274.763 97.46L274.875 97.712C274.707 98.1133 274.403 98.454 273.965 98.734C273.526 99.0047 272.994 99.14 272.369 99.14C271.837 99.14 271.347 99.0047 270.899 98.734C270.46 98.4633 270.105 98.0993 269.835 97.642C269.573 97.1753 269.443 96.6527 269.443 96.074C269.443 95.4673 269.583 94.9353 269.863 94.478C270.143 94.0113 270.511 93.6427 270.969 93.372C271.426 93.1013 271.925 92.966 272.467 92.966C272.98 92.966 273.447 93.0733 273.867 93.288C274.296 93.4933 274.609 93.7593 274.805 94.086L274.735 94.324L274.875 93.204H276.065V99.042C276.065 99.5647 275.929 100.041 275.659 100.47C275.388 100.899 275.005 101.24 274.511 101.492C274.016 101.744 273.423 101.87 272.733 101.87ZM270.745 96.046C270.745 96.4193 270.833 96.76 271.011 97.068C271.188 97.376 271.426 97.6187 271.725 97.796C272.033 97.9733 272.373 98.062 272.747 98.062C273.092 98.062 273.4 98.0013 273.671 97.88C273.951 97.7493 274.184 97.5767 274.371 97.362C274.557 97.138 274.688 96.8813 274.763 96.592V95.444C274.679 95.164 274.539 94.9213 274.343 94.716C274.147 94.5013 273.913 94.338 273.643 94.226C273.372 94.1047 273.073 94.044 272.747 94.044C272.373 94.044 272.033 94.128 271.725 94.296C271.426 94.464 271.188 94.702 271.011 95.01C270.833 95.3087 270.745 95.654 270.745 96.046ZM283.065 88.878H284.423V99H283.065V88.878ZM288.171 93.204L288.283 94.618L288.227 94.394C288.414 93.9647 288.717 93.624 289.137 93.372C289.557 93.1107 290.042 92.98 290.593 92.98C291.144 92.98 291.592 93.1433 291.937 93.47C292.292 93.7873 292.474 94.2027 292.483 94.716V99H291.167V95.178C291.158 94.8607 291.064 94.604 290.887 94.408C290.719 94.2027 290.453 94.1 290.089 94.1C289.753 94.1 289.45 94.1933 289.179 94.38C288.908 94.5667 288.694 94.8233 288.535 95.15C288.386 95.4767 288.311 95.8547 288.311 96.284V99H287.009V93.204H288.171ZM296.371 99.112C295.961 99.112 295.559 99.042 295.167 98.902C294.785 98.7527 294.467 98.5333 294.215 98.244L294.761 97.488C295.004 97.7213 295.251 97.8987 295.503 98.02C295.765 98.132 296.021 98.188 296.273 98.188C296.46 98.188 296.633 98.1647 296.791 98.118C296.95 98.0713 297.076 97.9967 297.169 97.894C297.272 97.782 297.323 97.6327 297.323 97.446C297.323 97.2407 297.253 97.0773 297.113 96.956C296.983 96.8347 296.81 96.7367 296.595 96.662C296.39 96.5873 296.171 96.5173 295.937 96.452C295.461 96.2933 295.097 96.074 294.845 95.794C294.593 95.514 294.467 95.1733 294.467 94.772C294.467 94.464 294.542 94.1793 294.691 93.918C294.85 93.6473 295.079 93.428 295.377 93.26C295.685 93.092 296.063 93.008 296.511 93.008C296.913 93.008 297.272 93.0593 297.589 93.162C297.907 93.2553 298.205 93.414 298.485 93.638L297.967 94.45C297.799 94.2727 297.599 94.142 297.365 94.058C297.132 93.974 296.922 93.9273 296.735 93.918C296.577 93.9087 296.423 93.932 296.273 93.988C296.133 94.044 296.017 94.1233 295.923 94.226C295.83 94.3287 295.783 94.45 295.783 94.59C295.783 94.786 295.849 94.9447 295.979 95.066C296.11 95.1873 296.278 95.2853 296.483 95.36C296.698 95.4253 296.908 95.4953 297.113 95.57C297.403 95.654 297.659 95.766 297.883 95.906C298.107 96.046 298.285 96.2187 298.415 96.424C298.555 96.6293 298.625 96.886 298.625 97.194C298.625 97.5393 298.541 97.8613 298.373 98.16C298.215 98.4493 297.967 98.6827 297.631 98.86C297.305 99.028 296.885 99.112 296.371 99.112ZM300.448 93.204H301.75V99H300.448V93.204ZM300.35 91.104C300.35 90.8987 300.43 90.726 300.588 90.586C300.756 90.446 300.938 90.376 301.134 90.376C301.33 90.376 301.503 90.446 301.652 90.586C301.811 90.726 301.89 90.8987 301.89 91.104C301.89 91.3187 301.811 91.496 301.652 91.636C301.503 91.7667 301.33 91.832 301.134 91.832C300.938 91.832 300.756 91.762 300.588 91.622C300.43 91.482 300.35 91.3093 300.35 91.104ZM306.789 101.87C306.36 101.87 305.982 101.819 305.655 101.716C305.328 101.623 305.03 101.487 304.759 101.31C304.498 101.133 304.246 100.932 304.003 100.708L304.759 99.826C305.067 100.115 305.38 100.339 305.697 100.498C306.014 100.657 306.369 100.736 306.761 100.736C307.2 100.736 307.568 100.661 307.867 100.512C308.175 100.372 308.408 100.171 308.567 99.91C308.726 99.658 308.805 99.364 308.805 99.028L308.819 97.46L308.931 97.712C308.763 98.1133 308.46 98.454 308.021 98.734C307.582 99.0047 307.05 99.14 306.425 99.14C305.893 99.14 305.403 99.0047 304.955 98.734C304.516 98.4633 304.162 98.0993 303.891 97.642C303.63 97.1753 303.499 96.6527 303.499 96.074C303.499 95.4673 303.639 94.9353 303.919 94.478C304.199 94.0113 304.568 93.6427 305.025 93.372C305.482 93.1013 305.982 92.966 306.523 92.966C307.036 92.966 307.503 93.0733 307.923 93.288C308.352 93.4933 308.665 93.7593 308.861 94.086L308.791 94.324L308.931 93.204H310.121V99.042C310.121 99.5647 309.986 100.041 309.715 100.47C309.444 100.899 309.062 101.24 308.567 101.492C308.072 101.744 307.48 101.87 306.789 101.87ZM304.801 96.046C304.801 96.4193 304.89 96.76 305.067 97.068C305.244 97.376 305.482 97.6187 305.781 97.796C306.089 97.9733 306.43 98.062 306.803 98.062C307.148 98.062 307.456 98.0013 307.727 97.88C308.007 97.7493 308.24 97.5767 308.427 97.362C308.614 97.138 308.744 96.8813 308.819 96.592V95.444C308.735 95.164 308.595 94.9213 308.399 94.716C308.203 94.5013 307.97 94.338 307.699 94.226C307.428 94.1047 307.13 94.044 306.803 94.044C306.43 94.044 306.089 94.128 305.781 94.296C305.482 94.464 305.244 94.702 305.067 95.01C304.89 95.3087 304.801 95.654 304.801 96.046ZM312.37 99V88.164H313.644V94.548L313.616 94.31C313.812 93.9273 314.111 93.61 314.512 93.358C314.923 93.106 315.404 92.98 315.954 92.98C316.505 92.98 316.953 93.1433 317.298 93.47C317.653 93.7873 317.835 94.2027 317.844 94.716V99H316.528V95.178C316.519 94.8607 316.426 94.604 316.248 94.408C316.08 94.2027 315.814 94.1 315.45 94.1C315.114 94.1 314.811 94.198 314.54 94.394C314.27 94.5807 314.055 94.8373 313.896 95.164C313.747 95.4907 313.672 95.864 313.672 96.284V99H312.37ZM320.669 90.656H321.971V93.232H323.567V94.254H321.971V99H320.669V94.254H319.605V93.232H320.669V90.656ZM326.764 99.112C326.353 99.112 325.952 99.042 325.56 98.902C325.177 98.7527 324.86 98.5333 324.608 98.244L325.154 97.488C325.397 97.7213 325.644 97.8987 325.896 98.02C326.157 98.132 326.414 98.188 326.666 98.188C326.853 98.188 327.025 98.1647 327.184 98.118C327.343 98.0713 327.469 97.9967 327.562 97.894C327.665 97.782 327.716 97.6327 327.716 97.446C327.716 97.2407 327.646 97.0773 327.506 96.956C327.375 96.8347 327.203 96.7367 326.988 96.662C326.783 96.5873 326.563 96.5173 326.33 96.452C325.854 96.2933 325.49 96.074 325.238 95.794C324.986 95.514 324.86 95.1733 324.86 94.772C324.86 94.464 324.935 94.1793 325.084 93.918C325.243 93.6473 325.471 93.428 325.77 93.26C326.078 93.092 326.456 93.008 326.904 93.008C327.305 93.008 327.665 93.0593 327.982 93.162C328.299 93.2553 328.598 93.414 328.878 93.638L328.36 94.45C328.192 94.2727 327.991 94.142 327.758 94.058C327.525 93.974 327.315 93.9273 327.128 93.918C326.969 93.9087 326.815 93.932 326.666 93.988C326.526 94.044 326.409 94.1233 326.316 94.226C326.223 94.3287 326.176 94.45 326.176 94.59C326.176 94.786 326.241 94.9447 326.372 95.066C326.503 95.1873 326.671 95.2853 326.876 95.36C327.091 95.4253 327.301 95.4953 327.506 95.57C327.795 95.654 328.052 95.766 328.276 95.906C328.5 96.046 328.677 96.2187 328.808 96.424C328.948 96.6293 329.018 96.886 329.018 97.194C329.018 97.5393 328.934 97.8613 328.766 98.16C328.607 98.4493 328.36 98.6827 328.024 98.86C327.697 99.028 327.277 99.112 326.764 99.112ZM332.017 97.782C331.812 98.2673 331.606 98.748 331.401 99.224C331.205 99.7093 331.004 100.199 330.799 100.694H329.749C329.936 100.199 330.118 99.7093 330.295 99.224C330.472 98.748 330.654 98.2673 330.841 97.782H332.017ZM338.436 88.878H345.016V90.18H339.794V93.26H344.456V94.562H339.794V97.698H345.212V99H338.436V88.878ZM348.409 93.204L348.521 94.506L348.465 94.394C348.68 93.9553 348.983 93.61 349.375 93.358C349.777 93.106 350.234 92.98 350.747 92.98C351.074 92.98 351.363 93.0313 351.615 93.134C351.867 93.2367 352.073 93.386 352.231 93.582C352.399 93.7687 352.507 94.002 352.553 94.282L352.483 94.324C352.707 93.904 353.015 93.5773 353.407 93.344C353.809 93.1013 354.229 92.98 354.667 92.98C355.237 92.98 355.685 93.1433 356.011 93.47C356.347 93.7873 356.52 94.2027 356.529 94.716V99H355.227V95.178C355.218 94.8793 355.143 94.632 355.003 94.436C354.873 94.2307 354.639 94.1187 354.303 94.1C353.967 94.1 353.664 94.2027 353.393 94.408C353.132 94.6133 352.927 94.8793 352.777 95.206C352.628 95.5233 352.549 95.8687 352.539 96.242V99H351.237V95.178C351.228 94.8793 351.149 94.632 350.999 94.436C350.859 94.2307 350.621 94.1187 350.285 94.1C349.94 94.1 349.637 94.2027 349.375 94.408C349.114 94.6133 348.909 94.8793 348.759 95.206C348.619 95.5327 348.549 95.8827 348.549 96.256V99H347.247V93.204H348.409ZM362.216 99.14C361.777 99.14 361.353 99.0373 360.942 98.832C360.541 98.6267 360.228 98.3513 360.004 98.006L360.088 97.6V101.786H358.8V93.12H359.92L360.102 94.604L359.962 94.198C360.242 93.8433 360.597 93.5493 361.026 93.316C361.455 93.0827 361.936 92.966 362.468 92.966C363.009 92.966 363.495 93.0967 363.924 93.358C364.363 93.6193 364.708 93.9833 364.96 94.45C365.212 94.9167 365.338 95.4627 365.338 96.088C365.338 96.7133 365.203 97.2547 364.932 97.712C364.661 98.1693 364.288 98.524 363.812 98.776C363.345 99.0187 362.813 99.14 362.216 99.14ZM361.964 98.104C362.337 98.104 362.678 98.02 362.986 97.852C363.303 97.6747 363.555 97.4367 363.742 97.138C363.929 96.83 364.022 96.4847 364.022 96.102C364.022 95.71 363.933 95.3647 363.756 95.066C363.579 94.758 363.341 94.5153 363.042 94.338C362.753 94.1607 362.426 94.072 362.062 94.072C361.726 94.072 361.423 94.1373 361.152 94.268C360.881 94.3987 360.657 94.5807 360.48 94.814C360.303 95.038 360.177 95.2993 360.102 95.598V96.564C360.149 96.8627 360.261 97.1287 360.438 97.362C360.615 97.5953 360.835 97.7773 361.096 97.908C361.367 98.0387 361.656 98.104 361.964 98.104ZM366.595 96.046C366.595 95.4673 366.73 94.9447 367.001 94.478C367.281 94.0113 367.664 93.6427 368.149 93.372C368.634 93.1013 369.185 92.966 369.801 92.966C370.436 92.966 370.991 93.1013 371.467 93.372C371.943 93.6427 372.312 94.0113 372.573 94.478C372.834 94.9447 372.965 95.4673 372.965 96.046C372.965 96.6247 372.834 97.152 372.573 97.628C372.312 98.0947 371.938 98.4633 371.453 98.734C370.977 99.0047 370.422 99.14 369.787 99.14C369.171 99.14 368.62 99.014 368.135 98.762C367.659 98.5007 367.281 98.1413 367.001 97.684C366.73 97.2173 366.595 96.6713 366.595 96.046ZM367.897 96.06C367.897 96.4333 367.981 96.774 368.149 97.082C368.317 97.3807 368.541 97.6187 368.821 97.796C369.11 97.9733 369.428 98.062 369.773 98.062C370.137 98.062 370.459 97.9733 370.739 97.796C371.028 97.6187 371.252 97.3807 371.411 97.082C371.57 96.774 371.649 96.4333 371.649 96.06C371.649 95.6867 371.57 95.3507 371.411 95.052C371.252 94.744 371.028 94.5013 370.739 94.324C370.459 94.1373 370.137 94.044 369.773 94.044C369.418 94.044 369.096 94.1373 368.807 94.324C368.527 94.5107 368.303 94.758 368.135 95.066C367.976 95.3647 367.897 95.696 367.897 96.06ZM378.26 93.204L379.968 97.11L379.716 97.138L381.312 93.204H382.586L379.926 99.35L378.064 95.374L376.37 99.35L373.682 93.204H374.956L376.762 97.292L376.314 97.208L377.602 94.212L377.14 93.204H378.26ZM386.535 99.14C385.872 99.14 385.303 99.0093 384.827 98.748C384.351 98.4773 383.982 98.1133 383.721 97.656C383.469 97.1893 383.343 96.6573 383.343 96.06C383.343 95.4907 383.488 94.9727 383.777 94.506C384.066 94.0393 384.454 93.666 384.939 93.386C385.424 93.106 385.966 92.966 386.563 92.966C387.328 92.966 387.963 93.19 388.467 93.638C388.971 94.086 389.312 94.702 389.489 95.486L384.715 97.166L384.407 96.396L388.327 94.968L388.047 95.15C387.935 94.842 387.748 94.576 387.487 94.352C387.226 94.1187 386.885 94.002 386.465 94.002C386.11 94.002 385.793 94.0907 385.513 94.268C385.233 94.436 385.014 94.6693 384.855 94.968C384.696 95.2667 384.617 95.6073 384.617 95.99C384.617 96.3913 384.701 96.746 384.869 97.054C385.037 97.3527 385.266 97.5907 385.555 97.768C385.854 97.936 386.19 98.02 386.563 98.02C386.815 98.02 387.058 97.9733 387.291 97.88C387.534 97.7867 387.758 97.6653 387.963 97.516L388.565 98.482C388.276 98.678 387.949 98.8367 387.585 98.958C387.23 99.0793 386.88 99.14 386.535 99.14ZM392.282 93.204L392.408 94.884L392.338 94.66C392.488 94.3053 392.702 94.0067 392.982 93.764C393.272 93.512 393.57 93.3207 393.878 93.19C394.196 93.05 394.471 92.98 394.704 92.98L394.634 94.268C394.196 94.24 393.808 94.324 393.472 94.52C393.146 94.716 392.884 94.9773 392.688 95.304C392.502 95.6307 392.408 95.9807 392.408 96.354V99H391.12V93.204H392.282ZM396.384 93.204H397.686V99H396.384V93.204ZM396.286 91.104C396.286 90.8987 396.365 90.726 396.524 90.586C396.692 90.446 396.874 90.376 397.07 90.376C397.266 90.376 397.439 90.446 397.588 90.586C397.747 90.726 397.826 90.8987 397.826 91.104C397.826 91.3187 397.747 91.496 397.588 91.636C397.439 91.7667 397.266 91.832 397.07 91.832C396.874 91.832 396.692 91.762 396.524 91.622C396.365 91.482 396.286 91.3093 396.286 91.104ZM401.101 93.204L401.213 94.618L401.157 94.394C401.343 93.9647 401.647 93.624 402.067 93.372C402.487 93.1107 402.972 92.98 403.523 92.98C404.073 92.98 404.521 93.1433 404.867 93.47C405.221 93.7873 405.403 94.2027 405.413 94.716V99H404.097V95.178C404.087 94.8607 403.994 94.604 403.817 94.408C403.649 94.2027 403.383 94.1 403.019 94.1C402.683 94.1 402.379 94.1933 402.109 94.38C401.838 94.5667 401.623 94.8233 401.465 95.15C401.315 95.4767 401.241 95.8547 401.241 96.284V99H399.939V93.204H401.101ZM410.463 101.87C410.034 101.87 409.656 101.819 409.329 101.716C409.002 101.623 408.704 101.487 408.433 101.31C408.172 101.133 407.92 100.932 407.677 100.708L408.433 99.826C408.741 100.115 409.054 100.339 409.371 100.498C409.688 100.657 410.043 100.736 410.435 100.736C410.874 100.736 411.242 100.661 411.541 100.512C411.849 100.372 412.082 100.171 412.241 99.91C412.4 99.658 412.479 99.364 412.479 99.028L412.493 97.46L412.605 97.712C412.437 98.1133 412.134 98.454 411.695 98.734C411.256 99.0047 410.724 99.14 410.099 99.14C409.567 99.14 409.077 99.0047 408.629 98.734C408.19 98.4633 407.836 98.0993 407.565 97.642C407.304 97.1753 407.173 96.6527 407.173 96.074C407.173 95.4673 407.313 94.9353 407.593 94.478C407.873 94.0113 408.242 93.6427 408.699 93.372C409.156 93.1013 409.656 92.966 410.197 92.966C410.71 92.966 411.177 93.0733 411.597 93.288C412.026 93.4933 412.339 93.7593 412.535 94.086L412.465 94.324L412.605 93.204H413.795V99.042C413.795 99.5647 413.66 100.041 413.389 100.47C413.118 100.899 412.736 101.24 412.241 101.492C411.746 101.744 411.154 101.87 410.463 101.87ZM408.475 96.046C408.475 96.4193 408.564 96.76 408.741 97.068C408.918 97.376 409.156 97.6187 409.455 97.796C409.763 97.9733 410.104 98.062 410.477 98.062C410.822 98.062 411.13 98.0013 411.401 97.88C411.681 97.7493 411.914 97.5767 412.101 97.362C412.288 97.138 412.418 96.8813 412.493 96.592V95.444C412.409 95.164 412.269 94.9213 412.073 94.716C411.877 94.5013 411.644 94.338 411.373 94.226C411.102 94.1047 410.804 94.044 410.477 94.044C410.104 94.044 409.763 94.128 409.455 94.296C409.156 94.464 408.918 94.702 408.741 95.01C408.564 95.3087 408.475 95.654 408.475 96.046ZM420.796 88.878H422.154V99H420.796V88.878ZM425.901 93.204L426.013 94.618L425.957 94.394C426.144 93.9647 426.447 93.624 426.867 93.372C427.287 93.1107 427.773 92.98 428.323 92.98C428.874 92.98 429.322 93.1433 429.667 93.47C430.022 93.7873 430.204 94.2027 430.213 94.716V99H428.897V95.178C428.888 94.8607 428.795 94.604 428.617 94.408C428.449 94.2027 428.183 94.1 427.819 94.1C427.483 94.1 427.18 94.1933 426.909 94.38C426.639 94.5667 426.424 94.8233 426.265 95.15C426.116 95.4767 426.041 95.8547 426.041 96.284V99H424.739V93.204H425.901ZM433.64 93.204L433.752 94.618L433.696 94.394C433.882 93.9647 434.186 93.624 434.606 93.372C435.026 93.1107 435.511 92.98 436.062 92.98C436.612 92.98 437.06 93.1433 437.406 93.47C437.76 93.7873 437.942 94.2027 437.952 94.716V99H436.636V95.178C436.626 94.8607 436.533 94.604 436.356 94.408C436.188 94.2027 435.922 94.1 435.558 94.1C435.222 94.1 434.918 94.1933 434.648 94.38C434.377 94.5667 434.162 94.8233 434.004 95.15C433.854 95.4767 433.78 95.8547 433.78 96.284V99H432.478V93.204H433.64ZM439.712 96.046C439.712 95.4673 439.847 94.9447 440.118 94.478C440.398 94.0113 440.781 93.6427 441.266 93.372C441.751 93.1013 442.302 92.966 442.918 92.966C443.553 92.966 444.108 93.1013 444.584 93.372C445.06 93.6427 445.429 94.0113 445.69 94.478C445.951 94.9447 446.082 95.4673 446.082 96.046C446.082 96.6247 445.951 97.152 445.69 97.628C445.429 98.0947 445.055 98.4633 444.57 98.734C444.094 99.0047 443.539 99.14 442.904 99.14C442.288 99.14 441.737 99.014 441.252 98.762C440.776 98.5007 440.398 98.1413 440.118 97.684C439.847 97.2173 439.712 96.6713 439.712 96.046ZM441.014 96.06C441.014 96.4333 441.098 96.774 441.266 97.082C441.434 97.3807 441.658 97.6187 441.938 97.796C442.227 97.9733 442.545 98.062 442.89 98.062C443.254 98.062 443.576 97.9733 443.856 97.796C444.145 97.6187 444.369 97.3807 444.528 97.082C444.687 96.774 444.766 96.4333 444.766 96.06C444.766 95.6867 444.687 95.3507 444.528 95.052C444.369 94.744 444.145 94.5013 443.856 94.324C443.576 94.1373 443.254 94.044 442.89 94.044C442.535 94.044 442.213 94.1373 441.924 94.324C441.644 94.5107 441.42 94.758 441.252 95.066C441.093 95.3647 441.014 95.696 441.014 96.06ZM450.019 99.168L446.799 93.204H448.339L450.523 97.81L449.725 97.782L451.727 93.204H453.183L450.089 99.168H450.019ZM456.761 99.14C456.219 99.14 455.725 99.0233 455.277 98.79C454.838 98.5567 454.488 98.216 454.227 97.768C453.975 97.3107 453.849 96.7553 453.849 96.102C453.849 95.458 453.984 94.9027 454.255 94.436C454.525 93.96 454.885 93.596 455.333 93.344C455.79 93.092 456.289 92.966 456.831 92.966C457.372 92.966 457.829 93.092 458.203 93.344C458.576 93.5867 458.861 93.876 459.057 94.212L458.973 94.436L459.099 93.204H460.303V99H459.001V97.488L459.141 97.824C459.103 97.9173 459.019 98.0387 458.889 98.188C458.767 98.328 458.599 98.4727 458.385 98.622C458.179 98.7713 457.941 98.8973 457.671 99C457.4 99.0933 457.097 99.14 456.761 99.14ZM457.111 98.062C457.437 98.062 457.731 98.0013 457.993 97.88C458.254 97.7587 458.469 97.5907 458.637 97.376C458.814 97.152 458.935 96.886 459.001 96.578V95.444C458.926 95.164 458.795 94.9213 458.609 94.716C458.422 94.5013 458.198 94.338 457.937 94.226C457.675 94.1047 457.386 94.044 457.069 94.044C456.723 94.044 456.406 94.128 456.117 94.296C455.827 94.464 455.594 94.6973 455.417 94.996C455.249 95.2947 455.165 95.6447 455.165 96.046C455.165 96.4193 455.253 96.76 455.431 97.068C455.608 97.376 455.846 97.6187 456.145 97.796C456.443 97.9733 456.765 98.062 457.111 98.062ZM463.116 90.656H464.418V93.232H466.014V94.254H464.418V99H463.116V94.254H462.052V93.232H463.116V90.656ZM467.587 93.204H468.889V99H467.587V93.204ZM467.489 91.104C467.489 90.8987 467.568 90.726 467.727 90.586C467.895 90.446 468.077 90.376 468.273 90.376C468.469 90.376 468.642 90.446 468.791 90.586C468.95 90.726 469.029 90.8987 469.029 91.104C469.029 91.3187 468.95 91.496 468.791 91.636C468.642 91.7667 468.469 91.832 468.273 91.832C468.077 91.832 467.895 91.762 467.727 91.622C467.568 91.482 467.489 91.3093 467.489 91.104ZM470.638 96.046C470.638 95.4673 470.773 94.9447 471.044 94.478C471.324 94.0113 471.706 93.6427 472.192 93.372C472.677 93.1013 473.228 92.966 473.844 92.966C474.478 92.966 475.034 93.1013 475.51 93.372C475.986 93.6427 476.354 94.0113 476.616 94.478C476.877 94.9447 477.008 95.4673 477.008 96.046C477.008 96.6247 476.877 97.152 476.616 97.628C476.354 98.0947 475.981 98.4633 475.496 98.734C475.02 99.0047 474.464 99.14 473.83 99.14C473.214 99.14 472.663 99.014 472.178 98.762C471.702 98.5007 471.324 98.1413 471.044 97.684C470.773 97.2173 470.638 96.6713 470.638 96.046ZM471.94 96.06C471.94 96.4333 472.024 96.774 472.192 97.082C472.36 97.3807 472.584 97.6187 472.864 97.796C473.153 97.9733 473.47 98.062 473.816 98.062C474.18 98.062 474.502 97.9733 474.782 97.796C475.071 97.6187 475.295 97.3807 475.454 97.082C475.612 96.774 475.692 96.4333 475.692 96.06C475.692 95.6867 475.612 95.3507 475.454 95.052C475.295 94.744 475.071 94.5013 474.782 94.324C474.502 94.1373 474.18 94.044 473.816 94.044C473.461 94.044 473.139 94.1373 472.85 94.324C472.57 94.5107 472.346 94.758 472.178 95.066C472.019 95.3647 471.94 95.696 471.94 96.06ZM479.933 93.204L480.045 94.618L479.989 94.394C480.175 93.9647 480.479 93.624 480.899 93.372C481.319 93.1107 481.804 92.98 482.355 92.98C482.905 92.98 483.353 93.1433 483.699 93.47C484.053 93.7873 484.235 94.2027 484.245 94.716V99H482.929V95.178C482.919 94.8607 482.826 94.604 482.649 94.408C482.481 94.2027 482.215 94.1 481.851 94.1C481.515 94.1 481.211 94.1933 480.941 94.38C480.67 94.5667 480.455 94.8233 480.297 95.15C480.147 95.4767 480.073 95.8547 480.073 96.284V99H478.771V93.204H479.933Z" fill="white"/>
</svg>
