<svg width="696" height="125" viewBox="0 0 696 125" fill="none" xmlns="http://www.w3.org/2000/svg">
<path d="M461 10.6667C450.458 10.6667 441.833 19.2917 441.833 29.8334V37.5001H449.5V29.8334C449.5 23.5084 454.675 18.3334 461 18.3334C467.325 18.3334 472.5 23.5084 472.5 29.8334V37.5001H480.167V29.8334C480.167 19.2917 471.542 10.6667 461 10.6667Z" fill="#424242"/>
<path d="M484 87.3333H438C433.783 87.3333 430.333 83.8833 430.333 79.6667V45.1667C430.333 40.95 433.783 37.5 438 37.5H484C488.217 37.5 491.667 40.95 491.667 45.1667V79.6667C491.667 83.8833 488.217 87.3333 484 87.3333Z" fill="#FB8C00"/>
<path d="M229.383 47.2188L244.008 79H238.688L233.953 68.6406H220.617L215.719 79H213.094L228.07 47.2188H229.383ZM221.531 66.625H232.992L227.344 54.3203L221.531 66.625ZM248.344 47.9219H251.273L271.641 70.6562H271.875V47.9219H274.172V79.7266H272.953L250.898 54.4609H250.711V79H248.344V47.9219ZM294.773 47.2188L309.398 79H304.078L299.344 68.6406H286.008L281.109 79H278.484L293.461 47.2188H294.773ZM286.922 66.625H298.383L292.734 54.3203L286.922 66.625ZM313.734 47.9219H316.664L337.031 70.6562H337.266V47.9219H339.562V79.7266H338.344L316.289 54.4609H316.102V79H313.734V47.9219ZM348 47.9219H358.359C361.547 47.9219 364.289 48.2188 366.586 48.8125C368.883 49.4062 370.797 50.3594 372.328 51.6719C374.078 53.1719 375.391 54.8906 376.266 56.8281C377.156 58.7656 377.602 60.8828 377.602 63.1797C377.602 65.3672 377.203 67.4219 376.406 69.3438C375.625 71.2656 374.469 72.9453 372.938 74.3828C371.422 75.8047 369.539 76.9297 367.289 77.7578C365.055 78.5859 362.492 79 359.602 79H348V47.9219ZM353.227 76.7266H358.781C360.531 76.7266 362.18 76.4375 363.727 75.8594C365.273 75.2812 366.617 74.4219 367.758 73.2812C368.914 72.1406 369.82 70.7422 370.477 69.0859C371.148 67.4141 371.484 65.4844 371.484 63.2969C371.484 61.375 371.172 59.6172 370.547 58.0234C369.922 56.4141 369.047 55.0312 367.922 53.875C366.797 52.7188 365.453 51.8203 363.891 51.1797C362.344 50.5391 360.648 50.2188 358.805 50.2188H353.227V76.7266ZM384.656 47.9219H389.883V79H384.656V47.9219ZM398.344 47.9219H401.273L421.641 70.6562H421.875V47.9219H424.172V79.7266H422.953L400.898 54.4609H400.711V79H398.344V47.9219Z" fill="white"/>
<path d="M454.617 47.2188L469.242 79H463.922L459.188 68.6406H445.852L440.953 79H438.328L453.305 47.2188H454.617ZM446.766 66.625H458.227L452.578 54.3203L446.766 66.625ZM473.578 47.9219H478.805V79H473.578V47.9219Z" fill="black"/>
<path d="M217.674 92.416C217.674 92.8733 217.781 93.284 217.996 93.648C218.22 94.0027 218.514 94.2827 218.878 94.488C219.242 94.6933 219.653 94.796 220.11 94.796C220.586 94.796 221.011 94.6933 221.384 94.488C221.757 94.2827 222.051 94.0027 222.266 93.648C222.481 93.284 222.588 92.8733 222.588 92.416V85.878H223.918V92.458C223.918 93.1953 223.745 93.8393 223.4 94.39C223.064 94.9407 222.607 95.3653 222.028 95.664C221.459 95.9627 220.819 96.112 220.11 96.112C219.401 96.112 218.761 95.9627 218.192 95.664C217.623 95.3653 217.17 94.9407 216.834 94.39C216.498 93.8393 216.33 93.1953 216.33 92.458V85.878H217.674V92.416ZM227.536 90.204L227.648 91.618L227.592 91.394C227.779 90.9647 228.082 90.624 228.502 90.372C228.922 90.1107 229.408 89.98 229.958 89.98C230.509 89.98 230.957 90.1433 231.302 90.47C231.657 90.7873 231.839 91.2027 231.848 91.716V96H230.532V92.178C230.523 91.8607 230.43 91.604 230.252 91.408C230.084 91.2027 229.818 91.1 229.454 91.1C229.118 91.1 228.815 91.1933 228.544 91.38C228.274 91.5667 228.059 91.8233 227.9 92.15C227.751 92.4767 227.676 92.8547 227.676 93.284V96H226.374V90.204H227.536ZM234.113 85.164H235.415V96H234.113V85.164ZM237.163 93.046C237.163 92.4673 237.299 91.9447 237.569 91.478C237.849 91.0113 238.232 90.6427 238.717 90.372C239.203 90.1013 239.753 89.966 240.369 89.966C241.004 89.966 241.559 90.1013 242.035 90.372C242.511 90.6427 242.88 91.0113 243.141 91.478C243.403 91.9447 243.533 92.4673 243.533 93.046C243.533 93.6247 243.403 94.152 243.141 94.628C242.88 95.0947 242.507 95.4633 242.021 95.734C241.545 96.0047 240.99 96.14 240.355 96.14C239.739 96.14 239.189 96.014 238.703 95.762C238.227 95.5007 237.849 95.1413 237.569 94.684C237.299 94.2173 237.163 93.6713 237.163 93.046ZM238.465 93.06C238.465 93.4333 238.549 93.774 238.717 94.082C238.885 94.3807 239.109 94.6187 239.389 94.796C239.679 94.9733 239.996 95.062 240.341 95.062C240.705 95.062 241.027 94.9733 241.307 94.796C241.597 94.6187 241.821 94.3807 241.979 94.082C242.138 93.774 242.217 93.4333 242.217 93.06C242.217 92.6867 242.138 92.3507 241.979 92.052C241.821 91.744 241.597 91.5013 241.307 91.324C241.027 91.1373 240.705 91.044 240.341 91.044C239.987 91.044 239.665 91.1373 239.375 91.324C239.095 91.5107 238.871 91.758 238.703 92.066C238.545 92.3647 238.465 92.696 238.465 93.06ZM250 95.468C249.739 95.6733 249.426 95.8367 249.062 95.958C248.698 96.0793 248.334 96.14 247.97 96.14C247.335 96.14 246.78 96.014 246.304 95.762C245.828 95.51 245.455 95.16 245.184 94.712C244.923 94.2547 244.792 93.718 244.792 93.102C244.792 92.486 244.932 91.9493 245.212 91.492C245.501 91.0347 245.875 90.6847 246.332 90.442C246.799 90.19 247.298 90.064 247.83 90.064C248.297 90.064 248.712 90.1293 249.076 90.26C249.449 90.3907 249.767 90.568 250.028 90.792L249.384 91.632C249.216 91.5013 249.011 91.3847 248.768 91.282C248.525 91.1793 248.25 91.128 247.942 91.128C247.606 91.128 247.293 91.2167 247.004 91.394C246.724 91.562 246.5 91.7953 246.332 92.094C246.173 92.3927 246.094 92.7287 246.094 93.102C246.094 93.4567 246.178 93.788 246.346 94.096C246.514 94.3947 246.747 94.6327 247.046 94.81C247.345 94.978 247.685 95.062 248.068 95.062C248.32 95.062 248.549 95.0247 248.754 94.95C248.969 94.8753 249.16 94.7727 249.328 94.642L250 95.468ZM251.681 96V85.164H252.983V96H251.681ZM254.383 92.15L257.043 96H255.517L253.515 92.878L254.383 92.15ZM252.577 94.152L252.451 92.906L255.965 90.078L256.763 90.764L252.577 94.152ZM258.654 90.204H259.956V96H258.654V90.204ZM258.556 88.104C258.556 87.8987 258.635 87.726 258.794 87.586C258.962 87.446 259.144 87.376 259.34 87.376C259.536 87.376 259.708 87.446 259.858 87.586C260.016 87.726 260.096 87.8987 260.096 88.104C260.096 88.3187 260.016 88.496 259.858 88.636C259.708 88.7667 259.536 88.832 259.34 88.832C259.144 88.832 258.962 88.762 258.794 88.622C258.635 88.482 258.556 88.3093 258.556 88.104ZM263.37 90.204L263.482 91.618L263.426 91.394C263.613 90.9647 263.916 90.624 264.336 90.372C264.756 90.1107 265.242 89.98 265.792 89.98C266.343 89.98 266.791 90.1433 267.136 90.47C267.491 90.7873 267.673 91.2027 267.682 91.716V96H266.366V92.178C266.357 91.8607 266.264 91.604 266.086 91.408C265.918 91.2027 265.652 91.1 265.288 91.1C264.952 91.1 264.649 91.1933 264.378 91.38C264.108 91.5667 263.893 91.8233 263.734 92.15C263.585 92.4767 263.51 92.8547 263.51 93.284V96H262.208V90.204H263.37ZM272.733 98.87C272.303 98.87 271.925 98.8187 271.599 98.716C271.272 98.6227 270.973 98.4873 270.703 98.31C270.441 98.1327 270.189 97.932 269.947 97.708L270.703 96.826C271.011 97.1153 271.323 97.3393 271.641 97.498C271.958 97.6567 272.313 97.736 272.705 97.736C273.143 97.736 273.512 97.6613 273.811 97.512C274.119 97.372 274.352 97.1713 274.511 96.91C274.669 96.658 274.749 96.364 274.749 96.028L274.763 94.46L274.875 94.712C274.707 95.1133 274.403 95.454 273.965 95.734C273.526 96.0047 272.994 96.14 272.369 96.14C271.837 96.14 271.347 96.0047 270.899 95.734C270.46 95.4633 270.105 95.0993 269.835 94.642C269.573 94.1753 269.443 93.6527 269.443 93.074C269.443 92.4673 269.583 91.9353 269.863 91.478C270.143 91.0113 270.511 90.6427 270.969 90.372C271.426 90.1013 271.925 89.966 272.467 89.966C272.98 89.966 273.447 90.0733 273.867 90.288C274.296 90.4933 274.609 90.7593 274.805 91.086L274.735 91.324L274.875 90.204H276.065V96.042C276.065 96.5647 275.929 97.0407 275.659 97.47C275.388 97.8993 275.005 98.24 274.511 98.492C274.016 98.744 273.423 98.87 272.733 98.87ZM270.745 93.046C270.745 93.4193 270.833 93.76 271.011 94.068C271.188 94.376 271.426 94.6187 271.725 94.796C272.033 94.9733 272.373 95.062 272.747 95.062C273.092 95.062 273.4 95.0013 273.671 94.88C273.951 94.7493 274.184 94.5767 274.371 94.362C274.557 94.138 274.688 93.8813 274.763 93.592V92.444C274.679 92.164 274.539 91.9213 274.343 91.716C274.147 91.5013 273.913 91.338 273.643 91.226C273.372 91.1047 273.073 91.044 272.747 91.044C272.373 91.044 272.033 91.128 271.725 91.296C271.426 91.464 271.188 91.702 271.011 92.01C270.833 92.3087 270.745 92.654 270.745 93.046ZM283.065 85.878H284.423V96H283.065V85.878ZM288.171 90.204L288.283 91.618L288.227 91.394C288.414 90.9647 288.717 90.624 289.137 90.372C289.557 90.1107 290.042 89.98 290.593 89.98C291.144 89.98 291.592 90.1433 291.937 90.47C292.292 90.7873 292.474 91.2027 292.483 91.716V96H291.167V92.178C291.158 91.8607 291.064 91.604 290.887 91.408C290.719 91.2027 290.453 91.1 290.089 91.1C289.753 91.1 289.45 91.1933 289.179 91.38C288.908 91.5667 288.694 91.8233 288.535 92.15C288.386 92.4767 288.311 92.8547 288.311 93.284V96H287.009V90.204H288.171ZM296.371 96.112C295.961 96.112 295.559 96.042 295.167 95.902C294.785 95.7527 294.467 95.5333 294.215 95.244L294.761 94.488C295.004 94.7213 295.251 94.8987 295.503 95.02C295.765 95.132 296.021 95.188 296.273 95.188C296.46 95.188 296.633 95.1647 296.791 95.118C296.95 95.0713 297.076 94.9967 297.169 94.894C297.272 94.782 297.323 94.6327 297.323 94.446C297.323 94.2407 297.253 94.0773 297.113 93.956C296.983 93.8347 296.81 93.7367 296.595 93.662C296.39 93.5873 296.171 93.5173 295.937 93.452C295.461 93.2933 295.097 93.074 294.845 92.794C294.593 92.514 294.467 92.1733 294.467 91.772C294.467 91.464 294.542 91.1793 294.691 90.918C294.85 90.6473 295.079 90.428 295.377 90.26C295.685 90.092 296.063 90.008 296.511 90.008C296.913 90.008 297.272 90.0593 297.589 90.162C297.907 90.2553 298.205 90.414 298.485 90.638L297.967 91.45C297.799 91.2727 297.599 91.142 297.365 91.058C297.132 90.974 296.922 90.9273 296.735 90.918C296.577 90.9087 296.423 90.932 296.273 90.988C296.133 91.044 296.017 91.1233 295.923 91.226C295.83 91.3287 295.783 91.45 295.783 91.59C295.783 91.786 295.849 91.9447 295.979 92.066C296.11 92.1873 296.278 92.2853 296.483 92.36C296.698 92.4253 296.908 92.4953 297.113 92.57C297.403 92.654 297.659 92.766 297.883 92.906C298.107 93.046 298.285 93.2187 298.415 93.424C298.555 93.6293 298.625 93.886 298.625 94.194C298.625 94.5393 298.541 94.8613 298.373 95.16C298.215 95.4493 297.967 95.6827 297.631 95.86C297.305 96.028 296.885 96.112 296.371 96.112ZM300.448 90.204H301.75V96H300.448V90.204ZM300.35 88.104C300.35 87.8987 300.43 87.726 300.588 87.586C300.756 87.446 300.938 87.376 301.134 87.376C301.33 87.376 301.503 87.446 301.652 87.586C301.811 87.726 301.89 87.8987 301.89 88.104C301.89 88.3187 301.811 88.496 301.652 88.636C301.503 88.7667 301.33 88.832 301.134 88.832C300.938 88.832 300.756 88.762 300.588 88.622C300.43 88.482 300.35 88.3093 300.35 88.104ZM306.789 98.87C306.36 98.87 305.982 98.8187 305.655 98.716C305.328 98.6227 305.03 98.4873 304.759 98.31C304.498 98.1327 304.246 97.932 304.003 97.708L304.759 96.826C305.067 97.1153 305.38 97.3393 305.697 97.498C306.014 97.6567 306.369 97.736 306.761 97.736C307.2 97.736 307.568 97.6613 307.867 97.512C308.175 97.372 308.408 97.1713 308.567 96.91C308.726 96.658 308.805 96.364 308.805 96.028L308.819 94.46L308.931 94.712C308.763 95.1133 308.46 95.454 308.021 95.734C307.582 96.0047 307.05 96.14 306.425 96.14C305.893 96.14 305.403 96.0047 304.955 95.734C304.516 95.4633 304.162 95.0993 303.891 94.642C303.63 94.1753 303.499 93.6527 303.499 93.074C303.499 92.4673 303.639 91.9353 303.919 91.478C304.199 91.0113 304.568 90.6427 305.025 90.372C305.482 90.1013 305.982 89.966 306.523 89.966C307.036 89.966 307.503 90.0733 307.923 90.288C308.352 90.4933 308.665 90.7593 308.861 91.086L308.791 91.324L308.931 90.204H310.121V96.042C310.121 96.5647 309.986 97.0407 309.715 97.47C309.444 97.8993 309.062 98.24 308.567 98.492C308.072 98.744 307.48 98.87 306.789 98.87ZM304.801 93.046C304.801 93.4193 304.89 93.76 305.067 94.068C305.244 94.376 305.482 94.6187 305.781 94.796C306.089 94.9733 306.43 95.062 306.803 95.062C307.148 95.062 307.456 95.0013 307.727 94.88C308.007 94.7493 308.24 94.5767 308.427 94.362C308.614 94.138 308.744 93.8813 308.819 93.592V92.444C308.735 92.164 308.595 91.9213 308.399 91.716C308.203 91.5013 307.97 91.338 307.699 91.226C307.428 91.1047 307.13 91.044 306.803 91.044C306.43 91.044 306.089 91.128 305.781 91.296C305.482 91.464 305.244 91.702 305.067 92.01C304.89 92.3087 304.801 92.654 304.801 93.046ZM312.37 96V85.164H313.644V91.548L313.616 91.31C313.812 90.9273 314.111 90.61 314.512 90.358C314.923 90.106 315.404 89.98 315.954 89.98C316.505 89.98 316.953 90.1433 317.298 90.47C317.653 90.7873 317.835 91.2027 317.844 91.716V96H316.528V92.178C316.519 91.8607 316.426 91.604 316.248 91.408C316.08 91.2027 315.814 91.1 315.45 91.1C315.114 91.1 314.811 91.198 314.54 91.394C314.27 91.5807 314.055 91.8373 313.896 92.164C313.747 92.4907 313.672 92.864 313.672 93.284V96H312.37ZM320.669 87.656H321.971V90.232H323.567V91.254H321.971V96H320.669V91.254H319.605V90.232H320.669V87.656ZM326.764 96.112C326.353 96.112 325.952 96.042 325.56 95.902C325.177 95.7527 324.86 95.5333 324.608 95.244L325.154 94.488C325.397 94.7213 325.644 94.8987 325.896 95.02C326.157 95.132 326.414 95.188 326.666 95.188C326.853 95.188 327.025 95.1647 327.184 95.118C327.343 95.0713 327.469 94.9967 327.562 94.894C327.665 94.782 327.716 94.6327 327.716 94.446C327.716 94.2407 327.646 94.0773 327.506 93.956C327.375 93.8347 327.203 93.7367 326.988 93.662C326.783 93.5873 326.563 93.5173 326.33 93.452C325.854 93.2933 325.49 93.074 325.238 92.794C324.986 92.514 324.86 92.1733 324.86 91.772C324.86 91.464 324.935 91.1793 325.084 90.918C325.243 90.6473 325.471 90.428 325.77 90.26C326.078 90.092 326.456 90.008 326.904 90.008C327.305 90.008 327.665 90.0593 327.982 90.162C328.299 90.2553 328.598 90.414 328.878 90.638L328.36 91.45C328.192 91.2727 327.991 91.142 327.758 91.058C327.525 90.974 327.315 90.9273 327.128 90.918C326.969 90.9087 326.815 90.932 326.666 90.988C326.526 91.044 326.409 91.1233 326.316 91.226C326.223 91.3287 326.176 91.45 326.176 91.59C326.176 91.786 326.241 91.9447 326.372 92.066C326.503 92.1873 326.671 92.2853 326.876 92.36C327.091 92.4253 327.301 92.4953 327.506 92.57C327.795 92.654 328.052 92.766 328.276 92.906C328.5 93.046 328.677 93.2187 328.808 93.424C328.948 93.6293 329.018 93.886 329.018 94.194C329.018 94.5393 328.934 94.8613 328.766 95.16C328.607 95.4493 328.36 95.6827 328.024 95.86C327.697 96.028 327.277 96.112 326.764 96.112ZM332.017 94.782C331.812 95.2673 331.606 95.748 331.401 96.224C331.205 96.7093 331.004 97.1993 330.799 97.694H329.749C329.936 97.1993 330.118 96.7093 330.295 96.224C330.472 95.748 330.654 95.2673 330.841 94.782H332.017ZM338.436 85.878H345.016V87.18H339.794V90.26H344.456V91.562H339.794V94.698H345.212V96H338.436V85.878ZM348.409 90.204L348.521 91.506L348.465 91.394C348.68 90.9553 348.983 90.61 349.375 90.358C349.777 90.106 350.234 89.98 350.747 89.98C351.074 89.98 351.363 90.0313 351.615 90.134C351.867 90.2367 352.073 90.386 352.231 90.582C352.399 90.7687 352.507 91.002 352.553 91.282L352.483 91.324C352.707 90.904 353.015 90.5773 353.407 90.344C353.809 90.1013 354.229 89.98 354.667 89.98C355.237 89.98 355.685 90.1433 356.011 90.47C356.347 90.7873 356.52 91.2027 356.529 91.716V96H355.227V92.178C355.218 91.8793 355.143 91.632 355.003 91.436C354.873 91.2307 354.639 91.1187 354.303 91.1C353.967 91.1 353.664 91.2027 353.393 91.408C353.132 91.6133 352.927 91.8793 352.777 92.206C352.628 92.5233 352.549 92.8687 352.539 93.242V96H351.237V92.178C351.228 91.8793 351.149 91.632 350.999 91.436C350.859 91.2307 350.621 91.1187 350.285 91.1C349.94 91.1 349.637 91.2027 349.375 91.408C349.114 91.6133 348.909 91.8793 348.759 92.206C348.619 92.5327 348.549 92.8827 348.549 93.256V96H347.247V90.204H348.409ZM362.216 96.14C361.777 96.14 361.353 96.0373 360.942 95.832C360.541 95.6267 360.228 95.3513 360.004 95.006L360.088 94.6V98.786H358.8V90.12H359.92L360.102 91.604L359.962 91.198C360.242 90.8433 360.597 90.5493 361.026 90.316C361.455 90.0827 361.936 89.966 362.468 89.966C363.009 89.966 363.495 90.0967 363.924 90.358C364.363 90.6193 364.708 90.9833 364.96 91.45C365.212 91.9167 365.338 92.4627 365.338 93.088C365.338 93.7133 365.203 94.2547 364.932 94.712C364.661 95.1693 364.288 95.524 363.812 95.776C363.345 96.0187 362.813 96.14 362.216 96.14ZM361.964 95.104C362.337 95.104 362.678 95.02 362.986 94.852C363.303 94.6747 363.555 94.4367 363.742 94.138C363.929 93.83 364.022 93.4847 364.022 93.102C364.022 92.71 363.933 92.3647 363.756 92.066C363.579 91.758 363.341 91.5153 363.042 91.338C362.753 91.1607 362.426 91.072 362.062 91.072C361.726 91.072 361.423 91.1373 361.152 91.268C360.881 91.3987 360.657 91.5807 360.48 91.814C360.303 92.038 360.177 92.2993 360.102 92.598V93.564C360.149 93.8627 360.261 94.1287 360.438 94.362C360.615 94.5953 360.835 94.7773 361.096 94.908C361.367 95.0387 361.656 95.104 361.964 95.104ZM366.595 93.046C366.595 92.4673 366.73 91.9447 367.001 91.478C367.281 91.0113 367.664 90.6427 368.149 90.372C368.634 90.1013 369.185 89.966 369.801 89.966C370.436 89.966 370.991 90.1013 371.467 90.372C371.943 90.6427 372.312 91.0113 372.573 91.478C372.834 91.9447 372.965 92.4673 372.965 93.046C372.965 93.6247 372.834 94.152 372.573 94.628C372.312 95.0947 371.938 95.4633 371.453 95.734C370.977 96.0047 370.422 96.14 369.787 96.14C369.171 96.14 368.62 96.014 368.135 95.762C367.659 95.5007 367.281 95.1413 367.001 94.684C366.73 94.2173 366.595 93.6713 366.595 93.046ZM367.897 93.06C367.897 93.4333 367.981 93.774 368.149 94.082C368.317 94.3807 368.541 94.6187 368.821 94.796C369.11 94.9733 369.428 95.062 369.773 95.062C370.137 95.062 370.459 94.9733 370.739 94.796C371.028 94.6187 371.252 94.3807 371.411 94.082C371.57 93.774 371.649 93.4333 371.649 93.06C371.649 92.6867 371.57 92.3507 371.411 92.052C371.252 91.744 371.028 91.5013 370.739 91.324C370.459 91.1373 370.137 91.044 369.773 91.044C369.418 91.044 369.096 91.1373 368.807 91.324C368.527 91.5107 368.303 91.758 368.135 92.066C367.976 92.3647 367.897 92.696 367.897 93.06ZM378.26 90.204L379.968 94.11L379.716 94.138L381.312 90.204H382.586L379.926 96.35L378.064 92.374L376.37 96.35L373.682 90.204H374.956L376.762 94.292L376.314 94.208L377.602 91.212L377.14 90.204H378.26ZM386.535 96.14C385.872 96.14 385.303 96.0093 384.827 95.748C384.351 95.4773 383.982 95.1133 383.721 94.656C383.469 94.1893 383.343 93.6573 383.343 93.06C383.343 92.4907 383.488 91.9727 383.777 91.506C384.066 91.0393 384.454 90.666 384.939 90.386C385.424 90.106 385.966 89.966 386.563 89.966C387.328 89.966 387.963 90.19 388.467 90.638C388.971 91.086 389.312 91.702 389.489 92.486L384.715 94.166L384.407 93.396L388.327 91.968L388.047 92.15C387.935 91.842 387.748 91.576 387.487 91.352C387.226 91.1187 386.885 91.002 386.465 91.002C386.11 91.002 385.793 91.0907 385.513 91.268C385.233 91.436 385.014 91.6693 384.855 91.968C384.696 92.2667 384.617 92.6073 384.617 92.99C384.617 93.3913 384.701 93.746 384.869 94.054C385.037 94.3527 385.266 94.5907 385.555 94.768C385.854 94.936 386.19 95.02 386.563 95.02C386.815 95.02 387.058 94.9733 387.291 94.88C387.534 94.7867 387.758 94.6653 387.963 94.516L388.565 95.482C388.276 95.678 387.949 95.8367 387.585 95.958C387.23 96.0793 386.88 96.14 386.535 96.14ZM392.282 90.204L392.408 91.884L392.338 91.66C392.488 91.3053 392.702 91.0067 392.982 90.764C393.272 90.512 393.57 90.3207 393.878 90.19C394.196 90.05 394.471 89.98 394.704 89.98L394.634 91.268C394.196 91.24 393.808 91.324 393.472 91.52C393.146 91.716 392.884 91.9773 392.688 92.304C392.502 92.6307 392.408 92.9807 392.408 93.354V96H391.12V90.204H392.282ZM396.384 90.204H397.686V96H396.384V90.204ZM396.286 88.104C396.286 87.8987 396.365 87.726 396.524 87.586C396.692 87.446 396.874 87.376 397.07 87.376C397.266 87.376 397.439 87.446 397.588 87.586C397.747 87.726 397.826 87.8987 397.826 88.104C397.826 88.3187 397.747 88.496 397.588 88.636C397.439 88.7667 397.266 88.832 397.07 88.832C396.874 88.832 396.692 88.762 396.524 88.622C396.365 88.482 396.286 88.3093 396.286 88.104ZM401.101 90.204L401.213 91.618L401.157 91.394C401.343 90.9647 401.647 90.624 402.067 90.372C402.487 90.1107 402.972 89.98 403.523 89.98C404.073 89.98 404.521 90.1433 404.867 90.47C405.221 90.7873 405.403 91.2027 405.413 91.716V96H404.097V92.178C404.087 91.8607 403.994 91.604 403.817 91.408C403.649 91.2027 403.383 91.1 403.019 91.1C402.683 91.1 402.379 91.1933 402.109 91.38C401.838 91.5667 401.623 91.8233 401.465 92.15C401.315 92.4767 401.241 92.8547 401.241 93.284V96H399.939V90.204H401.101ZM410.463 98.87C410.034 98.87 409.656 98.8187 409.329 98.716C409.002 98.6227 408.704 98.4873 408.433 98.31C408.172 98.1327 407.92 97.932 407.677 97.708L408.433 96.826C408.741 97.1153 409.054 97.3393 409.371 97.498C409.688 97.6567 410.043 97.736 410.435 97.736C410.874 97.736 411.242 97.6613 411.541 97.512C411.849 97.372 412.082 97.1713 412.241 96.91C412.4 96.658 412.479 96.364 412.479 96.028L412.493 94.46L412.605 94.712C412.437 95.1133 412.134 95.454 411.695 95.734C411.256 96.0047 410.724 96.14 410.099 96.14C409.567 96.14 409.077 96.0047 408.629 95.734C408.19 95.4633 407.836 95.0993 407.565 94.642C407.304 94.1753 407.173 93.6527 407.173 93.074C407.173 92.4673 407.313 91.9353 407.593 91.478C407.873 91.0113 408.242 90.6427 408.699 90.372C409.156 90.1013 409.656 89.966 410.197 89.966C410.71 89.966 411.177 90.0733 411.597 90.288C412.026 90.4933 412.339 90.7593 412.535 91.086L412.465 91.324L412.605 90.204H413.795V96.042C413.795 96.5647 413.66 97.0407 413.389 97.47C413.118 97.8993 412.736 98.24 412.241 98.492C411.746 98.744 411.154 98.87 410.463 98.87ZM408.475 93.046C408.475 93.4193 408.564 93.76 408.741 94.068C408.918 94.376 409.156 94.6187 409.455 94.796C409.763 94.9733 410.104 95.062 410.477 95.062C410.822 95.062 411.13 95.0013 411.401 94.88C411.681 94.7493 411.914 94.5767 412.101 94.362C412.288 94.138 412.418 93.8813 412.493 93.592V92.444C412.409 92.164 412.269 91.9213 412.073 91.716C411.877 91.5013 411.644 91.338 411.373 91.226C411.102 91.1047 410.804 91.044 410.477 91.044C410.104 91.044 409.763 91.128 409.455 91.296C409.156 91.464 408.918 91.702 408.741 92.01C408.564 92.3087 408.475 92.654 408.475 93.046ZM420.796 85.878H422.154V96H420.796V85.878ZM425.901 90.204L426.013 91.618L425.957 91.394C426.144 90.9647 426.447 90.624 426.867 90.372C427.287 90.1107 427.773 89.98 428.323 89.98C428.874 89.98 429.322 90.1433 429.667 90.47C430.022 90.7873 430.204 91.2027 430.213 91.716V96H428.897V92.178C428.888 91.8607 428.795 91.604 428.617 91.408C428.449 91.2027 428.183 91.1 427.819 91.1C427.483 91.1 427.18 91.1933 426.909 91.38C426.639 91.5667 426.424 91.8233 426.265 92.15C426.116 92.4767 426.041 92.8547 426.041 93.284V96H424.739V90.204H425.901ZM433.64 90.204L433.752 91.618L433.696 91.394C433.882 90.9647 434.186 90.624 434.606 90.372C435.026 90.1107 435.511 89.98 436.062 89.98C436.612 89.98 437.06 90.1433 437.406 90.47C437.76 90.7873 437.942 91.2027 437.952 91.716V96H436.636V92.178C436.626 91.8607 436.533 91.604 436.356 91.408C436.188 91.2027 435.922 91.1 435.558 91.1C435.222 91.1 434.918 91.1933 434.648 91.38C434.377 91.5667 434.162 91.8233 434.004 92.15C433.854 92.4767 433.78 92.8547 433.78 93.284V96H432.478V90.204H433.64ZM439.712 93.046C439.712 92.4673 439.847 91.9447 440.118 91.478C440.398 91.0113 440.781 90.6427 441.266 90.372C441.751 90.1013 442.302 89.966 442.918 89.966C443.553 89.966 444.108 90.1013 444.584 90.372C445.06 90.6427 445.429 91.0113 445.69 91.478C445.951 91.9447 446.082 92.4673 446.082 93.046C446.082 93.6247 445.951 94.152 445.69 94.628C445.429 95.0947 445.055 95.4633 444.57 95.734C444.094 96.0047 443.539 96.14 442.904 96.14C442.288 96.14 441.737 96.014 441.252 95.762C440.776 95.5007 440.398 95.1413 440.118 94.684C439.847 94.2173 439.712 93.6713 439.712 93.046ZM441.014 93.06C441.014 93.4333 441.098 93.774 441.266 94.082C441.434 94.3807 441.658 94.6187 441.938 94.796C442.227 94.9733 442.545 95.062 442.89 95.062C443.254 95.062 443.576 94.9733 443.856 94.796C444.145 94.6187 444.369 94.3807 444.528 94.082C444.687 93.774 444.766 93.4333 444.766 93.06C444.766 92.6867 444.687 92.3507 444.528 92.052C444.369 91.744 444.145 91.5013 443.856 91.324C443.576 91.1373 443.254 91.044 442.89 91.044C442.535 91.044 442.213 91.1373 441.924 91.324C441.644 91.5107 441.42 91.758 441.252 92.066C441.093 92.3647 441.014 92.696 441.014 93.06ZM450.019 96.168L446.799 90.204H448.339L450.523 94.81L449.725 94.782L451.727 90.204H453.183L450.089 96.168H450.019ZM456.761 96.14C456.219 96.14 455.725 96.0233 455.277 95.79C454.838 95.5567 454.488 95.216 454.227 94.768C453.975 94.3107 453.849 93.7553 453.849 93.102C453.849 92.458 453.984 91.9027 454.255 91.436C454.525 90.96 454.885 90.596 455.333 90.344C455.79 90.092 456.289 89.966 456.831 89.966C457.372 89.966 457.829 90.092 458.203 90.344C458.576 90.5867 458.861 90.876 459.057 91.212L458.973 91.436L459.099 90.204H460.303V96H459.001V94.488L459.141 94.824C459.103 94.9173 459.019 95.0387 458.889 95.188C458.767 95.328 458.599 95.4727 458.385 95.622C458.179 95.7713 457.941 95.8973 457.671 96C457.4 96.0933 457.097 96.14 456.761 96.14ZM457.111 95.062C457.437 95.062 457.731 95.0013 457.993 94.88C458.254 94.7587 458.469 94.5907 458.637 94.376C458.814 94.152 458.935 93.886 459.001 93.578V92.444C458.926 92.164 458.795 91.9213 458.609 91.716C458.422 91.5013 458.198 91.338 457.937 91.226C457.675 91.1047 457.386 91.044 457.069 91.044C456.723 91.044 456.406 91.128 456.117 91.296C455.827 91.464 455.594 91.6973 455.417 91.996C455.249 92.2947 455.165 92.6447 455.165 93.046C455.165 93.4193 455.253 93.76 455.431 94.068C455.608 94.376 455.846 94.6187 456.145 94.796C456.443 94.9733 456.765 95.062 457.111 95.062ZM463.116 87.656H464.418V90.232H466.014V91.254H464.418V96H463.116V91.254H462.052V90.232H463.116V87.656ZM467.587 90.204H468.889V96H467.587V90.204ZM467.489 88.104C467.489 87.8987 467.568 87.726 467.727 87.586C467.895 87.446 468.077 87.376 468.273 87.376C468.469 87.376 468.642 87.446 468.791 87.586C468.95 87.726 469.029 87.8987 469.029 88.104C469.029 88.3187 468.95 88.496 468.791 88.636C468.642 88.7667 468.469 88.832 468.273 88.832C468.077 88.832 467.895 88.762 467.727 88.622C467.568 88.482 467.489 88.3093 467.489 88.104ZM470.638 93.046C470.638 92.4673 470.773 91.9447 471.044 91.478C471.324 91.0113 471.706 90.6427 472.192 90.372C472.677 90.1013 473.228 89.966 473.844 89.966C474.478 89.966 475.034 90.1013 475.51 90.372C475.986 90.6427 476.354 91.0113 476.616 91.478C476.877 91.9447 477.008 92.4673 477.008 93.046C477.008 93.6247 476.877 94.152 476.616 94.628C476.354 95.0947 475.981 95.4633 475.496 95.734C475.02 96.0047 474.464 96.14 473.83 96.14C473.214 96.14 472.663 96.014 472.178 95.762C471.702 95.5007 471.324 95.1413 471.044 94.684C470.773 94.2173 470.638 93.6713 470.638 93.046ZM471.94 93.06C471.94 93.4333 472.024 93.774 472.192 94.082C472.36 94.3807 472.584 94.6187 472.864 94.796C473.153 94.9733 473.47 95.062 473.816 95.062C474.18 95.062 474.502 94.9733 474.782 94.796C475.071 94.6187 475.295 94.3807 475.454 94.082C475.612 93.774 475.692 93.4333 475.692 93.06C475.692 92.6867 475.612 92.3507 475.454 92.052C475.295 91.744 475.071 91.5013 474.782 91.324C474.502 91.1373 474.18 91.044 473.816 91.044C473.461 91.044 473.139 91.1373 472.85 91.324C472.57 91.5107 472.346 91.758 472.178 92.066C472.019 92.3647 471.94 92.696 471.94 93.06ZM479.933 90.204L480.045 91.618L479.989 91.394C480.175 90.9647 480.479 90.624 480.899 90.372C481.319 90.1107 481.804 89.98 482.355 89.98C482.905 89.98 483.353 90.1433 483.699 90.47C484.053 90.7873 484.235 91.2027 484.245 91.716V96H482.929V92.178C482.919 91.8607 482.826 91.604 482.649 91.408C482.481 91.2027 482.215 91.1 481.851 91.1C481.515 91.1 481.211 91.1933 480.941 91.38C480.67 91.5667 480.455 91.8233 480.297 92.15C480.147 92.4767 480.073 92.8547 480.073 93.284V96H478.771V90.204H479.933Z" fill="white"/>
</svg>
