<svg width="437" height="126" viewBox="0 0 437 126" fill="none" xmlns="http://www.w3.org/2000/svg">
<g clip-path="url(#clip0_36_2)">
<path d="M368 2C355.625 2 345.5 12.125 345.5 24.5V33.5H354.5V24.5C354.5 17.075 360.575 11 368 11C375.425 11 381.5 17.075 381.5 24.5V33.5H390.5V24.5C390.5 12.125 380.375 2 368 2Z" fill="#424242"/>
<path d="M395 92H341C336.05 92 332 87.95 332 83V42.5C332 37.55 336.05 33.5 341 33.5H395C399.95 33.5 404 37.55 404 42.5V83C404 87.95 399.95 92 395 92Z" fill="#FB8C00"/>
<path d="M60.8438 40.625L80.3438 83H73.25L66.9375 69.1875H49.1562L42.625 83H39.125L59.0938 40.625H60.8438ZM50.375 66.5H65.6562L58.125 50.0938L50.375 66.5ZM86.125 41.5625H90.0312L117.188 71.875H117.5V41.5625H120.562V83.9688H118.938L89.5312 50.2812H89.2812V83H86.125V41.5625ZM148.031 40.625L167.531 83H160.438L154.125 69.1875H136.344L129.812 83H126.312L146.281 40.625H148.031ZM137.562 66.5H152.844L145.312 50.0938L137.562 66.5ZM173.312 41.5625H177.219L204.375 71.875H204.688V41.5625H207.75V83.9688H206.125L176.719 50.2812H176.469V83H173.312V41.5625ZM219 41.5625H232.812C237.062 41.5625 240.719 41.9583 243.781 42.75C246.844 43.5417 249.396 44.8125 251.438 46.5625C253.771 48.5625 255.521 50.8542 256.688 53.4375C257.875 56.0208 258.469 58.8438 258.469 61.9062C258.469 64.8229 257.938 67.5625 256.875 70.125C255.833 72.6875 254.292 74.9271 252.25 76.8438C250.229 78.7396 247.719 80.2396 244.719 81.3438C241.74 82.4479 238.323 83 234.469 83H219V41.5625ZM225.969 79.9688H233.375C235.708 79.9688 237.906 79.5833 239.969 78.8125C242.031 78.0417 243.823 76.8958 245.344 75.375C246.885 73.8542 248.094 71.9896 248.969 69.7812C249.865 67.5521 250.312 64.9792 250.312 62.0625C250.312 59.5 249.896 57.1562 249.062 55.0312C248.229 52.8854 247.062 51.0417 245.562 49.5C244.062 47.9583 242.271 46.7604 240.188 45.9062C238.125 45.0521 235.865 44.625 233.406 44.625H225.969V79.9688ZM267.875 41.5625H274.844V83H267.875V41.5625ZM286.125 41.5625H290.031L317.188 71.875H317.5V41.5625H320.562V83.9688H318.938L289.531 50.2812H289.281V83H286.125V41.5625Z" fill="white"/>
<path d="M361.156 40.625L380.656 83H373.562L367.25 69.1875H349.469L342.938 83H339.438L359.406 40.625H361.156ZM350.688 66.5H365.969L358.438 50.0938L350.688 66.5ZM386.438 41.5625H393.406V83H386.438V41.5625Z" fill="black"/>
<path d="M48.438 101.392C48.438 101.98 48.576 102.508 48.852 102.976C49.14 103.432 49.518 103.792 49.986 104.056C50.454 104.32 50.982 104.452 51.57 104.452C52.182 104.452 52.728 104.32 53.208 104.056C53.688 103.792 54.066 103.432 54.342 102.976C54.618 102.508 54.756 101.98 54.756 101.392V92.986H56.466V101.446C56.466 102.394 56.244 103.222 55.8 103.93C55.368 104.638 54.78 105.184 54.036 105.568C53.304 105.952 52.482 106.144 51.57 106.144C50.658 106.144 49.836 105.952 49.104 105.568C48.372 105.184 47.79 104.638 47.358 103.93C46.926 103.222 46.71 102.394 46.71 101.446V92.986H48.438V101.392ZM61.118 98.548L61.262 100.366L61.19 100.078C61.43 99.526 61.82 99.088 62.36 98.764C62.9 98.428 63.524 98.26 64.232 98.26C64.94 98.26 65.516 98.47 65.96 98.89C66.416 99.298 66.65 99.832 66.662 100.492V106H64.97V101.086C64.958 100.678 64.838 100.348 64.61 100.096C64.394 99.832 64.052 99.7 63.584 99.7C63.152 99.7 62.762 99.82 62.414 100.06C62.066 100.3 61.79 100.63 61.586 101.05C61.394 101.47 61.298 101.956 61.298 102.508V106H59.624V98.548H61.118ZM69.5732 92.068H71.2472V106H69.5732V92.068ZM73.4955 102.202C73.4955 101.458 73.6695 100.786 74.0175 100.186C74.3775 99.586 74.8695 99.112 75.4935 98.764C76.1175 98.416 76.8255 98.242 77.6175 98.242C78.4335 98.242 79.1475 98.416 79.7595 98.764C80.3715 99.112 80.8455 99.586 81.1815 100.186C81.5175 100.786 81.6855 101.458 81.6855 102.202C81.6855 102.946 81.5175 103.624 81.1815 104.236C80.8455 104.836 80.3655 105.31 79.7415 105.658C79.1295 106.006 78.4155 106.18 77.5995 106.18C76.8075 106.18 76.0995 106.018 75.4755 105.694C74.8635 105.358 74.3775 104.896 74.0175 104.308C73.6695 103.708 73.4955 103.006 73.4955 102.202ZM75.1695 102.22C75.1695 102.7 75.2775 103.138 75.4935 103.534C75.7095 103.918 75.9975 104.224 76.3575 104.452C76.7295 104.68 77.1375 104.794 77.5815 104.794C78.0495 104.794 78.4635 104.68 78.8235 104.452C79.1955 104.224 79.4835 103.918 79.6875 103.534C79.8915 103.138 79.9935 102.7 79.9935 102.22C79.9935 101.74 79.8915 101.308 79.6875 100.924C79.4835 100.528 79.1955 100.216 78.8235 99.988C78.4635 99.748 78.0495 99.628 77.5815 99.628C77.1255 99.628 76.7115 99.748 76.3395 99.988C75.9795 100.228 75.6915 100.546 75.4755 100.942C75.2715 101.326 75.1695 101.752 75.1695 102.22ZM90.0001 105.316C89.6641 105.58 89.2621 105.79 88.7941 105.946C88.3261 106.102 87.8581 106.18 87.3901 106.18C86.5741 106.18 85.8601 106.018 85.2481 105.694C84.6361 105.37 84.1561 104.92 83.8081 104.344C83.4721 103.756 83.3041 103.066 83.3041 102.274C83.3041 101.482 83.4841 100.792 83.8441 100.204C84.2161 99.616 84.6961 99.166 85.2841 98.854C85.8841 98.53 86.5261 98.368 87.2101 98.368C87.8101 98.368 88.3441 98.452 88.8121 98.62C89.2921 98.788 89.7001 99.016 90.0361 99.304L89.2081 100.384C88.9921 100.216 88.7281 100.066 88.4161 99.934C88.1041 99.802 87.7501 99.736 87.3541 99.736C86.9221 99.736 86.5201 99.85 86.1481 100.078C85.7881 100.294 85.5001 100.594 85.2841 100.978C85.0801 101.362 84.9781 101.794 84.9781 102.274C84.9781 102.73 85.0861 103.156 85.3021 103.552C85.5181 103.936 85.8181 104.242 86.2021 104.47C86.5861 104.686 87.0241 104.794 87.5161 104.794C87.8401 104.794 88.1341 104.746 88.3981 104.65C88.6741 104.554 88.9201 104.422 89.1361 104.254L90.0001 105.316ZM92.1611 106V92.068H93.8351V106H92.1611ZM95.6351 101.05L99.0551 106H97.0931L94.5191 101.986L95.6351 101.05ZM93.3131 103.624L93.1511 102.022L97.6691 98.386L98.6951 99.268L93.3131 103.624ZM101.126 98.548H102.8V106H101.126V98.548ZM101 95.848C101 95.584 101.102 95.362 101.306 95.182C101.522 95.002 101.756 94.912 102.008 94.912C102.26 94.912 102.482 95.002 102.674 95.182C102.878 95.362 102.98 95.584 102.98 95.848C102.98 96.124 102.878 96.352 102.674 96.532C102.482 96.7 102.26 96.784 102.008 96.784C101.756 96.784 101.522 96.694 101.306 96.514C101.102 96.334 101 96.112 101 95.848ZM107.19 98.548L107.334 100.366L107.262 100.078C107.502 99.526 107.892 99.088 108.432 98.764C108.972 98.428 109.596 98.26 110.304 98.26C111.012 98.26 111.588 98.47 112.032 98.89C112.488 99.298 112.722 99.832 112.734 100.492V106H111.042V101.086C111.03 100.678 110.91 100.348 110.682 100.096C110.466 99.832 110.124 99.7 109.656 99.7C109.224 99.7 108.834 99.82 108.486 100.06C108.138 100.3 107.862 100.63 107.658 101.05C107.466 101.47 107.37 101.956 107.37 102.508V106H105.696V98.548H107.19ZM119.228 109.69C118.676 109.69 118.19 109.624 117.77 109.492C117.35 109.372 116.966 109.198 116.618 108.97C116.282 108.742 115.958 108.484 115.646 108.196L116.618 107.062C117.014 107.434 117.416 107.722 117.824 107.926C118.232 108.13 118.688 108.232 119.192 108.232C119.756 108.232 120.23 108.136 120.614 107.944C121.01 107.764 121.31 107.506 121.514 107.17C121.718 106.846 121.82 106.468 121.82 106.036L121.838 104.02L121.982 104.344C121.766 104.86 121.376 105.298 120.812 105.658C120.248 106.006 119.564 106.18 118.76 106.18C118.076 106.18 117.446 106.006 116.87 105.658C116.306 105.31 115.85 104.842 115.502 104.254C115.166 103.654 114.998 102.982 114.998 102.238C114.998 101.458 115.178 100.774 115.538 100.186C115.898 99.586 116.372 99.112 116.96 98.764C117.548 98.416 118.19 98.242 118.886 98.242C119.546 98.242 120.146 98.38 120.686 98.656C121.238 98.92 121.64 99.262 121.892 99.682L121.802 99.988L121.982 98.548H123.512V106.054C123.512 106.726 123.338 107.338 122.99 107.89C122.642 108.442 122.15 108.88 121.514 109.204C120.878 109.528 120.116 109.69 119.228 109.69ZM116.672 102.202C116.672 102.682 116.786 103.12 117.014 103.516C117.242 103.912 117.548 104.224 117.932 104.452C118.328 104.68 118.766 104.794 119.246 104.794C119.69 104.794 120.086 104.716 120.434 104.56C120.794 104.392 121.094 104.17 121.334 103.894C121.574 103.606 121.742 103.276 121.838 102.904V101.428C121.73 101.068 121.55 100.756 121.298 100.492C121.046 100.216 120.746 100.006 120.398 99.862C120.05 99.706 119.666 99.628 119.246 99.628C118.766 99.628 118.328 99.736 117.932 99.952C117.548 100.168 117.242 100.474 117.014 100.87C116.786 101.254 116.672 101.698 116.672 102.202ZM132.513 92.986H134.259V106H132.513V92.986ZM139.077 98.548L139.221 100.366L139.149 100.078C139.389 99.526 139.779 99.088 140.319 98.764C140.859 98.428 141.483 98.26 142.191 98.26C142.899 98.26 143.475 98.47 143.919 98.89C144.375 99.298 144.609 99.832 144.621 100.492V106H142.929V101.086C142.917 100.678 142.797 100.348 142.569 100.096C142.353 99.832 142.011 99.7 141.543 99.7C141.111 99.7 140.721 99.82 140.373 100.06C140.025 100.3 139.749 100.63 139.545 101.05C139.353 101.47 139.257 101.956 139.257 102.508V106H137.583V98.548H139.077ZM149.62 106.144C149.092 106.144 148.576 106.054 148.072 105.874C147.58 105.682 147.172 105.4 146.848 105.028L147.55 104.056C147.862 104.356 148.18 104.584 148.504 104.74C148.84 104.884 149.17 104.956 149.494 104.956C149.734 104.956 149.956 104.926 150.16 104.866C150.364 104.806 150.526 104.71 150.646 104.578C150.778 104.434 150.844 104.242 150.844 104.002C150.844 103.738 150.754 103.528 150.574 103.372C150.406 103.216 150.184 103.09 149.908 102.994C149.644 102.898 149.362 102.808 149.062 102.724C148.45 102.52 147.982 102.238 147.658 101.878C147.334 101.518 147.172 101.08 147.172 100.564C147.172 100.168 147.268 99.802 147.46 99.466C147.664 99.118 147.958 98.836 148.342 98.62C148.738 98.404 149.224 98.296 149.8 98.296C150.316 98.296 150.778 98.362 151.186 98.494C151.594 98.614 151.978 98.818 152.338 99.106L151.672 100.15C151.456 99.922 151.198 99.754 150.898 99.646C150.598 99.538 150.328 99.478 150.088 99.466C149.884 99.454 149.686 99.484 149.494 99.556C149.314 99.628 149.164 99.73 149.044 99.862C148.924 99.994 148.864 100.15 148.864 100.33C148.864 100.582 148.948 100.786 149.116 100.942C149.284 101.098 149.5 101.224 149.764 101.32C150.04 101.404 150.31 101.494 150.574 101.59C150.946 101.698 151.276 101.842 151.564 102.022C151.852 102.202 152.08 102.424 152.248 102.688C152.428 102.952 152.518 103.282 152.518 103.678C152.518 104.122 152.41 104.536 152.194 104.92C151.99 105.292 151.672 105.592 151.24 105.82C150.82 106.036 150.28 106.144 149.62 106.144ZM154.862 98.548H156.536V106H154.862V98.548ZM154.736 95.848C154.736 95.584 154.838 95.362 155.042 95.182C155.258 95.002 155.492 94.912 155.744 94.912C155.996 94.912 156.218 95.002 156.41 95.182C156.614 95.362 156.716 95.584 156.716 95.848C156.716 96.124 156.614 96.352 156.41 96.532C156.218 96.7 155.996 96.784 155.744 96.784C155.492 96.784 155.258 96.694 155.042 96.514C154.838 96.334 154.736 96.112 154.736 95.848ZM163.015 109.69C162.463 109.69 161.977 109.624 161.557 109.492C161.137 109.372 160.753 109.198 160.405 108.97C160.069 108.742 159.745 108.484 159.433 108.196L160.405 107.062C160.801 107.434 161.203 107.722 161.611 107.926C162.019 108.13 162.475 108.232 162.979 108.232C163.543 108.232 164.017 108.136 164.401 107.944C164.797 107.764 165.097 107.506 165.301 107.17C165.505 106.846 165.607 106.468 165.607 106.036L165.625 104.02L165.769 104.344C165.553 104.86 165.163 105.298 164.599 105.658C164.035 106.006 163.351 106.18 162.547 106.18C161.863 106.18 161.233 106.006 160.657 105.658C160.093 105.31 159.637 104.842 159.289 104.254C158.953 103.654 158.785 102.982 158.785 102.238C158.785 101.458 158.965 100.774 159.325 100.186C159.685 99.586 160.159 99.112 160.747 98.764C161.335 98.416 161.977 98.242 162.673 98.242C163.333 98.242 163.933 98.38 164.473 98.656C165.025 98.92 165.427 99.262 165.679 99.682L165.589 99.988L165.769 98.548H167.299V106.054C167.299 106.726 167.125 107.338 166.777 107.89C166.429 108.442 165.937 108.88 165.301 109.204C164.665 109.528 163.903 109.69 163.015 109.69ZM160.459 102.202C160.459 102.682 160.573 103.12 160.801 103.516C161.029 103.912 161.335 104.224 161.719 104.452C162.115 104.68 162.553 104.794 163.033 104.794C163.477 104.794 163.873 104.716 164.221 104.56C164.581 104.392 164.881 104.17 165.121 103.894C165.361 103.606 165.529 103.276 165.625 102.904V101.428C165.517 101.068 165.337 100.756 165.085 100.492C164.833 100.216 164.533 100.006 164.185 99.862C163.837 99.706 163.453 99.628 163.033 99.628C162.553 99.628 162.115 99.736 161.719 99.952C161.335 100.168 161.029 100.474 160.801 100.87C160.573 101.254 160.459 101.698 160.459 102.202ZM170.19 106V92.068H171.828V100.276L171.792 99.97C172.044 99.478 172.428 99.07 172.944 98.746C173.472 98.422 174.09 98.26 174.798 98.26C175.506 98.26 176.082 98.47 176.526 98.89C176.982 99.298 177.216 99.832 177.228 100.492V106H175.536V101.086C175.524 100.678 175.404 100.348 175.176 100.096C174.96 99.832 174.618 99.7 174.15 99.7C173.718 99.7 173.328 99.826 172.98 100.078C172.632 100.318 172.356 100.648 172.152 101.068C171.96 101.488 171.864 101.968 171.864 102.508V106H170.19ZM180.86 95.272H182.534V98.584H184.586V99.898H182.534V106H180.86V99.898H179.492V98.584H180.86V95.272ZM188.696 106.144C188.168 106.144 187.652 106.054 187.148 105.874C186.656 105.682 186.248 105.4 185.924 105.028L186.626 104.056C186.938 104.356 187.256 104.584 187.58 104.74C187.916 104.884 188.246 104.956 188.57 104.956C188.81 104.956 189.032 104.926 189.236 104.866C189.44 104.806 189.602 104.71 189.722 104.578C189.854 104.434 189.92 104.242 189.92 104.002C189.92 103.738 189.83 103.528 189.65 103.372C189.482 103.216 189.26 103.09 188.984 102.994C188.72 102.898 188.438 102.808 188.138 102.724C187.526 102.52 187.058 102.238 186.734 101.878C186.41 101.518 186.248 101.08 186.248 100.564C186.248 100.168 186.344 99.802 186.536 99.466C186.74 99.118 187.034 98.836 187.418 98.62C187.814 98.404 188.3 98.296 188.876 98.296C189.392 98.296 189.854 98.362 190.262 98.494C190.67 98.614 191.054 98.818 191.414 99.106L190.748 100.15C190.532 99.922 190.274 99.754 189.974 99.646C189.674 99.538 189.404 99.478 189.164 99.466C188.96 99.454 188.762 99.484 188.57 99.556C188.39 99.628 188.24 99.73 188.12 99.862C188 99.994 187.94 100.15 187.94 100.33C187.94 100.582 188.024 100.786 188.192 100.942C188.36 101.098 188.576 101.224 188.84 101.32C189.116 101.404 189.386 101.494 189.65 101.59C190.022 101.698 190.352 101.842 190.64 102.022C190.928 102.202 191.156 102.424 191.324 102.688C191.504 102.952 191.594 103.282 191.594 103.678C191.594 104.122 191.486 104.536 191.27 104.92C191.066 105.292 190.748 105.592 190.316 105.82C189.896 106.036 189.356 106.144 188.696 106.144ZM195.45 104.434C195.186 105.058 194.922 105.676 194.658 106.288C194.406 106.912 194.148 107.542 193.884 108.178H192.534C192.774 107.542 193.008 106.912 193.236 106.288C193.464 105.676 193.698 105.058 193.938 104.434H195.45ZM203.704 92.986H212.164V94.66H205.45V98.62H211.444V100.294H205.45V104.326H212.416V106H203.704V92.986ZM216.526 98.548L216.67 100.222L216.598 100.078C216.874 99.514 217.264 99.07 217.768 98.746C218.284 98.422 218.872 98.26 219.532 98.26C219.952 98.26 220.324 98.326 220.648 98.458C220.972 98.59 221.236 98.782 221.44 99.034C221.656 99.274 221.794 99.574 221.854 99.934L221.764 99.988C222.052 99.448 222.448 99.028 222.952 98.728C223.468 98.416 224.008 98.26 224.572 98.26C225.304 98.26 225.88 98.47 226.3 98.89C226.732 99.298 226.954 99.832 226.966 100.492V106H225.292V101.086C225.28 100.702 225.184 100.384 225.004 100.132C224.836 99.868 224.536 99.724 224.104 99.7C223.672 99.7 223.282 99.832 222.934 100.096C222.598 100.36 222.334 100.702 222.142 101.122C221.95 101.53 221.848 101.974 221.836 102.454V106H220.162V101.086C220.15 100.702 220.048 100.384 219.856 100.132C219.676 99.868 219.37 99.724 218.938 99.7C218.494 99.7 218.104 99.832 217.768 100.096C217.432 100.36 217.168 100.702 216.976 101.122C216.796 101.542 216.706 101.992 216.706 102.472V106H215.032V98.548H216.526ZM234.278 106.18C233.714 106.18 233.168 106.048 232.64 105.784C232.124 105.52 231.722 105.166 231.434 104.722L231.542 104.2V109.582H229.886V98.44H231.326L231.56 100.348L231.38 99.826C231.74 99.37 232.196 98.992 232.748 98.692C233.3 98.392 233.918 98.242 234.602 98.242C235.298 98.242 235.922 98.41 236.474 98.746C237.038 99.082 237.482 99.55 237.806 100.15C238.13 100.75 238.292 101.452 238.292 102.256C238.292 103.06 238.118 103.756 237.77 104.344C237.422 104.932 236.942 105.388 236.33 105.712C235.73 106.024 235.046 106.18 234.278 106.18ZM233.954 104.848C234.434 104.848 234.872 104.74 235.268 104.524C235.676 104.296 236 103.99 236.24 103.606C236.48 103.21 236.6 102.766 236.6 102.274C236.6 101.77 236.486 101.326 236.258 100.942C236.03 100.546 235.724 100.234 235.34 100.006C234.968 99.778 234.548 99.664 234.08 99.664C233.648 99.664 233.258 99.748 232.91 99.916C232.562 100.084 232.274 100.318 232.046 100.618C231.818 100.906 231.656 101.242 231.56 101.626V102.868C231.62 103.252 231.764 103.594 231.992 103.894C232.22 104.194 232.502 104.428 232.838 104.596C233.186 104.764 233.558 104.848 233.954 104.848ZM239.908 102.202C239.908 101.458 240.082 100.786 240.43 100.186C240.79 99.586 241.282 99.112 241.906 98.764C242.53 98.416 243.238 98.242 244.03 98.242C244.846 98.242 245.56 98.416 246.172 98.764C246.784 99.112 247.258 99.586 247.594 100.186C247.93 100.786 248.098 101.458 248.098 102.202C248.098 102.946 247.93 103.624 247.594 104.236C247.258 104.836 246.778 105.31 246.154 105.658C245.542 106.006 244.828 106.18 244.012 106.18C243.22 106.18 242.512 106.018 241.888 105.694C241.276 105.358 240.79 104.896 240.43 104.308C240.082 103.708 239.908 103.006 239.908 102.202ZM241.582 102.22C241.582 102.7 241.69 103.138 241.906 103.534C242.122 103.918 242.41 104.224 242.77 104.452C243.142 104.68 243.55 104.794 243.994 104.794C244.462 104.794 244.876 104.68 245.236 104.452C245.608 104.224 245.896 103.918 246.1 103.534C246.304 103.138 246.406 102.7 246.406 102.22C246.406 101.74 246.304 101.308 246.1 100.924C245.896 100.528 245.608 100.216 245.236 99.988C244.876 99.748 244.462 99.628 243.994 99.628C243.538 99.628 243.124 99.748 242.752 99.988C242.392 100.228 242.104 100.546 241.888 100.942C241.684 101.326 241.582 101.752 241.582 102.22ZM254.906 98.548L257.102 103.57L256.778 103.606L258.83 98.548H260.468L257.048 106.45L254.654 101.338L252.476 106.45L249.02 98.548H250.658L252.98 103.804L252.404 103.696L254.06 99.844L253.466 98.548H254.906ZM265.545 106.18C264.693 106.18 263.961 106.012 263.349 105.676C262.737 105.328 262.263 104.86 261.927 104.272C261.603 103.672 261.441 102.988 261.441 102.22C261.441 101.488 261.627 100.822 261.999 100.222C262.371 99.622 262.869 99.142 263.493 98.782C264.117 98.422 264.813 98.242 265.581 98.242C266.565 98.242 267.381 98.53 268.029 99.106C268.677 99.682 269.115 100.474 269.343 101.482L263.205 103.642L262.809 102.652L267.849 100.816L267.489 101.05C267.345 100.654 267.105 100.312 266.769 100.024C266.433 99.724 265.995 99.574 265.455 99.574C264.999 99.574 264.591 99.688 264.231 99.916C263.871 100.132 263.589 100.432 263.385 100.816C263.181 101.2 263.079 101.638 263.079 102.13C263.079 102.646 263.187 103.102 263.403 103.498C263.619 103.882 263.913 104.188 264.285 104.416C264.669 104.632 265.101 104.74 265.581 104.74C265.905 104.74 266.217 104.68 266.517 104.56C266.829 104.44 267.117 104.284 267.381 104.092L268.155 105.334C267.783 105.586 267.363 105.79 266.895 105.946C266.439 106.102 265.989 106.18 265.545 106.18ZM272.934 98.548L273.096 100.708L273.006 100.42C273.198 99.964 273.474 99.58 273.834 99.268C274.206 98.944 274.59 98.698 274.986 98.53C275.394 98.35 275.748 98.26 276.048 98.26L275.958 99.916C275.394 99.88 274.896 99.988 274.464 100.24C274.044 100.492 273.708 100.828 273.456 101.248C273.216 101.668 273.096 102.118 273.096 102.598V106H271.44V98.548H272.934ZM278.208 98.548H279.882V106H278.208V98.548ZM278.082 95.848C278.082 95.584 278.184 95.362 278.388 95.182C278.604 95.002 278.838 94.912 279.09 94.912C279.342 94.912 279.564 95.002 279.756 95.182C279.96 95.362 280.062 95.584 280.062 95.848C280.062 96.124 279.96 96.352 279.756 96.532C279.564 96.7 279.342 96.784 279.09 96.784C278.838 96.784 278.604 96.694 278.388 96.514C278.184 96.334 278.082 96.112 278.082 95.848ZM284.272 98.548L284.416 100.366L284.344 100.078C284.584 99.526 284.974 99.088 285.514 98.764C286.054 98.428 286.678 98.26 287.386 98.26C288.094 98.26 288.67 98.47 289.114 98.89C289.57 99.298 289.804 99.832 289.816 100.492V106H288.124V101.086C288.112 100.678 287.992 100.348 287.764 100.096C287.548 99.832 287.206 99.7 286.738 99.7C286.306 99.7 285.916 99.82 285.568 100.06C285.22 100.3 284.944 100.63 284.74 101.05C284.548 101.47 284.452 101.956 284.452 102.508V106H282.778V98.548H284.272ZM296.31 109.69C295.758 109.69 295.272 109.624 294.852 109.492C294.432 109.372 294.048 109.198 293.7 108.97C293.364 108.742 293.04 108.484 292.728 108.196L293.7 107.062C294.096 107.434 294.498 107.722 294.906 107.926C295.314 108.13 295.77 108.232 296.274 108.232C296.838 108.232 297.312 108.136 297.696 107.944C298.092 107.764 298.392 107.506 298.596 107.17C298.8 106.846 298.902 106.468 298.902 106.036L298.92 104.02L299.064 104.344C298.848 104.86 298.458 105.298 297.894 105.658C297.33 106.006 296.646 106.18 295.842 106.18C295.158 106.18 294.528 106.006 293.952 105.658C293.388 105.31 292.932 104.842 292.584 104.254C292.248 103.654 292.08 102.982 292.08 102.238C292.08 101.458 292.26 100.774 292.62 100.186C292.98 99.586 293.454 99.112 294.042 98.764C294.63 98.416 295.272 98.242 295.968 98.242C296.628 98.242 297.228 98.38 297.768 98.656C298.32 98.92 298.722 99.262 298.974 99.682L298.884 99.988L299.064 98.548H300.594V106.054C300.594 106.726 300.42 107.338 300.072 107.89C299.724 108.442 299.232 108.88 298.596 109.204C297.96 109.528 297.198 109.69 296.31 109.69ZM293.754 102.202C293.754 102.682 293.868 103.12 294.096 103.516C294.324 103.912 294.63 104.224 295.014 104.452C295.41 104.68 295.848 104.794 296.328 104.794C296.772 104.794 297.168 104.716 297.516 104.56C297.876 104.392 298.176 104.17 298.416 103.894C298.656 103.606 298.824 103.276 298.92 102.904V101.428C298.812 101.068 298.632 100.756 298.38 100.492C298.128 100.216 297.828 100.006 297.48 99.862C297.132 99.706 296.748 99.628 296.328 99.628C295.848 99.628 295.41 99.736 295.014 99.952C294.63 100.168 294.324 100.474 294.096 100.87C293.868 101.254 293.754 101.698 293.754 102.202ZM309.595 92.986H311.341V106H309.595V92.986ZM316.159 98.548L316.303 100.366L316.231 100.078C316.471 99.526 316.861 99.088 317.401 98.764C317.941 98.428 318.565 98.26 319.273 98.26C319.981 98.26 320.557 98.47 321.001 98.89C321.457 99.298 321.691 99.832 321.703 100.492V106H320.011V101.086C319.999 100.678 319.879 100.348 319.651 100.096C319.435 99.832 319.093 99.7 318.625 99.7C318.193 99.7 317.803 99.82 317.455 100.06C317.107 100.3 316.831 100.63 316.627 101.05C316.435 101.47 316.339 101.956 316.339 102.508V106H314.665V98.548H316.159ZM326.108 98.548L326.252 100.366L326.18 100.078C326.42 99.526 326.81 99.088 327.35 98.764C327.89 98.428 328.514 98.26 329.222 98.26C329.93 98.26 330.506 98.47 330.95 98.89C331.406 99.298 331.64 99.832 331.652 100.492V106H329.96V101.086C329.948 100.678 329.828 100.348 329.6 100.096C329.384 99.832 329.042 99.7 328.574 99.7C328.142 99.7 327.752 99.82 327.404 100.06C327.056 100.3 326.78 100.63 326.576 101.05C326.384 101.47 326.288 101.956 326.288 102.508V106H324.614V98.548H326.108ZM333.915 102.202C333.915 101.458 334.089 100.786 334.437 100.186C334.797 99.586 335.289 99.112 335.913 98.764C336.537 98.416 337.245 98.242 338.037 98.242C338.853 98.242 339.567 98.416 340.179 98.764C340.791 99.112 341.265 99.586 341.601 100.186C341.937 100.786 342.105 101.458 342.105 102.202C342.105 102.946 341.937 103.624 341.601 104.236C341.265 104.836 340.785 105.31 340.161 105.658C339.549 106.006 338.835 106.18 338.019 106.18C337.227 106.18 336.519 106.018 335.895 105.694C335.283 105.358 334.797 104.896 334.437 104.308C334.089 103.708 333.915 103.006 333.915 102.202ZM335.589 102.22C335.589 102.7 335.697 103.138 335.913 103.534C336.129 103.918 336.417 104.224 336.777 104.452C337.149 104.68 337.557 104.794 338.001 104.794C338.469 104.794 338.883 104.68 339.243 104.452C339.615 104.224 339.903 103.918 340.107 103.534C340.311 103.138 340.413 102.7 340.413 102.22C340.413 101.74 340.311 101.308 340.107 100.924C339.903 100.528 339.615 100.216 339.243 99.988C338.883 99.748 338.469 99.628 338.001 99.628C337.545 99.628 337.131 99.748 336.759 99.988C336.399 100.228 336.111 100.546 335.895 100.942C335.691 101.326 335.589 101.752 335.589 102.22ZM347.168 106.216L343.028 98.548H345.008L347.816 104.47L346.79 104.434L349.364 98.548H351.236L347.258 106.216H347.168ZM355.835 106.18C355.139 106.18 354.503 106.03 353.927 105.73C353.363 105.43 352.913 104.992 352.577 104.416C352.253 103.828 352.091 103.114 352.091 102.274C352.091 101.446 352.265 100.732 352.613 100.132C352.961 99.52 353.423 99.052 353.999 98.728C354.587 98.404 355.229 98.242 355.925 98.242C356.621 98.242 357.209 98.404 357.689 98.728C358.169 99.04 358.535 99.412 358.787 99.844L358.679 100.132L358.841 98.548H360.389V106H358.715V104.056L358.895 104.488C358.847 104.608 358.739 104.764 358.571 104.956C358.415 105.136 358.199 105.322 357.923 105.514C357.659 105.706 357.353 105.868 357.005 106C356.657 106.12 356.267 106.18 355.835 106.18ZM356.285 104.794C356.705 104.794 357.083 104.716 357.419 104.56C357.755 104.404 358.031 104.188 358.247 103.912C358.475 103.624 358.631 103.282 358.715 102.886V101.428C358.619 101.068 358.451 100.756 358.211 100.492C357.971 100.216 357.683 100.006 357.347 99.862C357.011 99.706 356.639 99.628 356.231 99.628C355.787 99.628 355.379 99.736 355.007 99.952C354.635 100.168 354.335 100.468 354.107 100.852C353.891 101.236 353.783 101.686 353.783 102.202C353.783 102.682 353.897 103.12 354.125 103.516C354.353 103.912 354.659 104.224 355.043 104.452C355.427 104.68 355.841 104.794 356.285 104.794ZM364.006 95.272H365.68V98.584H367.732V99.898H365.68V106H364.006V99.898H362.638V98.584H364.006V95.272ZM369.755 98.548H371.429V106H369.755V98.548ZM369.629 95.848C369.629 95.584 369.731 95.362 369.935 95.182C370.151 95.002 370.385 94.912 370.637 94.912C370.889 94.912 371.111 95.002 371.303 95.182C371.507 95.362 371.609 95.584 371.609 95.848C371.609 96.124 371.507 96.352 371.303 96.532C371.111 96.7 370.889 96.784 370.637 96.784C370.385 96.784 370.151 96.694 369.935 96.514C369.731 96.334 369.629 96.112 369.629 95.848ZM373.677 102.202C373.677 101.458 373.851 100.786 374.199 100.186C374.559 99.586 375.051 99.112 375.675 98.764C376.299 98.416 377.007 98.242 377.799 98.242C378.615 98.242 379.329 98.416 379.941 98.764C380.553 99.112 381.027 99.586 381.363 100.186C381.699 100.786 381.867 101.458 381.867 102.202C381.867 102.946 381.699 103.624 381.363 104.236C381.027 104.836 380.547 105.31 379.923 105.658C379.311 106.006 378.597 106.18 377.781 106.18C376.989 106.18 376.281 106.018 375.657 105.694C375.045 105.358 374.559 104.896 374.199 104.308C373.851 103.708 373.677 103.006 373.677 102.202ZM375.351 102.22C375.351 102.7 375.459 103.138 375.675 103.534C375.891 103.918 376.179 104.224 376.539 104.452C376.911 104.68 377.319 104.794 377.763 104.794C378.231 104.794 378.645 104.68 379.005 104.452C379.377 104.224 379.665 103.918 379.869 103.534C380.073 103.138 380.175 102.7 380.175 102.22C380.175 101.74 380.073 101.308 379.869 100.924C379.665 100.528 379.377 100.216 379.005 99.988C378.645 99.748 378.231 99.628 377.763 99.628C377.307 99.628 376.893 99.748 376.521 99.988C376.161 100.228 375.873 100.546 375.657 100.942C375.453 101.326 375.351 101.752 375.351 102.22ZM385.628 98.548L385.772 100.366L385.7 100.078C385.94 99.526 386.33 99.088 386.87 98.764C387.41 98.428 388.034 98.26 388.742 98.26C389.45 98.26 390.026 98.47 390.47 98.89C390.926 99.298 391.16 99.832 391.172 100.492V106H389.48V101.086C389.468 100.678 389.348 100.348 389.12 100.096C388.904 99.832 388.562 99.7 388.094 99.7C387.662 99.7 387.272 99.82 386.924 100.06C386.576 100.3 386.3 100.63 386.096 101.05C385.904 101.47 385.808 101.956 385.808 102.508V106H384.134V98.548H385.628Z" fill="white"/>
</g>
<defs>
<clipPath id="clip0_36_2">
<rect width="437" height="126" fill="white"/>
</clipPath>
</defs>
</svg>
