<svg width="200" height="58" viewBox="0 0 200 58" fill="none" xmlns="http://www.w3.org/2000/svg">
<rect width="200" height="57.4175" rx="11.0242" fill="white"/>
<rect x="18" y="12" width="33" height="33" rx="7" fill="#60D669"/>
<path d="M21.1086 28.9731C21.108 31.2593 21.7054 33.4917 22.8413 35.4593L21 42.1821L27.8799 40.3782C29.7828 41.4141 31.9149 41.9569 34.0815 41.957H34.0872C41.2396 41.957 47.0618 36.1369 47.0648 28.9833C47.0662 25.5169 45.7175 22.2573 43.267 19.8049C40.817 17.3527 37.5585 16.0016 34.0867 16C26.9335 16 21.1117 21.8198 21.1087 28.9731" fill="url(#paint0_linear_37_9)"/>
<path d="M21.1129 28.4384C21.1121 30.8069 21.7309 33.1191 22.9073 35.1572L21 42.121L28.1266 40.2524C30.0902 41.323 32.3011 41.8875 34.5507 41.8883H34.5565C41.9655 41.8883 47.9968 35.8589 48 28.4492C48.0013 24.8582 46.604 21.4814 44.066 18.9412C41.5277 16.4013 38.1527 15.0015 34.5565 15C27.1463 15 21.1158 21.0286 21.1129 28.4384ZM25.357 34.8062L25.0909 34.3838C23.9723 32.6052 23.3819 30.5498 23.3827 28.4392C23.3851 22.2804 28.3974 17.2697 34.5608 17.2697C37.5455 17.271 40.3506 18.4345 42.4604 20.5455C44.5701 22.6568 45.7309 25.4633 45.7302 28.4483C45.7275 34.6072 40.7151 39.6185 34.5565 39.6185H34.5521C32.5468 39.6175 30.5801 39.0789 28.865 38.0613L28.4569 37.8192L24.2278 38.928L25.357 34.8062Z" fill="url(#paint1_linear_37_9)"/>
<path d="M30.471 22.5882C30.2193 22.0289 29.9545 22.0176 29.7152 22.0078C29.5192 21.9994 29.2952 22 29.0714 22C28.8474 22 28.4834 22.0843 28.1758 22.4202C27.8678 22.7564 27 23.569 27 25.2216C27 26.8742 28.2037 28.4714 28.3715 28.6957C28.5395 28.9196 30.6953 32.4195 34.1095 33.7659C36.9471 34.8848 37.5245 34.6623 38.1404 34.6061C38.7563 34.5503 40.1278 33.7938 40.4076 33.0095C40.6876 32.2252 40.6876 31.5529 40.6037 31.4125C40.5197 31.2725 40.2957 31.1884 39.9598 31.0205C39.6238 30.8525 37.9723 30.0399 37.6645 29.9278C37.3565 29.8158 37.1326 29.7599 36.9086 30.0962C36.6846 30.432 36.0413 31.1884 35.8452 31.4125C35.6494 31.637 35.4533 31.6649 35.1175 31.4969C34.7814 31.3284 33.6996 30.9741 32.4161 29.8299C31.4176 28.9395 30.7434 27.84 30.5474 27.5037C30.3515 27.1679 30.5265 26.9858 30.6949 26.8185C30.8458 26.6679 31.0309 26.4262 31.199 26.2301C31.3665 26.034 31.4224 25.894 31.5344 25.67C31.6465 25.4458 31.5904 25.2496 31.5066 25.0816C31.4224 24.9136 30.7697 23.2523 30.471 22.5882Z" fill="white"/>
<path d="M69.6026 36.2637L65.1976 24.6546H65.1258C65.1497 24.8998 65.1707 25.1988 65.1886 25.5517C65.2065 25.9046 65.2215 26.2904 65.2335 26.709C65.2454 27.1217 65.2514 27.5434 65.2514 27.974V36.2637H63.8339V23.1474H66.0947L70.2485 34.0567H70.3113L74.5279 23.1474H76.7708V36.2637H75.2636V27.8664C75.2636 27.4776 75.2695 27.0888 75.2815 26.7001C75.2935 26.3053 75.3084 25.9345 75.3264 25.5876C75.3443 25.2347 75.3623 24.9297 75.3802 24.6725H75.3084L70.8496 36.2637H69.6026ZM78.583 26.4309H80.1799L82.351 32.1368C82.4766 32.4717 82.5933 32.7947 82.7009 33.1057C82.8086 33.4107 82.9043 33.7038 82.988 33.9849C83.0717 34.266 83.1375 34.5382 83.1854 34.8013H83.2482C83.3319 34.5023 83.4515 34.1105 83.607 33.6261C83.7625 33.1356 83.93 32.6362 84.1094 32.1278L86.1639 26.4309H87.7698L83.4904 37.7081C83.2631 38.3122 82.997 38.8385 82.692 39.2871C82.3929 39.7356 82.0281 40.0795 81.5974 40.3188C81.1668 40.564 80.6465 40.6866 80.0364 40.6866C79.7553 40.6866 79.5071 40.6687 79.2918 40.6328C79.0764 40.6029 78.891 40.567 78.7355 40.5251V39.3319C78.8671 39.3618 79.0256 39.3887 79.211 39.4127C79.4024 39.4366 79.5998 39.4485 79.8031 39.4485C80.174 39.4485 80.4939 39.3768 80.7631 39.2332C81.0382 39.0957 81.2745 38.8923 81.4718 38.6232C81.6692 38.354 81.8397 38.034 81.9832 37.6632L82.5215 36.2816L78.583 26.4309ZM109.239 23.1474L105.731 36.2637H104.197L101.595 27.4357C101.517 27.1845 101.442 26.9333 101.371 26.6821C101.305 26.4249 101.242 26.1827 101.182 25.9554C101.122 25.7222 101.072 25.5188 101.03 25.3454C100.994 25.166 100.967 25.0314 100.949 24.9417C100.937 25.0314 100.913 25.163 100.877 25.3364C100.847 25.5099 100.805 25.7102 100.752 25.9375C100.704 26.1648 100.644 26.407 100.572 26.6642C100.506 26.9214 100.435 27.1815 100.357 27.4447L97.8268 36.2637H96.2927L92.8118 23.1474H94.3997L96.508 31.3742C96.5798 31.6493 96.6456 31.9215 96.7054 32.1906C96.7712 32.4538 96.828 32.711 96.8759 32.9622C96.9297 33.2134 96.9775 33.4586 97.0194 33.6978C97.0613 33.9371 97.1002 34.1703 97.136 34.3976C97.1659 34.1643 97.2048 33.9221 97.2527 33.6709C97.3005 33.4137 97.3514 33.1536 97.4052 32.8904C97.465 32.6272 97.5278 32.3611 97.5936 32.0919C97.6654 31.8228 97.7401 31.5536 97.8179 31.2845L100.177 23.1474H101.747L104.206 31.3473C104.289 31.6284 104.367 31.9065 104.439 32.1816C104.511 32.4568 104.573 32.7259 104.627 32.9891C104.687 33.2463 104.738 33.4945 104.78 33.7337C104.828 33.967 104.869 34.1883 104.905 34.3976C104.947 34.1045 104.998 33.7965 105.058 33.4735C105.118 33.1506 105.186 32.8126 105.264 32.4598C105.348 32.1069 105.438 31.742 105.533 31.3652L107.642 23.1474H109.239ZM112.576 22.304V26.4758C112.576 26.715 112.57 26.9573 112.558 27.2025C112.546 27.4417 112.525 27.663 112.495 27.8664H112.594C112.797 27.5195 113.054 27.2294 113.365 26.9961C113.682 26.7569 114.041 26.5775 114.442 26.4578C114.843 26.3322 115.267 26.2694 115.716 26.2694C116.505 26.2694 117.163 26.395 117.69 26.6462C118.222 26.8974 118.62 27.2862 118.883 27.8125C119.152 28.3389 119.287 29.0207 119.287 29.858V36.2637H117.815V29.9567C117.815 29.1373 117.627 28.5243 117.25 28.1176C116.879 27.7109 116.308 27.5075 115.537 27.5075C114.807 27.5075 114.224 27.6481 113.787 27.9292C113.356 28.2043 113.045 28.611 112.854 29.1493C112.669 29.6876 112.576 30.3455 112.576 31.123V36.2637H111.087V22.304H112.576ZM126.033 26.2694C127.205 26.2694 128.076 26.5326 128.644 27.0589C129.212 27.5853 129.496 28.4256 129.496 29.5799V36.2637H128.411L128.124 34.8103H128.052C127.777 35.1692 127.49 35.4712 127.19 35.7164C126.891 35.9557 126.545 36.1381 126.15 36.2637C125.761 36.3833 125.283 36.4431 124.714 36.4431C124.116 36.4431 123.584 36.3384 123.117 36.1291C122.657 35.9198 122.292 35.6028 122.023 35.1781C121.76 34.7535 121.628 34.2152 121.628 33.5633C121.628 32.5824 122.017 31.8288 122.794 31.3024C123.572 30.7761 124.756 30.489 126.347 30.4412L128.043 30.3694V29.7683C128.043 28.919 127.86 28.3239 127.496 27.983C127.131 27.6421 126.616 27.4716 125.952 27.4716C125.438 27.4716 124.948 27.5464 124.481 27.6959C124.015 27.8454 123.572 28.0219 123.153 28.2252L122.696 27.0948C123.138 26.8675 123.647 26.6732 124.221 26.5117C124.795 26.3502 125.399 26.2694 126.033 26.2694ZM128.025 31.4191L126.527 31.4819C125.301 31.5297 124.436 31.7301 123.934 32.083C123.431 32.4358 123.18 32.9353 123.18 33.5812C123.18 34.1434 123.351 34.5591 123.692 34.8282C124.033 35.0974 124.484 35.232 125.046 35.232C125.92 35.232 126.634 34.9897 127.19 34.5053C127.747 34.0208 128.025 33.2941 128.025 32.3252V31.4191ZM135.74 35.223C135.986 35.223 136.237 35.202 136.494 35.1602C136.751 35.1183 136.96 35.0675 137.122 35.0077V36.165C136.948 36.2427 136.706 36.3085 136.395 36.3624C136.09 36.4162 135.791 36.4431 135.498 36.4431C134.978 36.4431 134.505 36.3534 134.081 36.174C133.656 35.9885 133.315 35.6775 133.058 35.2409C132.807 34.8043 132.681 34.2002 132.681 33.4287V27.5972H131.281V26.8705L132.69 26.2874L133.282 24.1522H134.179V26.4309H137.059V27.5972H134.179V33.3838C134.179 33.9999 134.32 34.4604 134.601 34.7654C134.888 35.0705 135.268 35.223 135.74 35.223ZM145.474 33.5722C145.474 34.2002 145.316 34.7295 144.999 35.1602C144.688 35.5848 144.239 35.9048 143.653 36.1201C143.073 36.3354 142.379 36.4431 141.572 36.4431C140.884 36.4431 140.289 36.3893 139.786 36.2816C139.284 36.174 138.844 36.0214 138.468 35.8241V34.4514C138.868 34.6488 139.347 34.8282 139.903 34.9897C140.459 35.1512 141.028 35.232 141.608 35.232C142.457 35.232 143.073 35.0944 143.456 34.8193C143.839 34.5441 144.03 34.1703 144.03 33.6978C144.03 33.4287 143.952 33.1924 143.797 32.9891C143.647 32.7797 143.393 32.5794 143.034 32.388C142.675 32.1906 142.179 31.9753 141.545 31.742C140.917 31.5028 140.373 31.2666 139.912 31.0333C139.458 30.7941 139.105 30.504 138.853 30.1631C138.608 29.8221 138.486 29.3796 138.486 28.8353C138.486 28.0039 138.821 27.367 139.49 26.9244C140.166 26.4758 141.051 26.2515 142.146 26.2515C142.738 26.2515 143.291 26.3113 143.806 26.4309C144.326 26.5446 144.81 26.7001 145.259 26.8974L144.757 28.0907C144.35 27.9172 143.916 27.7707 143.456 27.6511C142.995 27.5314 142.526 27.4716 142.047 27.4716C141.359 27.4716 140.83 27.5853 140.459 27.8125C140.094 28.0398 139.912 28.3508 139.912 28.7456C139.912 29.0506 139.996 29.3018 140.163 29.4992C140.337 29.6965 140.612 29.882 140.989 30.0554C141.365 30.2289 141.862 30.4322 142.478 30.6655C143.094 30.8927 143.626 31.129 144.075 31.3742C144.523 31.6135 144.867 31.9065 145.107 32.2534C145.352 32.5943 145.474 33.0339 145.474 33.5722ZM151.548 26.2694C152.72 26.2694 153.591 26.5326 154.159 27.0589C154.727 27.5853 155.011 28.4256 155.011 29.5799V36.2637H153.926L153.638 34.8103H153.567C153.292 35.1692 153.004 35.4712 152.705 35.7164C152.406 35.9557 152.059 36.1381 151.665 36.2637C151.276 36.3833 150.797 36.4431 150.229 36.4431C149.631 36.4431 149.099 36.3384 148.632 36.1291C148.172 35.9198 147.807 35.6028 147.538 35.1781C147.275 34.7535 147.143 34.2152 147.143 33.5633C147.143 32.5824 147.532 31.8288 148.309 31.3024C149.087 30.7761 150.271 30.489 151.862 30.4412L153.558 30.3694V29.7683C153.558 28.919 153.375 28.3239 153.01 27.983C152.646 27.6421 152.131 27.4716 151.467 27.4716C150.953 27.4716 150.463 27.5464 149.996 27.6959C149.529 27.8454 149.087 28.0219 148.668 28.2252L148.211 27.0948C148.653 26.8675 149.162 26.6732 149.736 26.5117C150.31 26.3502 150.914 26.2694 151.548 26.2694ZM153.54 31.4191L152.041 31.4819C150.815 31.5297 149.951 31.7301 149.449 32.083C148.946 32.4358 148.695 32.9353 148.695 33.5812C148.695 34.1434 148.866 34.5591 149.207 34.8282C149.547 35.0974 149.999 35.232 150.561 35.232C151.434 35.232 152.149 34.9897 152.705 34.5053C153.262 34.0208 153.54 33.2941 153.54 32.3252V31.4191ZM162.7 26.2515C163.926 26.2515 164.904 26.6732 165.633 27.5165C166.363 28.3598 166.728 29.6278 166.728 31.3204C166.728 32.4388 166.56 33.3778 166.225 34.1374C165.89 34.897 165.418 35.4712 164.808 35.86C164.204 36.2487 163.489 36.4431 162.664 36.4431C162.143 36.4431 161.686 36.3743 161.291 36.2368C160.896 36.0992 160.558 35.9138 160.277 35.6805C159.996 35.4473 159.763 35.1931 159.578 34.9179H159.47C159.488 35.1512 159.509 35.4323 159.533 35.7613C159.563 36.0902 159.578 36.3773 159.578 36.6225V40.6597H158.079V26.4309H159.308L159.506 27.8843H159.578C159.769 27.5853 160.002 27.3131 160.277 27.0679C160.552 26.8167 160.887 26.6193 161.282 26.4758C161.683 26.3263 162.155 26.2515 162.7 26.2515ZM162.439 27.5075C161.758 27.5075 161.207 27.6391 160.789 27.9023C160.376 28.1654 160.074 28.5602 159.883 29.0865C159.691 29.6068 159.59 30.2618 159.578 31.0512V31.3383C159.578 32.1697 159.667 32.8725 159.847 33.4466C160.032 34.0208 160.334 34.4574 160.753 34.7565C161.177 35.0555 161.746 35.205 162.457 35.205C163.067 35.205 163.576 35.0406 163.983 34.7116C164.389 34.3827 164.691 33.9251 164.889 33.339C165.092 32.7469 165.194 32.068 165.194 31.3024C165.194 30.1421 164.966 29.2211 164.512 28.5392C164.063 27.8514 163.372 27.5075 162.439 27.5075ZM173.95 26.2515C175.176 26.2515 176.154 26.6732 176.884 27.5165C177.613 28.3598 177.978 29.6278 177.978 31.3204C177.978 32.4388 177.811 33.3778 177.476 34.1374C177.141 34.897 176.668 35.4712 176.058 35.86C175.454 36.2487 174.739 36.4431 173.914 36.4431C173.394 36.4431 172.936 36.3743 172.541 36.2368C172.147 36.0992 171.809 35.9138 171.528 35.6805C171.246 35.4473 171.013 35.1931 170.828 34.9179H170.72C170.738 35.1512 170.759 35.4323 170.783 35.7613C170.813 36.0902 170.828 36.3773 170.828 36.6225V40.6597H169.33V26.4309H170.559L170.756 27.8843H170.828C171.019 27.5853 171.252 27.3131 171.528 27.0679C171.803 26.8167 172.138 26.6193 172.532 26.4758C172.933 26.3263 173.406 26.2515 173.95 26.2515ZM173.69 27.5075C173.008 27.5075 172.458 27.6391 172.039 27.9023C171.626 28.1654 171.324 28.5602 171.133 29.0865C170.941 29.6068 170.84 30.2618 170.828 31.0512V31.3383C170.828 32.1697 170.917 32.8725 171.097 33.4466C171.282 34.0208 171.584 34.4574 172.003 34.7565C172.428 35.0555 172.996 35.205 173.708 35.205C174.318 35.205 174.826 35.0406 175.233 34.7116C175.639 34.3827 175.942 33.9251 176.139 33.339C176.342 32.7469 176.444 32.068 176.444 31.3024C176.444 30.1421 176.217 29.2211 175.762 28.5392C175.314 27.8514 174.623 27.5075 173.69 27.5075Z" fill="#60D76A"/>
<defs>
<linearGradient id="paint0_linear_37_9" x1="1324.24" y1="2634.21" x2="1324.24" y2="16" gradientUnits="userSpaceOnUse">
<stop stop-color="#1FAF38"/>
<stop offset="1" stop-color="#60D669"/>
</linearGradient>
<linearGradient id="paint1_linear_37_9" x1="1371" y1="2727.1" x2="1371" y2="15" gradientUnits="userSpaceOnUse">
<stop stop-color="#F9F9F9"/>
<stop offset="1" stop-color="white"/>
</linearGradient>
</defs>
</svg>
