<svg width="696" height="534" viewBox="0 0 696 534" fill="none" xmlns="http://www.w3.org/2000/svg">
<path d="M434 240C434 238.343 435.343 237 437 237L476.5 237C487.822 237 497 246.178 497 257.5V257.5C497 268.822 487.822 278 476.5 278L437 278C435.343 278 434 276.657 434 275L434 240Z" fill="white" fill-opacity="0.5"/>
<path d="M229.383 241.219L244.008 273H238.688L233.953 262.641H220.617L215.719 273H213.094L228.07 241.219H229.383ZM221.531 260.625H232.992L227.344 248.32L221.531 260.625ZM248.344 241.922H251.273L271.641 264.656H271.875V241.922H274.172V273.727H272.953L250.898 248.461H250.711V273H248.344V241.922ZM294.773 241.219L309.398 273H304.078L299.344 262.641H286.008L281.109 273H278.484L293.461 241.219H294.773ZM286.922 260.625H298.383L292.734 248.32L286.922 260.625ZM313.734 241.922H316.664L337.031 264.656H337.266V241.922H339.562V273.727H338.344L316.289 248.461H316.102V273H313.734V241.922ZM348 241.922H358.359C361.547 241.922 364.289 242.219 366.586 242.812C368.883 243.406 370.797 244.359 372.328 245.672C374.078 247.172 375.391 248.891 376.266 250.828C377.156 252.766 377.602 254.883 377.602 257.18C377.602 259.367 377.203 261.422 376.406 263.344C375.625 265.266 374.469 266.945 372.938 268.383C371.422 269.805 369.539 270.93 367.289 271.758C365.055 272.586 362.492 273 359.602 273H348V241.922ZM353.227 270.727H358.781C360.531 270.727 362.18 270.438 363.727 269.859C365.273 269.281 366.617 268.422 367.758 267.281C368.914 266.141 369.82 264.742 370.477 263.086C371.148 261.414 371.484 259.484 371.484 257.297C371.484 255.375 371.172 253.617 370.547 252.023C369.922 250.414 369.047 249.031 367.922 247.875C366.797 246.719 365.453 245.82 363.891 245.18C362.344 244.539 360.648 244.219 358.805 244.219H353.227V270.727ZM384.656 241.922H389.883V273H384.656V241.922ZM398.344 241.922H401.273L421.641 264.656H421.875V241.922H424.172V273.727H422.953L400.898 248.461H400.711V273H398.344V241.922Z" fill="white"/>
<path d="M454.617 241.219L469.242 273H463.922L459.188 262.641H445.852L440.953 273H438.328L453.305 241.219H454.617ZM446.766 260.625H458.227L452.578 248.32L446.766 260.625ZM473.578 241.922H478.805V273H473.578V241.922Z" fill="black" fill-opacity="0.5"/>
<path d="M217.674 287.416C217.674 287.873 217.781 288.284 217.996 288.648C218.22 289.003 218.514 289.283 218.878 289.488C219.242 289.693 219.653 289.796 220.11 289.796C220.586 289.796 221.011 289.693 221.384 289.488C221.757 289.283 222.051 289.003 222.266 288.648C222.481 288.284 222.588 287.873 222.588 287.416V280.878H223.918V287.458C223.918 288.195 223.745 288.839 223.4 289.39C223.064 289.941 222.607 290.365 222.028 290.664C221.459 290.963 220.819 291.112 220.11 291.112C219.401 291.112 218.761 290.963 218.192 290.664C217.623 290.365 217.17 289.941 216.834 289.39C216.498 288.839 216.33 288.195 216.33 287.458V280.878H217.674V287.416ZM227.536 285.204L227.648 286.618L227.592 286.394C227.779 285.965 228.082 285.624 228.502 285.372C228.922 285.111 229.408 284.98 229.958 284.98C230.509 284.98 230.957 285.143 231.302 285.47C231.657 285.787 231.839 286.203 231.848 286.716V291H230.532V287.178C230.523 286.861 230.43 286.604 230.252 286.408C230.084 286.203 229.818 286.1 229.454 286.1C229.118 286.1 228.815 286.193 228.544 286.38C228.274 286.567 228.059 286.823 227.9 287.15C227.751 287.477 227.676 287.855 227.676 288.284V291H226.374V285.204H227.536ZM234.113 280.164H235.415V291H234.113V280.164ZM237.163 288.046C237.163 287.467 237.299 286.945 237.569 286.478C237.849 286.011 238.232 285.643 238.717 285.372C239.203 285.101 239.753 284.966 240.369 284.966C241.004 284.966 241.559 285.101 242.035 285.372C242.511 285.643 242.88 286.011 243.141 286.478C243.403 286.945 243.533 287.467 243.533 288.046C243.533 288.625 243.403 289.152 243.141 289.628C242.88 290.095 242.507 290.463 242.021 290.734C241.545 291.005 240.99 291.14 240.355 291.14C239.739 291.14 239.189 291.014 238.703 290.762C238.227 290.501 237.849 290.141 237.569 289.684C237.299 289.217 237.163 288.671 237.163 288.046ZM238.465 288.06C238.465 288.433 238.549 288.774 238.717 289.082C238.885 289.381 239.109 289.619 239.389 289.796C239.679 289.973 239.996 290.062 240.341 290.062C240.705 290.062 241.027 289.973 241.307 289.796C241.597 289.619 241.821 289.381 241.979 289.082C242.138 288.774 242.217 288.433 242.217 288.06C242.217 287.687 242.138 287.351 241.979 287.052C241.821 286.744 241.597 286.501 241.307 286.324C241.027 286.137 240.705 286.044 240.341 286.044C239.987 286.044 239.665 286.137 239.375 286.324C239.095 286.511 238.871 286.758 238.703 287.066C238.545 287.365 238.465 287.696 238.465 288.06ZM250 290.468C249.739 290.673 249.426 290.837 249.062 290.958C248.698 291.079 248.334 291.14 247.97 291.14C247.335 291.14 246.78 291.014 246.304 290.762C245.828 290.51 245.455 290.16 245.184 289.712C244.923 289.255 244.792 288.718 244.792 288.102C244.792 287.486 244.932 286.949 245.212 286.492C245.501 286.035 245.875 285.685 246.332 285.442C246.799 285.19 247.298 285.064 247.83 285.064C248.297 285.064 248.712 285.129 249.076 285.26C249.449 285.391 249.767 285.568 250.028 285.792L249.384 286.632C249.216 286.501 249.011 286.385 248.768 286.282C248.525 286.179 248.25 286.128 247.942 286.128C247.606 286.128 247.293 286.217 247.004 286.394C246.724 286.562 246.5 286.795 246.332 287.094C246.173 287.393 246.094 287.729 246.094 288.102C246.094 288.457 246.178 288.788 246.346 289.096C246.514 289.395 246.747 289.633 247.046 289.81C247.345 289.978 247.685 290.062 248.068 290.062C248.32 290.062 248.549 290.025 248.754 289.95C248.969 289.875 249.16 289.773 249.328 289.642L250 290.468ZM251.681 291V280.164H252.983V291H251.681ZM254.383 287.15L257.043 291H255.517L253.515 287.878L254.383 287.15ZM252.577 289.152L252.451 287.906L255.965 285.078L256.763 285.764L252.577 289.152ZM258.654 285.204H259.956V291H258.654V285.204ZM258.556 283.104C258.556 282.899 258.635 282.726 258.794 282.586C258.962 282.446 259.144 282.376 259.34 282.376C259.536 282.376 259.708 282.446 259.858 282.586C260.016 282.726 260.096 282.899 260.096 283.104C260.096 283.319 260.016 283.496 259.858 283.636C259.708 283.767 259.536 283.832 259.34 283.832C259.144 283.832 258.962 283.762 258.794 283.622C258.635 283.482 258.556 283.309 258.556 283.104ZM263.37 285.204L263.482 286.618L263.426 286.394C263.613 285.965 263.916 285.624 264.336 285.372C264.756 285.111 265.242 284.98 265.792 284.98C266.343 284.98 266.791 285.143 267.136 285.47C267.491 285.787 267.673 286.203 267.682 286.716V291H266.366V287.178C266.357 286.861 266.264 286.604 266.086 286.408C265.918 286.203 265.652 286.1 265.288 286.1C264.952 286.1 264.649 286.193 264.378 286.38C264.108 286.567 263.893 286.823 263.734 287.15C263.585 287.477 263.51 287.855 263.51 288.284V291H262.208V285.204H263.37ZM272.733 293.87C272.303 293.87 271.925 293.819 271.599 293.716C271.272 293.623 270.973 293.487 270.703 293.31C270.441 293.133 270.189 292.932 269.947 292.708L270.703 291.826C271.011 292.115 271.323 292.339 271.641 292.498C271.958 292.657 272.313 292.736 272.705 292.736C273.143 292.736 273.512 292.661 273.811 292.512C274.119 292.372 274.352 292.171 274.511 291.91C274.669 291.658 274.749 291.364 274.749 291.028L274.763 289.46L274.875 289.712C274.707 290.113 274.403 290.454 273.965 290.734C273.526 291.005 272.994 291.14 272.369 291.14C271.837 291.14 271.347 291.005 270.899 290.734C270.46 290.463 270.105 290.099 269.835 289.642C269.573 289.175 269.443 288.653 269.443 288.074C269.443 287.467 269.583 286.935 269.863 286.478C270.143 286.011 270.511 285.643 270.969 285.372C271.426 285.101 271.925 284.966 272.467 284.966C272.98 284.966 273.447 285.073 273.867 285.288C274.296 285.493 274.609 285.759 274.805 286.086L274.735 286.324L274.875 285.204H276.065V291.042C276.065 291.565 275.929 292.041 275.659 292.47C275.388 292.899 275.005 293.24 274.511 293.492C274.016 293.744 273.423 293.87 272.733 293.87ZM270.745 288.046C270.745 288.419 270.833 288.76 271.011 289.068C271.188 289.376 271.426 289.619 271.725 289.796C272.033 289.973 272.373 290.062 272.747 290.062C273.092 290.062 273.4 290.001 273.671 289.88C273.951 289.749 274.184 289.577 274.371 289.362C274.557 289.138 274.688 288.881 274.763 288.592V287.444C274.679 287.164 274.539 286.921 274.343 286.716C274.147 286.501 273.913 286.338 273.643 286.226C273.372 286.105 273.073 286.044 272.747 286.044C272.373 286.044 272.033 286.128 271.725 286.296C271.426 286.464 271.188 286.702 271.011 287.01C270.833 287.309 270.745 287.654 270.745 288.046ZM283.065 280.878H284.423V291H283.065V280.878ZM288.171 285.204L288.283 286.618L288.227 286.394C288.414 285.965 288.717 285.624 289.137 285.372C289.557 285.111 290.042 284.98 290.593 284.98C291.144 284.98 291.592 285.143 291.937 285.47C292.292 285.787 292.474 286.203 292.483 286.716V291H291.167V287.178C291.158 286.861 291.064 286.604 290.887 286.408C290.719 286.203 290.453 286.1 290.089 286.1C289.753 286.1 289.45 286.193 289.179 286.38C288.908 286.567 288.694 286.823 288.535 287.15C288.386 287.477 288.311 287.855 288.311 288.284V291H287.009V285.204H288.171ZM296.371 291.112C295.961 291.112 295.559 291.042 295.167 290.902C294.785 290.753 294.467 290.533 294.215 290.244L294.761 289.488C295.004 289.721 295.251 289.899 295.503 290.02C295.765 290.132 296.021 290.188 296.273 290.188C296.46 290.188 296.633 290.165 296.791 290.118C296.95 290.071 297.076 289.997 297.169 289.894C297.272 289.782 297.323 289.633 297.323 289.446C297.323 289.241 297.253 289.077 297.113 288.956C296.983 288.835 296.81 288.737 296.595 288.662C296.39 288.587 296.171 288.517 295.937 288.452C295.461 288.293 295.097 288.074 294.845 287.794C294.593 287.514 294.467 287.173 294.467 286.772C294.467 286.464 294.542 286.179 294.691 285.918C294.85 285.647 295.079 285.428 295.377 285.26C295.685 285.092 296.063 285.008 296.511 285.008C296.913 285.008 297.272 285.059 297.589 285.162C297.907 285.255 298.205 285.414 298.485 285.638L297.967 286.45C297.799 286.273 297.599 286.142 297.365 286.058C297.132 285.974 296.922 285.927 296.735 285.918C296.577 285.909 296.423 285.932 296.273 285.988C296.133 286.044 296.017 286.123 295.923 286.226C295.83 286.329 295.783 286.45 295.783 286.59C295.783 286.786 295.849 286.945 295.979 287.066C296.11 287.187 296.278 287.285 296.483 287.36C296.698 287.425 296.908 287.495 297.113 287.57C297.403 287.654 297.659 287.766 297.883 287.906C298.107 288.046 298.285 288.219 298.415 288.424C298.555 288.629 298.625 288.886 298.625 289.194C298.625 289.539 298.541 289.861 298.373 290.16C298.215 290.449 297.967 290.683 297.631 290.86C297.305 291.028 296.885 291.112 296.371 291.112ZM300.448 285.204H301.75V291H300.448V285.204ZM300.35 283.104C300.35 282.899 300.43 282.726 300.588 282.586C300.756 282.446 300.938 282.376 301.134 282.376C301.33 282.376 301.503 282.446 301.652 282.586C301.811 282.726 301.89 282.899 301.89 283.104C301.89 283.319 301.811 283.496 301.652 283.636C301.503 283.767 301.33 283.832 301.134 283.832C300.938 283.832 300.756 283.762 300.588 283.622C300.43 283.482 300.35 283.309 300.35 283.104ZM306.789 293.87C306.36 293.87 305.982 293.819 305.655 293.716C305.328 293.623 305.03 293.487 304.759 293.31C304.498 293.133 304.246 292.932 304.003 292.708L304.759 291.826C305.067 292.115 305.38 292.339 305.697 292.498C306.014 292.657 306.369 292.736 306.761 292.736C307.2 292.736 307.568 292.661 307.867 292.512C308.175 292.372 308.408 292.171 308.567 291.91C308.726 291.658 308.805 291.364 308.805 291.028L308.819 289.46L308.931 289.712C308.763 290.113 308.46 290.454 308.021 290.734C307.582 291.005 307.05 291.14 306.425 291.14C305.893 291.14 305.403 291.005 304.955 290.734C304.516 290.463 304.162 290.099 303.891 289.642C303.63 289.175 303.499 288.653 303.499 288.074C303.499 287.467 303.639 286.935 303.919 286.478C304.199 286.011 304.568 285.643 305.025 285.372C305.482 285.101 305.982 284.966 306.523 284.966C307.036 284.966 307.503 285.073 307.923 285.288C308.352 285.493 308.665 285.759 308.861 286.086L308.791 286.324L308.931 285.204H310.121V291.042C310.121 291.565 309.986 292.041 309.715 292.47C309.444 292.899 309.062 293.24 308.567 293.492C308.072 293.744 307.48 293.87 306.789 293.87ZM304.801 288.046C304.801 288.419 304.89 288.76 305.067 289.068C305.244 289.376 305.482 289.619 305.781 289.796C306.089 289.973 306.43 290.062 306.803 290.062C307.148 290.062 307.456 290.001 307.727 289.88C308.007 289.749 308.24 289.577 308.427 289.362C308.614 289.138 308.744 288.881 308.819 288.592V287.444C308.735 287.164 308.595 286.921 308.399 286.716C308.203 286.501 307.97 286.338 307.699 286.226C307.428 286.105 307.13 286.044 306.803 286.044C306.43 286.044 306.089 286.128 305.781 286.296C305.482 286.464 305.244 286.702 305.067 287.01C304.89 287.309 304.801 287.654 304.801 288.046ZM312.37 291V280.164H313.644V286.548L313.616 286.31C313.812 285.927 314.111 285.61 314.512 285.358C314.923 285.106 315.404 284.98 315.954 284.98C316.505 284.98 316.953 285.143 317.298 285.47C317.653 285.787 317.835 286.203 317.844 286.716V291H316.528V287.178C316.519 286.861 316.426 286.604 316.248 286.408C316.08 286.203 315.814 286.1 315.45 286.1C315.114 286.1 314.811 286.198 314.54 286.394C314.27 286.581 314.055 286.837 313.896 287.164C313.747 287.491 313.672 287.864 313.672 288.284V291H312.37ZM320.669 282.656H321.971V285.232H323.567V286.254H321.971V291H320.669V286.254H319.605V285.232H320.669V282.656ZM326.764 291.112C326.353 291.112 325.952 291.042 325.56 290.902C325.177 290.753 324.86 290.533 324.608 290.244L325.154 289.488C325.397 289.721 325.644 289.899 325.896 290.02C326.157 290.132 326.414 290.188 326.666 290.188C326.853 290.188 327.025 290.165 327.184 290.118C327.343 290.071 327.469 289.997 327.562 289.894C327.665 289.782 327.716 289.633 327.716 289.446C327.716 289.241 327.646 289.077 327.506 288.956C327.375 288.835 327.203 288.737 326.988 288.662C326.783 288.587 326.563 288.517 326.33 288.452C325.854 288.293 325.49 288.074 325.238 287.794C324.986 287.514 324.86 287.173 324.86 286.772C324.86 286.464 324.935 286.179 325.084 285.918C325.243 285.647 325.471 285.428 325.77 285.26C326.078 285.092 326.456 285.008 326.904 285.008C327.305 285.008 327.665 285.059 327.982 285.162C328.299 285.255 328.598 285.414 328.878 285.638L328.36 286.45C328.192 286.273 327.991 286.142 327.758 286.058C327.525 285.974 327.315 285.927 327.128 285.918C326.969 285.909 326.815 285.932 326.666 285.988C326.526 286.044 326.409 286.123 326.316 286.226C326.223 286.329 326.176 286.45 326.176 286.59C326.176 286.786 326.241 286.945 326.372 287.066C326.503 287.187 326.671 287.285 326.876 287.36C327.091 287.425 327.301 287.495 327.506 287.57C327.795 287.654 328.052 287.766 328.276 287.906C328.5 288.046 328.677 288.219 328.808 288.424C328.948 288.629 329.018 288.886 329.018 289.194C329.018 289.539 328.934 289.861 328.766 290.16C328.607 290.449 328.36 290.683 328.024 290.86C327.697 291.028 327.277 291.112 326.764 291.112ZM332.017 289.782C331.812 290.267 331.606 290.748 331.401 291.224C331.205 291.709 331.004 292.199 330.799 292.694H329.749C329.936 292.199 330.118 291.709 330.295 291.224C330.472 290.748 330.654 290.267 330.841 289.782H332.017ZM338.436 280.878H345.016V282.18H339.794V285.26H344.456V286.562H339.794V289.698H345.212V291H338.436V280.878ZM348.409 285.204L348.521 286.506L348.465 286.394C348.68 285.955 348.983 285.61 349.375 285.358C349.777 285.106 350.234 284.98 350.747 284.98C351.074 284.98 351.363 285.031 351.615 285.134C351.867 285.237 352.073 285.386 352.231 285.582C352.399 285.769 352.507 286.002 352.553 286.282L352.483 286.324C352.707 285.904 353.015 285.577 353.407 285.344C353.809 285.101 354.229 284.98 354.667 284.98C355.237 284.98 355.685 285.143 356.011 285.47C356.347 285.787 356.52 286.203 356.529 286.716V291H355.227V287.178C355.218 286.879 355.143 286.632 355.003 286.436C354.873 286.231 354.639 286.119 354.303 286.1C353.967 286.1 353.664 286.203 353.393 286.408C353.132 286.613 352.927 286.879 352.777 287.206C352.628 287.523 352.549 287.869 352.539 288.242V291H351.237V287.178C351.228 286.879 351.149 286.632 350.999 286.436C350.859 286.231 350.621 286.119 350.285 286.1C349.94 286.1 349.637 286.203 349.375 286.408C349.114 286.613 348.909 286.879 348.759 287.206C348.619 287.533 348.549 287.883 348.549 288.256V291H347.247V285.204H348.409ZM362.216 291.14C361.777 291.14 361.353 291.037 360.942 290.832C360.541 290.627 360.228 290.351 360.004 290.006L360.088 289.6V293.786H358.8V285.12H359.92L360.102 286.604L359.962 286.198C360.242 285.843 360.597 285.549 361.026 285.316C361.455 285.083 361.936 284.966 362.468 284.966C363.009 284.966 363.495 285.097 363.924 285.358C364.363 285.619 364.708 285.983 364.96 286.45C365.212 286.917 365.338 287.463 365.338 288.088C365.338 288.713 365.203 289.255 364.932 289.712C364.661 290.169 364.288 290.524 363.812 290.776C363.345 291.019 362.813 291.14 362.216 291.14ZM361.964 290.104C362.337 290.104 362.678 290.02 362.986 289.852C363.303 289.675 363.555 289.437 363.742 289.138C363.929 288.83 364.022 288.485 364.022 288.102C364.022 287.71 363.933 287.365 363.756 287.066C363.579 286.758 363.341 286.515 363.042 286.338C362.753 286.161 362.426 286.072 362.062 286.072C361.726 286.072 361.423 286.137 361.152 286.268C360.881 286.399 360.657 286.581 360.48 286.814C360.303 287.038 360.177 287.299 360.102 287.598V288.564C360.149 288.863 360.261 289.129 360.438 289.362C360.615 289.595 360.835 289.777 361.096 289.908C361.367 290.039 361.656 290.104 361.964 290.104ZM366.595 288.046C366.595 287.467 366.73 286.945 367.001 286.478C367.281 286.011 367.664 285.643 368.149 285.372C368.634 285.101 369.185 284.966 369.801 284.966C370.436 284.966 370.991 285.101 371.467 285.372C371.943 285.643 372.312 286.011 372.573 286.478C372.834 286.945 372.965 287.467 372.965 288.046C372.965 288.625 372.834 289.152 372.573 289.628C372.312 290.095 371.938 290.463 371.453 290.734C370.977 291.005 370.422 291.14 369.787 291.14C369.171 291.14 368.62 291.014 368.135 290.762C367.659 290.501 367.281 290.141 367.001 289.684C366.73 289.217 366.595 288.671 366.595 288.046ZM367.897 288.06C367.897 288.433 367.981 288.774 368.149 289.082C368.317 289.381 368.541 289.619 368.821 289.796C369.11 289.973 369.428 290.062 369.773 290.062C370.137 290.062 370.459 289.973 370.739 289.796C371.028 289.619 371.252 289.381 371.411 289.082C371.57 288.774 371.649 288.433 371.649 288.06C371.649 287.687 371.57 287.351 371.411 287.052C371.252 286.744 371.028 286.501 370.739 286.324C370.459 286.137 370.137 286.044 369.773 286.044C369.418 286.044 369.096 286.137 368.807 286.324C368.527 286.511 368.303 286.758 368.135 287.066C367.976 287.365 367.897 287.696 367.897 288.06ZM378.26 285.204L379.968 289.11L379.716 289.138L381.312 285.204H382.586L379.926 291.35L378.064 287.374L376.37 291.35L373.682 285.204H374.956L376.762 289.292L376.314 289.208L377.602 286.212L377.14 285.204H378.26ZM386.535 291.14C385.872 291.14 385.303 291.009 384.827 290.748C384.351 290.477 383.982 290.113 383.721 289.656C383.469 289.189 383.343 288.657 383.343 288.06C383.343 287.491 383.488 286.973 383.777 286.506C384.066 286.039 384.454 285.666 384.939 285.386C385.424 285.106 385.966 284.966 386.563 284.966C387.328 284.966 387.963 285.19 388.467 285.638C388.971 286.086 389.312 286.702 389.489 287.486L384.715 289.166L384.407 288.396L388.327 286.968L388.047 287.15C387.935 286.842 387.748 286.576 387.487 286.352C387.226 286.119 386.885 286.002 386.465 286.002C386.11 286.002 385.793 286.091 385.513 286.268C385.233 286.436 385.014 286.669 384.855 286.968C384.696 287.267 384.617 287.607 384.617 287.99C384.617 288.391 384.701 288.746 384.869 289.054C385.037 289.353 385.266 289.591 385.555 289.768C385.854 289.936 386.19 290.02 386.563 290.02C386.815 290.02 387.058 289.973 387.291 289.88C387.534 289.787 387.758 289.665 387.963 289.516L388.565 290.482C388.276 290.678 387.949 290.837 387.585 290.958C387.23 291.079 386.88 291.14 386.535 291.14ZM392.282 285.204L392.408 286.884L392.338 286.66C392.488 286.305 392.702 286.007 392.982 285.764C393.272 285.512 393.57 285.321 393.878 285.19C394.196 285.05 394.471 284.98 394.704 284.98L394.634 286.268C394.196 286.24 393.808 286.324 393.472 286.52C393.146 286.716 392.884 286.977 392.688 287.304C392.502 287.631 392.408 287.981 392.408 288.354V291H391.12V285.204H392.282ZM396.384 285.204H397.686V291H396.384V285.204ZM396.286 283.104C396.286 282.899 396.365 282.726 396.524 282.586C396.692 282.446 396.874 282.376 397.07 282.376C397.266 282.376 397.439 282.446 397.588 282.586C397.747 282.726 397.826 282.899 397.826 283.104C397.826 283.319 397.747 283.496 397.588 283.636C397.439 283.767 397.266 283.832 397.07 283.832C396.874 283.832 396.692 283.762 396.524 283.622C396.365 283.482 396.286 283.309 396.286 283.104ZM401.101 285.204L401.213 286.618L401.157 286.394C401.343 285.965 401.647 285.624 402.067 285.372C402.487 285.111 402.972 284.98 403.523 284.98C404.073 284.98 404.521 285.143 404.867 285.47C405.221 285.787 405.403 286.203 405.413 286.716V291H404.097V287.178C404.087 286.861 403.994 286.604 403.817 286.408C403.649 286.203 403.383 286.1 403.019 286.1C402.683 286.1 402.379 286.193 402.109 286.38C401.838 286.567 401.623 286.823 401.465 287.15C401.315 287.477 401.241 287.855 401.241 288.284V291H399.939V285.204H401.101ZM410.463 293.87C410.034 293.87 409.656 293.819 409.329 293.716C409.002 293.623 408.704 293.487 408.433 293.31C408.172 293.133 407.92 292.932 407.677 292.708L408.433 291.826C408.741 292.115 409.054 292.339 409.371 292.498C409.688 292.657 410.043 292.736 410.435 292.736C410.874 292.736 411.242 292.661 411.541 292.512C411.849 292.372 412.082 292.171 412.241 291.91C412.4 291.658 412.479 291.364 412.479 291.028L412.493 289.46L412.605 289.712C412.437 290.113 412.134 290.454 411.695 290.734C411.256 291.005 410.724 291.14 410.099 291.14C409.567 291.14 409.077 291.005 408.629 290.734C408.19 290.463 407.836 290.099 407.565 289.642C407.304 289.175 407.173 288.653 407.173 288.074C407.173 287.467 407.313 286.935 407.593 286.478C407.873 286.011 408.242 285.643 408.699 285.372C409.156 285.101 409.656 284.966 410.197 284.966C410.71 284.966 411.177 285.073 411.597 285.288C412.026 285.493 412.339 285.759 412.535 286.086L412.465 286.324L412.605 285.204H413.795V291.042C413.795 291.565 413.66 292.041 413.389 292.47C413.118 292.899 412.736 293.24 412.241 293.492C411.746 293.744 411.154 293.87 410.463 293.87ZM408.475 288.046C408.475 288.419 408.564 288.76 408.741 289.068C408.918 289.376 409.156 289.619 409.455 289.796C409.763 289.973 410.104 290.062 410.477 290.062C410.822 290.062 411.13 290.001 411.401 289.88C411.681 289.749 411.914 289.577 412.101 289.362C412.288 289.138 412.418 288.881 412.493 288.592V287.444C412.409 287.164 412.269 286.921 412.073 286.716C411.877 286.501 411.644 286.338 411.373 286.226C411.102 286.105 410.804 286.044 410.477 286.044C410.104 286.044 409.763 286.128 409.455 286.296C409.156 286.464 408.918 286.702 408.741 287.01C408.564 287.309 408.475 287.654 408.475 288.046ZM420.796 280.878H422.154V291H420.796V280.878ZM425.901 285.204L426.013 286.618L425.957 286.394C426.144 285.965 426.447 285.624 426.867 285.372C427.287 285.111 427.773 284.98 428.323 284.98C428.874 284.98 429.322 285.143 429.667 285.47C430.022 285.787 430.204 286.203 430.213 286.716V291H428.897V287.178C428.888 286.861 428.795 286.604 428.617 286.408C428.449 286.203 428.183 286.1 427.819 286.1C427.483 286.1 427.18 286.193 426.909 286.38C426.639 286.567 426.424 286.823 426.265 287.15C426.116 287.477 426.041 287.855 426.041 288.284V291H424.739V285.204H425.901ZM433.64 285.204L433.752 286.618L433.696 286.394C433.882 285.965 434.186 285.624 434.606 285.372C435.026 285.111 435.511 284.98 436.062 284.98C436.612 284.98 437.06 285.143 437.406 285.47C437.76 285.787 437.942 286.203 437.952 286.716V291H436.636V287.178C436.626 286.861 436.533 286.604 436.356 286.408C436.188 286.203 435.922 286.1 435.558 286.1C435.222 286.1 434.918 286.193 434.648 286.38C434.377 286.567 434.162 286.823 434.004 287.15C433.854 287.477 433.78 287.855 433.78 288.284V291H432.478V285.204H433.64ZM439.712 288.046C439.712 287.467 439.847 286.945 440.118 286.478C440.398 286.011 440.781 285.643 441.266 285.372C441.751 285.101 442.302 284.966 442.918 284.966C443.553 284.966 444.108 285.101 444.584 285.372C445.06 285.643 445.429 286.011 445.69 286.478C445.951 286.945 446.082 287.467 446.082 288.046C446.082 288.625 445.951 289.152 445.69 289.628C445.429 290.095 445.055 290.463 444.57 290.734C444.094 291.005 443.539 291.14 442.904 291.14C442.288 291.14 441.737 291.014 441.252 290.762C440.776 290.501 440.398 290.141 440.118 289.684C439.847 289.217 439.712 288.671 439.712 288.046ZM441.014 288.06C441.014 288.433 441.098 288.774 441.266 289.082C441.434 289.381 441.658 289.619 441.938 289.796C442.227 289.973 442.545 290.062 442.89 290.062C443.254 290.062 443.576 289.973 443.856 289.796C444.145 289.619 444.369 289.381 444.528 289.082C444.687 288.774 444.766 288.433 444.766 288.06C444.766 287.687 444.687 287.351 444.528 287.052C444.369 286.744 444.145 286.501 443.856 286.324C443.576 286.137 443.254 286.044 442.89 286.044C442.535 286.044 442.213 286.137 441.924 286.324C441.644 286.511 441.42 286.758 441.252 287.066C441.093 287.365 441.014 287.696 441.014 288.06ZM450.019 291.168L446.799 285.204H448.339L450.523 289.81L449.725 289.782L451.727 285.204H453.183L450.089 291.168H450.019ZM456.761 291.14C456.219 291.14 455.725 291.023 455.277 290.79C454.838 290.557 454.488 290.216 454.227 289.768C453.975 289.311 453.849 288.755 453.849 288.102C453.849 287.458 453.984 286.903 454.255 286.436C454.525 285.96 454.885 285.596 455.333 285.344C455.79 285.092 456.289 284.966 456.831 284.966C457.372 284.966 457.829 285.092 458.203 285.344C458.576 285.587 458.861 285.876 459.057 286.212L458.973 286.436L459.099 285.204H460.303V291H459.001V289.488L459.141 289.824C459.103 289.917 459.019 290.039 458.889 290.188C458.767 290.328 458.599 290.473 458.385 290.622C458.179 290.771 457.941 290.897 457.671 291C457.4 291.093 457.097 291.14 456.761 291.14ZM457.111 290.062C457.437 290.062 457.731 290.001 457.993 289.88C458.254 289.759 458.469 289.591 458.637 289.376C458.814 289.152 458.935 288.886 459.001 288.578V287.444C458.926 287.164 458.795 286.921 458.609 286.716C458.422 286.501 458.198 286.338 457.937 286.226C457.675 286.105 457.386 286.044 457.069 286.044C456.723 286.044 456.406 286.128 456.117 286.296C455.827 286.464 455.594 286.697 455.417 286.996C455.249 287.295 455.165 287.645 455.165 288.046C455.165 288.419 455.253 288.76 455.431 289.068C455.608 289.376 455.846 289.619 456.145 289.796C456.443 289.973 456.765 290.062 457.111 290.062ZM463.116 282.656H464.418V285.232H466.014V286.254H464.418V291H463.116V286.254H462.052V285.232H463.116V282.656ZM467.587 285.204H468.889V291H467.587V285.204ZM467.489 283.104C467.489 282.899 467.568 282.726 467.727 282.586C467.895 282.446 468.077 282.376 468.273 282.376C468.469 282.376 468.642 282.446 468.791 282.586C468.95 282.726 469.029 282.899 469.029 283.104C469.029 283.319 468.95 283.496 468.791 283.636C468.642 283.767 468.469 283.832 468.273 283.832C468.077 283.832 467.895 283.762 467.727 283.622C467.568 283.482 467.489 283.309 467.489 283.104ZM470.638 288.046C470.638 287.467 470.773 286.945 471.044 286.478C471.324 286.011 471.706 285.643 472.192 285.372C472.677 285.101 473.228 284.966 473.844 284.966C474.478 284.966 475.034 285.101 475.51 285.372C475.986 285.643 476.354 286.011 476.616 286.478C476.877 286.945 477.008 287.467 477.008 288.046C477.008 288.625 476.877 289.152 476.616 289.628C476.354 290.095 475.981 290.463 475.496 290.734C475.02 291.005 474.464 291.14 473.83 291.14C473.214 291.14 472.663 291.014 472.178 290.762C471.702 290.501 471.324 290.141 471.044 289.684C470.773 289.217 470.638 288.671 470.638 288.046ZM471.94 288.06C471.94 288.433 472.024 288.774 472.192 289.082C472.36 289.381 472.584 289.619 472.864 289.796C473.153 289.973 473.47 290.062 473.816 290.062C474.18 290.062 474.502 289.973 474.782 289.796C475.071 289.619 475.295 289.381 475.454 289.082C475.612 288.774 475.692 288.433 475.692 288.06C475.692 287.687 475.612 287.351 475.454 287.052C475.295 286.744 475.071 286.501 474.782 286.324C474.502 286.137 474.18 286.044 473.816 286.044C473.461 286.044 473.139 286.137 472.85 286.324C472.57 286.511 472.346 286.758 472.178 287.066C472.019 287.365 471.94 287.696 471.94 288.06ZM479.933 285.204L480.045 286.618L479.989 286.394C480.175 285.965 480.479 285.624 480.899 285.372C481.319 285.111 481.804 284.98 482.355 284.98C482.905 284.98 483.353 285.143 483.699 285.47C484.053 285.787 484.235 286.203 484.245 286.716V291H482.929V287.178C482.919 286.861 482.826 286.604 482.649 286.408C482.481 286.203 482.215 286.1 481.851 286.1C481.515 286.1 481.211 286.193 480.941 286.38C480.67 286.567 480.455 286.823 480.297 287.15C480.147 287.477 480.073 287.855 480.073 288.284V291H478.771V285.204H479.933Z" fill="white"/>
</svg>
